<ttFont>
<head>
    <!-- Most of this table will be recalculated by the compiler -->
    <tableVersion value="1.0"/>
    <fontRevision value="1.002"/>
    <checkSumAdjustment value="0x9f001d23"/>
    <magicNumber value="0x5f0f3cf5"/>
    <flags value="00000000 00000011"/>
    <unitsPerEm value="1000"/>
    <created value="Sun Jan 10 02:33:53 2016"/>
    <modified value="Sun Jan 10 02:33:55 2016"/>
    <xMin value="-115"/>
    <yMin value="-403"/>
    <xMax value="1086"/>
    <yMax value="1225"/>
    <macStyle value="00000000 00000010"/>
    <lowestRecPPEM value="6"/>
    <fontDirectionHint value="2"/>
    <indexToLocFormat value="0"/>
    <glyphDataFormat value="0"/>
  </head>
    <TTGlyph name=".notdef" xMin="0" yMin="-200" xMax="500" yMax="800">
      <contour>
        <pt x="0" y="-200" on="1"/>
        <pt x="0" y="800" on="1"/>
        <pt x="500" y="800" on="1"/>
        <pt x="500" y="-200" on="1"/>
      </contour>
      <contour>
        <pt x="71" y="750" on="1"/>
        <pt x="250" y="360" on="1"/>
        <pt x="429" y="750" on="1"/>
      </contour>
      <contour>
        <pt x="450" y="676" on="1"/>
        <pt x="278" y="300" on="1"/>
        <pt x="450" y="-76" on="1"/>
      </contour>
      <contour>
        <pt x="50" y="-76" on="1"/>
        <pt x="222" y="300" on="1"/>
        <pt x="50" y="676" on="1"/>
      </contour>
      <contour>
        <pt x="250" y="240" on="1"/>
        <pt x="71" y="-150" on="1"/>
        <pt x="429" y="-150" on="1"/>
      </contour>
    </TTGlyph>
    <TTGlyph name="A" xMin="-50" yMin="-5" xMax="561" yMax="620">
      <contour>
        <pt x="313" y="-5" on="1"/>
        <pt x="314" y="13" on="0"/>
        <pt x="318" y="49" on="0"/>
        <pt x="319" y="67" on="1"/>
        <pt x="216" y="67" on="1"/>
        <pt x="212" y="50" on="0"/>
        <pt x="201" y="16" on="0"/>
        <pt x="197" y="0" on="1"/>
        <pt x="-50" y="0" on="1"/>
        <pt x="9" y="154" on="0"/>
        <pt x="139" y="466" on="0"/>
        <pt x="205" y="620" on="1"/>
        <pt x="545" y="620" on="1"/>
        <pt x="549" y="478" on="0"/>
        <pt x="557" y="168" on="0"/>
        <pt x="561" y="5" on="1"/>
      </contour>
      <contour>
        <pt x="325" y="435" on="1"/>
        <pt x="311" y="387" on="0"/>
        <pt x="280" y="285" on="0"/>
        <pt x="265" y="234" on="1"/>
        <pt x="330" y="234" on="1"/>
        <pt x="333" y="285" on="0"/>
        <pt x="339" y="387" on="0"/>
        <pt x="340" y="435" on="1"/>
      </contour>
    </TTGlyph>
    <TTGlyph name="A.sc" xMin="-45" yMin="-5" xMax="541" yMax="561">
      <contour>
        <pt x="296" y="-5" on="1"/>
        <pt x="297" y="13" on="0"/>
        <pt x="301" y="49" on="0"/>
        <pt x="302" y="67" on="1"/>
        <pt x="211" y="67" on="1"/>
        <pt x="206" y="50" on="0"/>
        <pt x="195" y="16" on="0"/>
        <pt x="191" y="0" on="1"/>
        <pt x="-45" y="0" on="1"/>
        <pt x="12" y="139" on="0"/>
        <pt x="138" y="422" on="0"/>
        <pt x="202" y="561" on="1"/>
        <pt x="510" y="561" on="1"/>
        <pt x="517" y="423" on="0"/>
        <pt x="534" y="143" on="0"/>
        <pt x="541" y="5" on="1"/>
      </contour>
      <contour>
        <pt x="311" y="374" on="1"/>
        <pt x="299" y="337" on="0"/>
        <pt x="273" y="258" on="0"/>
        <pt x="260" y="218" on="1"/>
        <pt x="313" y="218" on="1"/>
        <pt x="315" y="258" on="0"/>
        <pt x="320" y="337" on="0"/>
        <pt x="321" y="374" on="1"/>
      </contour>
    </TTGlyph>
    <TTGlyph name="AE" xMin="-55" yMin="0" xMax="852" yMax="620">
      <contour>
        <pt x="366" y="438" on="1"/>
        <pt x="347" y="395" on="0"/>
        <pt x="308" y="301" on="0"/>
        <pt x="289" y="254" on="1"/>
        <pt x="346" y="254" on="1"/>
        <pt x="381" y="438" on="1"/>
      </contour>
      <contour>
        <pt x="296" y="0" on="1"/>
        <pt x="313" y="89" on="1"/>
        <pt x="223" y="89" on="1"/>
        <pt x="213" y="67" on="0"/>
        <pt x="195" y="22" on="0"/>
        <pt x="187" y="0" on="1"/>
        <pt x="-55" y="0" on="1"/>
        <pt x="16" y="154" on="0"/>
        <pt x="171" y="466" on="0"/>
        <pt x="251" y="620" on="1"/>
        <pt x="852" y="620" on="1"/>
        <pt x="817" y="438" on="1"/>
        <pt x="611" y="438" on="1"/>
        <pt x="600" y="379" on="1"/>
        <pt x="754" y="379" on="1"/>
        <pt x="728" y="242" on="1"/>
        <pt x="573" y="242" on="1"/>
        <pt x="561" y="182" on="1"/>
        <pt x="776" y="182" on="1"/>
        <pt x="730" y="0" on="1"/>
      </contour>
    </TTGlyph>
    <TTGlyph name="AE.sc" xMin="-51" yMin="0" xMax="814" yMax="561">
      <contour>
        <pt x="356" y="396" on="1"/>
        <pt x="337" y="355" on="0"/>
        <pt x="298" y="270" on="0"/>
        <pt x="279" y="228" on="1"/>
        <pt x="334" y="228" on="1"/>
        <pt x="366" y="396" on="1"/>
      </contour>
      <contour>
        <pt x="290" y="0" on="1"/>
        <pt x="305" y="77" on="1"/>
        <pt x="211" y="77" on="1"/>
        <pt x="203" y="58" on="0"/>
        <pt x="186" y="19" on="0"/>
        <pt x="179" y="0" on="1"/>
        <pt x="-51" y="0" on="1"/>
        <pt x="15" y="139" on="0"/>
        <pt x="162" y="422" on="0"/>
        <pt x="237" y="561" on="1"/>
        <pt x="814" y="561" on="1"/>
        <pt x="783" y="396" on="1"/>
        <pt x="586" y="396" on="1"/>
        <pt x="575" y="343" on="1"/>
        <pt x="723" y="343" on="1"/>
        <pt x="699" y="219" on="1"/>
        <pt x="550" y="219" on="1"/>
        <pt x="539" y="165" on="1"/>
        <pt x="746" y="165" on="1"/>
        <pt x="704" y="0" on="1"/>
      </contour>
    </TTGlyph>
    <TTGlyph name="AEacute" xMin="-55" yMin="0" xMax="852" yMax="916">
      <contour>
        <pt x="395" y="737" on="1"/>
        <pt x="470" y="778" on="0"/>
        <pt x="605" y="867" on="0"/>
        <pt x="668" y="916" on="1"/>
        <pt x="769" y="748" on="1"/>
        <pt x="688" y="702" on="0"/>
        <pt x="512" y="658" on="0"/>
        <pt x="421" y="647" on="1"/>
      </contour>
      <contour>
        <pt x="366" y="438" on="1"/>
        <pt x="347" y="395" on="0"/>
        <pt x="308" y="301" on="0"/>
        <pt x="289" y="254" on="1"/>
        <pt x="346" y="254" on="1"/>
        <pt x="381" y="438" on="1"/>
      </contour>
      <contour>
        <pt x="296" y="0" on="1"/>
        <pt x="313" y="89" on="1"/>
        <pt x="223" y="89" on="1"/>
        <pt x="213" y="67" on="0"/>
        <pt x="195" y="22" on="0"/>
        <pt x="187" y="0" on="1"/>
        <pt x="-55" y="0" on="1"/>
        <pt x="16" y="154" on="0"/>
        <pt x="171" y="466" on="0"/>
        <pt x="251" y="620" on="1"/>
        <pt x="852" y="620" on="1"/>
        <pt x="817" y="438" on="1"/>
        <pt x="611" y="438" on="1"/>
        <pt x="600" y="379" on="1"/>
        <pt x="754" y="379" on="1"/>
        <pt x="728" y="242" on="1"/>
        <pt x="573" y="242" on="1"/>
        <pt x="561" y="182" on="1"/>
        <pt x="776" y="182" on="1"/>
        <pt x="730" y="0" on="1"/>
      </contour>
    </TTGlyph>
    <TTGlyph name="AEacute.sc" xMin="-51" yMin="0" xMax="814" yMax="857">
      <contour>
        <pt x="379" y="678" on="1"/>
        <pt x="454" y="719" on="0"/>
        <pt x="589" y="808" on="0"/>
        <pt x="652" y="857" on="1"/>
        <pt x="753" y="689" on="1"/>
        <pt x="672" y="643" on="0"/>
        <pt x="496" y="599" on="0"/>
        <pt x="405" y="588" on="1"/>
      </contour>
      <contour>
        <pt x="356" y="396" on="1"/>
        <pt x="337" y="355" on="0"/>
        <pt x="298" y="270" on="0"/>
        <pt x="279" y="228" on="1"/>
        <pt x="334" y="228" on="1"/>
        <pt x="366" y="396" on="1"/>
      </contour>
      <contour>
        <pt x="290" y="0" on="1"/>
        <pt x="305" y="77" on="1"/>
        <pt x="211" y="77" on="1"/>
        <pt x="203" y="58" on="0"/>
        <pt x="186" y="19" on="0"/>
        <pt x="179" y="0" on="1"/>
        <pt x="-51" y="0" on="1"/>
        <pt x="15" y="139" on="0"/>
        <pt x="162" y="422" on="0"/>
        <pt x="237" y="561" on="1"/>
        <pt x="814" y="561" on="1"/>
        <pt x="783" y="396" on="1"/>
        <pt x="586" y="396" on="1"/>
        <pt x="575" y="343" on="1"/>
        <pt x="723" y="343" on="1"/>
        <pt x="699" y="219" on="1"/>
        <pt x="550" y="219" on="1"/>
        <pt x="539" y="165" on="1"/>
        <pt x="746" y="165" on="1"/>
        <pt x="704" y="0" on="1"/>
      </contour>
    </TTGlyph>
    <TTGlyph name="Aacute" xMin="-50" yMin="-5" xMax="604" yMax="916">
      <contour>
        <pt x="230" y="737" on="1"/>
        <pt x="305" y="778" on="0"/>
        <pt x="440" y="867" on="0"/>
        <pt x="503" y="916" on="1"/>
        <pt x="604" y="748" on="1"/>
        <pt x="523" y="702" on="0"/>
        <pt x="347" y="658" on="0"/>
        <pt x="256" y="647" on="1"/>
      </contour>
      <contour>
        <pt x="313" y="-5" on="1"/>
        <pt x="314" y="13" on="0"/>
        <pt x="318" y="49" on="0"/>
        <pt x="319" y="67" on="1"/>
        <pt x="216" y="67" on="1"/>
        <pt x="212" y="50" on="0"/>
        <pt x="201" y="16" on="0"/>
        <pt x="197" y="0" on="1"/>
        <pt x="-50" y="0" on="1"/>
        <pt x="9" y="154" on="0"/>
        <pt x="139" y="466" on="0"/>
        <pt x="205" y="620" on="1"/>
        <pt x="545" y="620" on="1"/>
        <pt x="549" y="478" on="0"/>
        <pt x="557" y="168" on="0"/>
        <pt x="561" y="5" on="1"/>
      </contour>
      <contour>
        <pt x="325" y="435" on="1"/>
        <pt x="311" y="387" on="0"/>
        <pt x="280" y="285" on="0"/>
        <pt x="265" y="234" on="1"/>
        <pt x="330" y="234" on="1"/>
        <pt x="333" y="285" on="0"/>
        <pt x="339" y="387" on="0"/>
        <pt x="340" y="435" on="1"/>
      </contour>
    </TTGlyph>
    <TTGlyph name="Aacute.sc" xMin="-45" yMin="-5" xMax="583" yMax="857">
      <contour>
        <pt x="209" y="678" on="1"/>
        <pt x="284" y="719" on="0"/>
        <pt x="419" y="808" on="0"/>
        <pt x="482" y="857" on="1"/>
        <pt x="583" y="689" on="1"/>
        <pt x="502" y="643" on="0"/>
        <pt x="326" y="599" on="0"/>
        <pt x="235" y="588" on="1"/>
      </contour>
      <contour>
        <pt x="296" y="-5" on="1"/>
        <pt x="297" y="13" on="0"/>
        <pt x="301" y="49" on="0"/>
        <pt x="302" y="67" on="1"/>
        <pt x="211" y="67" on="1"/>
        <pt x="206" y="50" on="0"/>
        <pt x="195" y="16" on="0"/>
        <pt x="191" y="0" on="1"/>
        <pt x="-45" y="0" on="1"/>
        <pt x="12" y="139" on="0"/>
        <pt x="138" y="422" on="0"/>
        <pt x="202" y="561" on="1"/>
        <pt x="510" y="561" on="1"/>
        <pt x="517" y="423" on="0"/>
        <pt x="534" y="143" on="0"/>
        <pt x="541" y="5" on="1"/>
      </contour>
      <contour>
        <pt x="311" y="374" on="1"/>
        <pt x="299" y="337" on="0"/>
        <pt x="273" y="258" on="0"/>
        <pt x="260" y="218" on="1"/>
        <pt x="313" y="218" on="1"/>
        <pt x="315" y="258" on="0"/>
        <pt x="320" y="337" on="0"/>
        <pt x="321" y="374" on="1"/>
      </contour>
    </TTGlyph>
    <TTGlyph name="Abreve" xMin="-50" yMin="-5" xMax="629" yMax="887">
      <contour>
        <pt x="528" y="887" on="1"/>
        <pt x="629" y="814" on="1"/>
        <pt x="605" y="782" on="0"/>
        <pt x="550" y="722" on="0"/>
        <pt x="488" y="678" on="0"/>
        <pt x="418" y="652" on="0"/>
        <pt x="380" y="652" on="1"/>
        <pt x="309" y="652" on="0"/>
        <pt x="211" y="746" on="0"/>
        <pt x="187" y="816" on="1"/>
        <pt x="327" y="887" on="1"/>
        <pt x="343" y="857" on="0"/>
        <pt x="388" y="821" on="0"/>
        <pt x="414" y="821" on="1"/>
        <pt x="439" y="821" on="0"/>
        <pt x="498" y="856" on="0"/>
      </contour>
      <contour>
        <pt x="313" y="-5" on="1"/>
        <pt x="314" y="13" on="0"/>
        <pt x="318" y="49" on="0"/>
        <pt x="319" y="67" on="1"/>
        <pt x="216" y="67" on="1"/>
        <pt x="212" y="50" on="0"/>
        <pt x="201" y="16" on="0"/>
        <pt x="197" y="0" on="1"/>
        <pt x="-50" y="0" on="1"/>
        <pt x="9" y="154" on="0"/>
        <pt x="139" y="466" on="0"/>
        <pt x="205" y="620" on="1"/>
        <pt x="545" y="620" on="1"/>
        <pt x="549" y="478" on="0"/>
        <pt x="557" y="168" on="0"/>
        <pt x="561" y="5" on="1"/>
      </contour>
      <contour>
        <pt x="325" y="435" on="1"/>
        <pt x="311" y="387" on="0"/>
        <pt x="280" y="285" on="0"/>
        <pt x="265" y="234" on="1"/>
        <pt x="330" y="234" on="1"/>
        <pt x="333" y="285" on="0"/>
        <pt x="339" y="387" on="0"/>
        <pt x="340" y="435" on="1"/>
      </contour>
    </TTGlyph>
    <TTGlyph name="Abreve.sc" xMin="-45" yMin="-5" xMax="608" yMax="828">
      <contour>
        <pt x="507" y="828" on="1"/>
        <pt x="608" y="755" on="1"/>
        <pt x="584" y="723" on="0"/>
        <pt x="529" y="663" on="0"/>
        <pt x="467" y="619" on="0"/>
        <pt x="397" y="593" on="0"/>
        <pt x="359" y="593" on="1"/>
        <pt x="288" y="593" on="0"/>
        <pt x="190" y="687" on="0"/>
        <pt x="166" y="757" on="1"/>
        <pt x="306" y="828" on="1"/>
        <pt x="322" y="798" on="0"/>
        <pt x="367" y="762" on="0"/>
        <pt x="393" y="762" on="1"/>
        <pt x="418" y="762" on="0"/>
        <pt x="477" y="797" on="0"/>
      </contour>
      <contour>
        <pt x="296" y="-5" on="1"/>
        <pt x="297" y="13" on="0"/>
        <pt x="301" y="49" on="0"/>
        <pt x="302" y="67" on="1"/>
        <pt x="211" y="67" on="1"/>
        <pt x="206" y="50" on="0"/>
        <pt x="195" y="16" on="0"/>
        <pt x="191" y="0" on="1"/>
        <pt x="-45" y="0" on="1"/>
        <pt x="12" y="139" on="0"/>
        <pt x="138" y="422" on="0"/>
        <pt x="202" y="561" on="1"/>
        <pt x="510" y="561" on="1"/>
        <pt x="517" y="423" on="0"/>
        <pt x="534" y="143" on="0"/>
        <pt x="541" y="5" on="1"/>
      </contour>
      <contour>
        <pt x="311" y="374" on="1"/>
        <pt x="299" y="337" on="0"/>
        <pt x="273" y="258" on="0"/>
        <pt x="260" y="218" on="1"/>
        <pt x="313" y="218" on="1"/>
        <pt x="315" y="258" on="0"/>
        <pt x="320" y="337" on="0"/>
        <pt x="321" y="374" on="1"/>
      </contour>
    </TTGlyph>
    <TTGlyph name="Acircumflex" xMin="-50" yMin="-5" xMax="613" yMax="894">
      <contour>
        <pt x="490" y="643" on="1"/>
        <pt x="394" y="732" on="1"/>
        <pt x="254" y="646" on="1"/>
        <pt x="175" y="758" on="1"/>
        <pt x="394" y="894" on="1"/>
        <pt x="448" y="894" on="1"/>
        <pt x="613" y="741" on="1"/>
      </contour>
      <contour>
        <pt x="313" y="-5" on="1"/>
        <pt x="314" y="13" on="0"/>
        <pt x="318" y="49" on="0"/>
        <pt x="319" y="67" on="1"/>
        <pt x="216" y="67" on="1"/>
        <pt x="212" y="50" on="0"/>
        <pt x="201" y="16" on="0"/>
        <pt x="197" y="0" on="1"/>
        <pt x="-50" y="0" on="1"/>
        <pt x="9" y="154" on="0"/>
        <pt x="139" y="466" on="0"/>
        <pt x="205" y="620" on="1"/>
        <pt x="545" y="620" on="1"/>
        <pt x="549" y="478" on="0"/>
        <pt x="557" y="168" on="0"/>
        <pt x="561" y="5" on="1"/>
      </contour>
      <contour>
        <pt x="325" y="435" on="1"/>
        <pt x="311" y="387" on="0"/>
        <pt x="280" y="285" on="0"/>
        <pt x="265" y="234" on="1"/>
        <pt x="330" y="234" on="1"/>
        <pt x="333" y="285" on="0"/>
        <pt x="339" y="387" on="0"/>
        <pt x="340" y="435" on="1"/>
      </contour>
    </TTGlyph>
    <TTGlyph name="Acircumflex.sc" xMin="-45" yMin="-5" xMax="593" yMax="835">
      <contour>
        <pt x="470" y="584" on="1"/>
        <pt x="374" y="673" on="1"/>
        <pt x="234" y="587" on="1"/>
        <pt x="155" y="699" on="1"/>
        <pt x="374" y="835" on="1"/>
        <pt x="428" y="835" on="1"/>
        <pt x="593" y="682" on="1"/>
      </contour>
      <contour>
        <pt x="296" y="-5" on="1"/>
        <pt x="297" y="13" on="0"/>
        <pt x="301" y="49" on="0"/>
        <pt x="302" y="67" on="1"/>
        <pt x="211" y="67" on="1"/>
        <pt x="206" y="50" on="0"/>
        <pt x="195" y="16" on="0"/>
        <pt x="191" y="0" on="1"/>
        <pt x="-45" y="0" on="1"/>
        <pt x="12" y="139" on="0"/>
        <pt x="138" y="422" on="0"/>
        <pt x="202" y="561" on="1"/>
        <pt x="510" y="561" on="1"/>
        <pt x="517" y="423" on="0"/>
        <pt x="534" y="143" on="0"/>
        <pt x="541" y="5" on="1"/>
      </contour>
      <contour>
        <pt x="311" y="374" on="1"/>
        <pt x="299" y="337" on="0"/>
        <pt x="273" y="258" on="0"/>
        <pt x="260" y="218" on="1"/>
        <pt x="313" y="218" on="1"/>
        <pt x="315" y="258" on="0"/>
        <pt x="320" y="337" on="0"/>
        <pt x="321" y="374" on="1"/>
      </contour>
    </TTGlyph>
    <TTGlyph name="Adieresis" xMin="-50" yMin="-5" xMax="647" yMax="844">
      <contour>
        <pt x="600" y="667" on="1"/>
        <pt x="398" y="667" on="1"/>
        <pt x="437" y="842" on="1"/>
        <pt x="647" y="844" on="1"/>
      </contour>
      <contour>
        <pt x="348" y="667" on="1"/>
        <pt x="146" y="667" on="1"/>
        <pt x="185" y="839" on="1"/>
        <pt x="395" y="842" on="1"/>
      </contour>
      <contour>
        <pt x="313" y="-5" on="1"/>
        <pt x="314" y="13" on="0"/>
        <pt x="318" y="49" on="0"/>
        <pt x="319" y="67" on="1"/>
        <pt x="216" y="67" on="1"/>
        <pt x="212" y="50" on="0"/>
        <pt x="201" y="16" on="0"/>
        <pt x="197" y="0" on="1"/>
        <pt x="-50" y="0" on="1"/>
        <pt x="9" y="154" on="0"/>
        <pt x="139" y="466" on="0"/>
        <pt x="205" y="620" on="1"/>
        <pt x="545" y="620" on="1"/>
        <pt x="549" y="478" on="0"/>
        <pt x="557" y="168" on="0"/>
        <pt x="561" y="5" on="1"/>
      </contour>
      <contour>
        <pt x="325" y="435" on="1"/>
        <pt x="311" y="387" on="0"/>
        <pt x="280" y="285" on="0"/>
        <pt x="265" y="234" on="1"/>
        <pt x="330" y="234" on="1"/>
        <pt x="333" y="285" on="0"/>
        <pt x="339" y="387" on="0"/>
        <pt x="340" y="435" on="1"/>
      </contour>
    </TTGlyph>
    <TTGlyph name="Adieresis.sc" xMin="-45" yMin="-5" xMax="626" yMax="785">
      <contour>
        <pt x="579" y="608" on="1"/>
        <pt x="377" y="608" on="1"/>
        <pt x="416" y="783" on="1"/>
        <pt x="626" y="785" on="1"/>
      </contour>
      <contour>
        <pt x="327" y="608" on="1"/>
        <pt x="125" y="608" on="1"/>
        <pt x="164" y="780" on="1"/>
        <pt x="374" y="783" on="1"/>
      </contour>
      <contour>
        <pt x="296" y="-5" on="1"/>
        <pt x="297" y="13" on="0"/>
        <pt x="301" y="49" on="0"/>
        <pt x="302" y="67" on="1"/>
        <pt x="211" y="67" on="1"/>
        <pt x="206" y="50" on="0"/>
        <pt x="195" y="16" on="0"/>
        <pt x="191" y="0" on="1"/>
        <pt x="-45" y="0" on="1"/>
        <pt x="12" y="139" on="0"/>
        <pt x="138" y="422" on="0"/>
        <pt x="202" y="561" on="1"/>
        <pt x="510" y="561" on="1"/>
        <pt x="517" y="423" on="0"/>
        <pt x="534" y="143" on="0"/>
        <pt x="541" y="5" on="1"/>
      </contour>
      <contour>
        <pt x="311" y="374" on="1"/>
        <pt x="299" y="337" on="0"/>
        <pt x="273" y="258" on="0"/>
        <pt x="260" y="218" on="1"/>
        <pt x="313" y="218" on="1"/>
        <pt x="315" y="258" on="0"/>
        <pt x="320" y="337" on="0"/>
        <pt x="321" y="374" on="1"/>
      </contour>
    </TTGlyph>
    <TTGlyph name="Agrave" xMin="-50" yMin="-5" xMax="561" yMax="916">
      <contour>
        <pt x="540" y="737" on="1"/>
        <pt x="514" y="647" on="1"/>
        <pt x="423" y="658" on="0"/>
        <pt x="247" y="702" on="0"/>
        <pt x="166" y="748" on="1"/>
        <pt x="267" y="916" on="1"/>
        <pt x="330" y="867" on="0"/>
        <pt x="465" y="778" on="0"/>
      </contour>
      <contour>
        <pt x="313" y="-5" on="1"/>
        <pt x="314" y="13" on="0"/>
        <pt x="318" y="49" on="0"/>
        <pt x="319" y="67" on="1"/>
        <pt x="216" y="67" on="1"/>
        <pt x="212" y="50" on="0"/>
        <pt x="201" y="16" on="0"/>
        <pt x="197" y="0" on="1"/>
        <pt x="-50" y="0" on="1"/>
        <pt x="9" y="154" on="0"/>
        <pt x="139" y="466" on="0"/>
        <pt x="205" y="620" on="1"/>
        <pt x="545" y="620" on="1"/>
        <pt x="549" y="478" on="0"/>
        <pt x="557" y="168" on="0"/>
        <pt x="561" y="5" on="1"/>
      </contour>
      <contour>
        <pt x="325" y="435" on="1"/>
        <pt x="311" y="387" on="0"/>
        <pt x="280" y="285" on="0"/>
        <pt x="265" y="234" on="1"/>
        <pt x="330" y="234" on="1"/>
        <pt x="333" y="285" on="0"/>
        <pt x="339" y="387" on="0"/>
        <pt x="340" y="435" on="1"/>
      </contour>
    </TTGlyph>
    <TTGlyph name="Agrave.sc" xMin="-45" yMin="-5" xMax="541" yMax="857">
      <contour>
        <pt x="519" y="678" on="1"/>
        <pt x="493" y="588" on="1"/>
        <pt x="402" y="599" on="0"/>
        <pt x="226" y="643" on="0"/>
        <pt x="145" y="689" on="1"/>
        <pt x="246" y="857" on="1"/>
        <pt x="309" y="808" on="0"/>
        <pt x="444" y="719" on="0"/>
      </contour>
      <contour>
        <pt x="296" y="-5" on="1"/>
        <pt x="297" y="13" on="0"/>
        <pt x="301" y="49" on="0"/>
        <pt x="302" y="67" on="1"/>
        <pt x="211" y="67" on="1"/>
        <pt x="206" y="50" on="0"/>
        <pt x="195" y="16" on="0"/>
        <pt x="191" y="0" on="1"/>
        <pt x="-45" y="0" on="1"/>
        <pt x="12" y="139" on="0"/>
        <pt x="138" y="422" on="0"/>
        <pt x="202" y="561" on="1"/>
        <pt x="510" y="561" on="1"/>
        <pt x="517" y="423" on="0"/>
        <pt x="534" y="143" on="0"/>
        <pt x="541" y="5" on="1"/>
      </contour>
      <contour>
        <pt x="311" y="374" on="1"/>
        <pt x="299" y="337" on="0"/>
        <pt x="273" y="258" on="0"/>
        <pt x="260" y="218" on="1"/>
        <pt x="313" y="218" on="1"/>
        <pt x="315" y="258" on="0"/>
        <pt x="320" y="337" on="0"/>
        <pt x="321" y="374" on="1"/>
      </contour>
    </TTGlyph>
    <TTGlyph name="Amacron" xMin="-50" yMin="-5" xMax="615" yMax="852">
      <contour>
        <pt x="615" y="852" on="1"/>
        <pt x="580" y="670" on="1"/>
        <pt x="180" y="670" on="1"/>
        <pt x="215" y="852" on="1"/>
      </contour>
      <contour>
        <pt x="313" y="-5" on="1"/>
        <pt x="314" y="13" on="0"/>
        <pt x="318" y="49" on="0"/>
        <pt x="319" y="67" on="1"/>
        <pt x="216" y="67" on="1"/>
        <pt x="212" y="50" on="0"/>
        <pt x="201" y="16" on="0"/>
        <pt x="197" y="0" on="1"/>
        <pt x="-50" y="0" on="1"/>
        <pt x="9" y="154" on="0"/>
        <pt x="139" y="466" on="0"/>
        <pt x="205" y="620" on="1"/>
        <pt x="545" y="620" on="1"/>
        <pt x="549" y="478" on="0"/>
        <pt x="557" y="168" on="0"/>
        <pt x="561" y="5" on="1"/>
      </contour>
      <contour>
        <pt x="325" y="435" on="1"/>
        <pt x="311" y="387" on="0"/>
        <pt x="280" y="285" on="0"/>
        <pt x="265" y="234" on="1"/>
        <pt x="330" y="234" on="1"/>
        <pt x="333" y="285" on="0"/>
        <pt x="339" y="387" on="0"/>
        <pt x="340" y="435" on="1"/>
      </contour>
    </TTGlyph>
    <TTGlyph name="Amacron.sc" xMin="-45" yMin="-5" xMax="594" yMax="793">
      <contour>
        <pt x="594" y="793" on="1"/>
        <pt x="559" y="611" on="1"/>
        <pt x="159" y="611" on="1"/>
        <pt x="194" y="793" on="1"/>
      </contour>
      <contour>
        <pt x="296" y="-5" on="1"/>
        <pt x="297" y="13" on="0"/>
        <pt x="301" y="49" on="0"/>
        <pt x="302" y="67" on="1"/>
        <pt x="211" y="67" on="1"/>
        <pt x="206" y="50" on="0"/>
        <pt x="195" y="16" on="0"/>
        <pt x="191" y="0" on="1"/>
        <pt x="-45" y="0" on="1"/>
        <pt x="12" y="139" on="0"/>
        <pt x="138" y="422" on="0"/>
        <pt x="202" y="561" on="1"/>
        <pt x="510" y="561" on="1"/>
        <pt x="517" y="423" on="0"/>
        <pt x="534" y="143" on="0"/>
        <pt x="541" y="5" on="1"/>
      </contour>
      <contour>
        <pt x="311" y="374" on="1"/>
        <pt x="299" y="337" on="0"/>
        <pt x="273" y="258" on="0"/>
        <pt x="260" y="218" on="1"/>
        <pt x="313" y="218" on="1"/>
        <pt x="315" y="258" on="0"/>
        <pt x="320" y="337" on="0"/>
        <pt x="321" y="374" on="1"/>
      </contour>
    </TTGlyph>
    <TTGlyph name="Aogonek" xMin="-50" yMin="-237" xMax="561" yMax="620">
      <contour>
        <pt x="349" y="-237" on="1"/>
        <pt x="285" y="-237" on="0"/>
        <pt x="223" y="-178" on="0"/>
        <pt x="223" y="-132" on="1"/>
        <pt x="223" y="-98" on="0"/>
        <pt x="263" y="-31" on="0"/>
        <pt x="313" y="-1" on="1"/>
        <pt x="314" y="16" on="0"/>
        <pt x="318" y="50" on="0"/>
        <pt x="319" y="67" on="1"/>
        <pt x="216" y="67" on="1"/>
        <pt x="212" y="50" on="0"/>
        <pt x="201" y="16" on="0"/>
        <pt x="197" y="0" on="1"/>
        <pt x="-50" y="0" on="1"/>
        <pt x="9" y="154" on="0"/>
        <pt x="139" y="466" on="0"/>
        <pt x="205" y="620" on="1"/>
        <pt x="545" y="620" on="1"/>
        <pt x="549" y="478" on="0"/>
        <pt x="557" y="168" on="0"/>
        <pt x="561" y="5" on="1"/>
        <pt x="465" y="-14" on="0"/>
        <pt x="403" y="-55" on="0"/>
        <pt x="403" y="-68" on="1"/>
        <pt x="403" y="-78" on="0"/>
        <pt x="429" y="-89" on="0"/>
        <pt x="457" y="-89" on="1"/>
        <pt x="466" y="-89" on="0"/>
        <pt x="487" y="-88" on="0"/>
        <pt x="500" y="-87" on="1"/>
        <pt x="501" y="-206" on="1"/>
        <pt x="455" y="-222" on="0"/>
        <pt x="380" y="-237" on="0"/>
      </contour>
      <contour>
        <pt x="325" y="435" on="1"/>
        <pt x="311" y="387" on="0"/>
        <pt x="280" y="285" on="0"/>
        <pt x="265" y="234" on="1"/>
        <pt x="330" y="234" on="1"/>
        <pt x="333" y="285" on="0"/>
        <pt x="339" y="387" on="0"/>
        <pt x="340" y="435" on="1"/>
      </contour>
    </TTGlyph>
    <TTGlyph name="Aogonek.sc" xMin="-45" yMin="-237" xMax="541" yMax="561">
      <contour>
        <pt x="329" y="-237" on="1"/>
        <pt x="265" y="-237" on="0"/>
        <pt x="203" y="-178" on="0"/>
        <pt x="203" y="-132" on="1"/>
        <pt x="203" y="-98" on="0"/>
        <pt x="244" y="-30" on="0"/>
        <pt x="297" y="1" on="1"/>
        <pt x="298" y="17" on="0"/>
        <pt x="301" y="51" on="0"/>
        <pt x="302" y="67" on="1"/>
        <pt x="211" y="67" on="1"/>
        <pt x="206" y="50" on="0"/>
        <pt x="195" y="16" on="0"/>
        <pt x="191" y="0" on="1"/>
        <pt x="-45" y="0" on="1"/>
        <pt x="12" y="139" on="0"/>
        <pt x="138" y="422" on="0"/>
        <pt x="202" y="561" on="1"/>
        <pt x="510" y="561" on="1"/>
        <pt x="517" y="423" on="0"/>
        <pt x="534" y="143" on="0"/>
        <pt x="541" y="5" on="1"/>
        <pt x="445" y="-14" on="0"/>
        <pt x="383" y="-55" on="0"/>
        <pt x="383" y="-68" on="1"/>
        <pt x="383" y="-78" on="0"/>
        <pt x="409" y="-89" on="0"/>
        <pt x="437" y="-89" on="1"/>
        <pt x="446" y="-89" on="0"/>
        <pt x="467" y="-88" on="0"/>
        <pt x="480" y="-87" on="1"/>
        <pt x="481" y="-206" on="1"/>
        <pt x="435" y="-222" on="0"/>
        <pt x="360" y="-237" on="0"/>
      </contour>
      <contour>
        <pt x="311" y="374" on="1"/>
        <pt x="299" y="337" on="0"/>
        <pt x="273" y="258" on="0"/>
        <pt x="260" y="218" on="1"/>
        <pt x="313" y="218" on="1"/>
        <pt x="315" y="258" on="0"/>
        <pt x="320" y="337" on="0"/>
        <pt x="321" y="374" on="1"/>
      </contour>
    </TTGlyph>
    <TTGlyph name="Aring" xMin="-50" yMin="-5" xMax="570" yMax="938">
      <contour>
        <pt x="417" y="938" on="1"/>
        <pt x="487" y="938" on="0"/>
        <pt x="570" y="860" on="0"/>
        <pt x="570" y="805" on="1"/>
        <pt x="570" y="775" on="0"/>
        <pt x="544" y="719" on="0"/>
        <pt x="496" y="677" on="0"/>
        <pt x="431" y="652" on="0"/>
        <pt x="392" y="652" on="1"/>
        <pt x="322" y="652" on="0"/>
        <pt x="239" y="729" on="0"/>
        <pt x="239" y="785" on="1"/>
        <pt x="239" y="816" on="0"/>
        <pt x="265" y="871" on="0"/>
        <pt x="312" y="913" on="0"/>
        <pt x="378" y="938" on="0"/>
      </contour>
      <contour>
        <pt x="313" y="-5" on="1"/>
        <pt x="314" y="13" on="0"/>
        <pt x="318" y="49" on="0"/>
        <pt x="319" y="67" on="1"/>
        <pt x="216" y="67" on="1"/>
        <pt x="212" y="50" on="0"/>
        <pt x="201" y="16" on="0"/>
        <pt x="197" y="0" on="1"/>
        <pt x="-50" y="0" on="1"/>
        <pt x="9" y="154" on="0"/>
        <pt x="139" y="466" on="0"/>
        <pt x="205" y="620" on="1"/>
        <pt x="545" y="620" on="1"/>
        <pt x="549" y="478" on="0"/>
        <pt x="557" y="168" on="0"/>
        <pt x="561" y="5" on="1"/>
      </contour>
      <contour>
        <pt x="325" y="435" on="1"/>
        <pt x="311" y="387" on="0"/>
        <pt x="280" y="285" on="0"/>
        <pt x="265" y="234" on="1"/>
        <pt x="330" y="234" on="1"/>
        <pt x="333" y="285" on="0"/>
        <pt x="339" y="387" on="0"/>
        <pt x="340" y="435" on="1"/>
      </contour>
    </TTGlyph>
    <TTGlyph name="Aring.sc" xMin="-45" yMin="-5" xMax="549" yMax="879">
      <contour>
        <pt x="396" y="879" on="1"/>
        <pt x="466" y="879" on="0"/>
        <pt x="549" y="801" on="0"/>
        <pt x="549" y="746" on="1"/>
        <pt x="549" y="716" on="0"/>
        <pt x="523" y="660" on="0"/>
        <pt x="475" y="618" on="0"/>
        <pt x="410" y="593" on="0"/>
        <pt x="371" y="593" on="1"/>
        <pt x="301" y="593" on="0"/>
        <pt x="218" y="670" on="0"/>
        <pt x="218" y="726" on="1"/>
        <pt x="218" y="757" on="0"/>
        <pt x="244" y="812" on="0"/>
        <pt x="291" y="854" on="0"/>
        <pt x="357" y="879" on="0"/>
      </contour>
      <contour>
        <pt x="296" y="-5" on="1"/>
        <pt x="297" y="13" on="0"/>
        <pt x="301" y="49" on="0"/>
        <pt x="302" y="67" on="1"/>
        <pt x="211" y="67" on="1"/>
        <pt x="206" y="50" on="0"/>
        <pt x="195" y="16" on="0"/>
        <pt x="191" y="0" on="1"/>
        <pt x="-45" y="0" on="1"/>
        <pt x="12" y="139" on="0"/>
        <pt x="138" y="422" on="0"/>
        <pt x="202" y="561" on="1"/>
        <pt x="510" y="561" on="1"/>
        <pt x="517" y="423" on="0"/>
        <pt x="534" y="143" on="0"/>
        <pt x="541" y="5" on="1"/>
      </contour>
      <contour>
        <pt x="311" y="374" on="1"/>
        <pt x="299" y="337" on="0"/>
        <pt x="273" y="258" on="0"/>
        <pt x="260" y="218" on="1"/>
        <pt x="313" y="218" on="1"/>
        <pt x="315" y="258" on="0"/>
        <pt x="320" y="337" on="0"/>
        <pt x="321" y="374" on="1"/>
      </contour>
    </TTGlyph>
    <TTGlyph name="Aringacute" xMin="-50" yMin="-5" xMax="664" yMax="1225">
      <contour>
        <pt x="290" y="1046" on="1"/>
        <pt x="365" y="1087" on="0"/>
        <pt x="500" y="1176" on="0"/>
        <pt x="563" y="1225" on="1"/>
        <pt x="664" y="1057" on="1"/>
        <pt x="583" y="1011" on="0"/>
        <pt x="407" y="967" on="0"/>
        <pt x="316" y="956" on="1"/>
      </contour>
      <contour>
        <pt x="417" y="938" on="1"/>
        <pt x="487" y="938" on="0"/>
        <pt x="570" y="860" on="0"/>
        <pt x="570" y="805" on="1"/>
        <pt x="570" y="775" on="0"/>
        <pt x="544" y="719" on="0"/>
        <pt x="496" y="677" on="0"/>
        <pt x="431" y="652" on="0"/>
        <pt x="392" y="652" on="1"/>
        <pt x="322" y="652" on="0"/>
        <pt x="239" y="729" on="0"/>
        <pt x="239" y="785" on="1"/>
        <pt x="239" y="816" on="0"/>
        <pt x="265" y="871" on="0"/>
        <pt x="312" y="913" on="0"/>
        <pt x="378" y="938" on="0"/>
      </contour>
      <contour>
        <pt x="313" y="-5" on="1"/>
        <pt x="314" y="13" on="0"/>
        <pt x="318" y="49" on="0"/>
        <pt x="319" y="67" on="1"/>
        <pt x="216" y="67" on="1"/>
        <pt x="212" y="50" on="0"/>
        <pt x="201" y="16" on="0"/>
        <pt x="197" y="0" on="1"/>
        <pt x="-50" y="0" on="1"/>
        <pt x="9" y="154" on="0"/>
        <pt x="139" y="466" on="0"/>
        <pt x="205" y="620" on="1"/>
        <pt x="545" y="620" on="1"/>
        <pt x="549" y="478" on="0"/>
        <pt x="557" y="168" on="0"/>
        <pt x="561" y="5" on="1"/>
      </contour>
      <contour>
        <pt x="325" y="435" on="1"/>
        <pt x="311" y="387" on="0"/>
        <pt x="280" y="285" on="0"/>
        <pt x="265" y="234" on="1"/>
        <pt x="330" y="234" on="1"/>
        <pt x="333" y="285" on="0"/>
        <pt x="339" y="387" on="0"/>
        <pt x="340" y="435" on="1"/>
      </contour>
    </TTGlyph>
    <TTGlyph name="Aringacute.sc" xMin="-45" yMin="-5" xMax="644" yMax="1166">
      <contour>
        <pt x="270" y="987" on="1"/>
        <pt x="345" y="1028" on="0"/>
        <pt x="480" y="1117" on="0"/>
        <pt x="543" y="1166" on="1"/>
        <pt x="644" y="998" on="1"/>
        <pt x="563" y="952" on="0"/>
        <pt x="387" y="908" on="0"/>
        <pt x="296" y="897" on="1"/>
      </contour>
      <contour>
        <pt x="396" y="879" on="1"/>
        <pt x="466" y="879" on="0"/>
        <pt x="549" y="801" on="0"/>
        <pt x="549" y="746" on="1"/>
        <pt x="549" y="716" on="0"/>
        <pt x="523" y="660" on="0"/>
        <pt x="475" y="618" on="0"/>
        <pt x="410" y="593" on="0"/>
        <pt x="371" y="593" on="1"/>
        <pt x="301" y="593" on="0"/>
        <pt x="218" y="670" on="0"/>
        <pt x="218" y="726" on="1"/>
        <pt x="218" y="757" on="0"/>
        <pt x="244" y="812" on="0"/>
        <pt x="291" y="854" on="0"/>
        <pt x="357" y="879" on="0"/>
      </contour>
      <contour>
        <pt x="296" y="-5" on="1"/>
        <pt x="297" y="13" on="0"/>
        <pt x="301" y="49" on="0"/>
        <pt x="302" y="67" on="1"/>
        <pt x="211" y="67" on="1"/>
        <pt x="206" y="50" on="0"/>
        <pt x="195" y="16" on="0"/>
        <pt x="191" y="0" on="1"/>
        <pt x="-45" y="0" on="1"/>
        <pt x="12" y="139" on="0"/>
        <pt x="138" y="422" on="0"/>
        <pt x="202" y="561" on="1"/>
        <pt x="510" y="561" on="1"/>
        <pt x="517" y="423" on="0"/>
        <pt x="534" y="143" on="0"/>
        <pt x="541" y="5" on="1"/>
      </contour>
      <contour>
        <pt x="311" y="374" on="1"/>
        <pt x="299" y="337" on="0"/>
        <pt x="273" y="258" on="0"/>
        <pt x="260" y="218" on="1"/>
        <pt x="313" y="218" on="1"/>
        <pt x="315" y="258" on="0"/>
        <pt x="320" y="337" on="0"/>
        <pt x="321" y="374" on="1"/>
      </contour>
    </TTGlyph>
    <TTGlyph name="Atilde" xMin="-50" yMin="-5" xMax="650" yMax="885">
      <contour>
        <pt x="488" y="821" on="1"/>
        <pt x="499" y="821" on="0"/>
        <pt x="528" y="851" on="0"/>
        <pt x="550" y="885" on="1"/>
        <pt x="650" y="827" on="1"/>
        <pt x="607" y="747" on="0"/>
        <pt x="521" y="658" on="0"/>
        <pt x="469" y="658" on="1"/>
        <pt x="443" y="658" on="0"/>
        <pt x="396" y="678" on="0"/>
        <pt x="356" y="701" on="0"/>
        <pt x="324" y="721" on="0"/>
        <pt x="312" y="721" on="1"/>
        <pt x="300" y="721" on="0"/>
        <pt x="273" y="691" on="0"/>
        <pt x="250" y="657" on="1"/>
        <pt x="150" y="715" on="1"/>
        <pt x="191" y="792" on="0"/>
        <pt x="275" y="884" on="0"/>
        <pt x="327" y="884" on="1"/>
        <pt x="353" y="884" on="0"/>
        <pt x="401" y="864" on="0"/>
        <pt x="442" y="841" on="0"/>
        <pt x="476" y="821" on="0"/>
      </contour>
      <contour>
        <pt x="313" y="-5" on="1"/>
        <pt x="314" y="13" on="0"/>
        <pt x="318" y="49" on="0"/>
        <pt x="319" y="67" on="1"/>
        <pt x="216" y="67" on="1"/>
        <pt x="212" y="50" on="0"/>
        <pt x="201" y="16" on="0"/>
        <pt x="197" y="0" on="1"/>
        <pt x="-50" y="0" on="1"/>
        <pt x="9" y="154" on="0"/>
        <pt x="139" y="466" on="0"/>
        <pt x="205" y="620" on="1"/>
        <pt x="545" y="620" on="1"/>
        <pt x="549" y="478" on="0"/>
        <pt x="557" y="168" on="0"/>
        <pt x="561" y="5" on="1"/>
      </contour>
      <contour>
        <pt x="325" y="435" on="1"/>
        <pt x="311" y="387" on="0"/>
        <pt x="280" y="285" on="0"/>
        <pt x="265" y="234" on="1"/>
        <pt x="330" y="234" on="1"/>
        <pt x="333" y="285" on="0"/>
        <pt x="339" y="387" on="0"/>
        <pt x="340" y="435" on="1"/>
      </contour>
    </TTGlyph>
    <TTGlyph name="Atilde.sc" xMin="-45" yMin="-5" xMax="629" yMax="826">
      <contour>
        <pt x="467" y="762" on="1"/>
        <pt x="478" y="762" on="0"/>
        <pt x="507" y="792" on="0"/>
        <pt x="529" y="826" on="1"/>
        <pt x="629" y="768" on="1"/>
        <pt x="586" y="688" on="0"/>
        <pt x="500" y="599" on="0"/>
        <pt x="448" y="599" on="1"/>
        <pt x="422" y="599" on="0"/>
        <pt x="375" y="619" on="0"/>
        <pt x="335" y="642" on="0"/>
        <pt x="303" y="662" on="0"/>
        <pt x="291" y="662" on="1"/>
        <pt x="279" y="662" on="0"/>
        <pt x="252" y="632" on="0"/>
        <pt x="229" y="598" on="1"/>
        <pt x="129" y="656" on="1"/>
        <pt x="170" y="733" on="0"/>
        <pt x="254" y="825" on="0"/>
        <pt x="306" y="825" on="1"/>
        <pt x="332" y="825" on="0"/>
        <pt x="380" y="805" on="0"/>
        <pt x="421" y="782" on="0"/>
        <pt x="455" y="762" on="0"/>
      </contour>
      <contour>
        <pt x="296" y="-5" on="1"/>
        <pt x="297" y="13" on="0"/>
        <pt x="301" y="49" on="0"/>
        <pt x="302" y="67" on="1"/>
        <pt x="211" y="67" on="1"/>
        <pt x="206" y="50" on="0"/>
        <pt x="195" y="16" on="0"/>
        <pt x="191" y="0" on="1"/>
        <pt x="-45" y="0" on="1"/>
        <pt x="12" y="139" on="0"/>
        <pt x="138" y="422" on="0"/>
        <pt x="202" y="561" on="1"/>
        <pt x="510" y="561" on="1"/>
        <pt x="517" y="423" on="0"/>
        <pt x="534" y="143" on="0"/>
        <pt x="541" y="5" on="1"/>
      </contour>
      <contour>
        <pt x="311" y="374" on="1"/>
        <pt x="299" y="337" on="0"/>
        <pt x="273" y="258" on="0"/>
        <pt x="260" y="218" on="1"/>
        <pt x="313" y="218" on="1"/>
        <pt x="315" y="258" on="0"/>
        <pt x="320" y="337" on="0"/>
        <pt x="321" y="374" on="1"/>
      </contour>
    </TTGlyph>
    <TTGlyph name="B" xMin="-8" yMin="-9" xMax="605" yMax="629">
      <contour>
        <pt x="193" y="-9" on="1"/>
        <pt x="149" y="-9" on="0"/>
        <pt x="49" y="-4" on="0"/>
        <pt x="-8" y="3" on="1"/>
        <pt x="110" y="613" on="1"/>
        <pt x="170" y="621" on="0"/>
        <pt x="275" y="629" on="0"/>
        <pt x="320" y="629" on="1"/>
        <pt x="472" y="629" on="0"/>
        <pt x="605" y="545" on="0"/>
        <pt x="605" y="479" on="1"/>
        <pt x="605" y="433" on="0"/>
        <pt x="543" y="348" on="0"/>
        <pt x="480" y="320" on="1"/>
        <pt x="523" y="301" on="0"/>
        <pt x="567" y="235" on="0"/>
        <pt x="567" y="193" on="1"/>
        <pt x="567" y="151" on="0"/>
        <pt x="528" y="77" on="0"/>
        <pt x="440" y="22" on="0"/>
        <pt x="297" y="-9" on="0"/>
      </contour>
      <contour>
        <pt x="325" y="447" on="1"/>
        <pt x="321" y="447" on="0"/>
        <pt x="313" y="447" on="0"/>
        <pt x="309" y="446" on="1"/>
        <pt x="294" y="362" on="1"/>
        <pt x="340" y="365" on="0"/>
        <pt x="378" y="392" on="0"/>
        <pt x="378" y="411" on="1"/>
        <pt x="378" y="428" on="0"/>
        <pt x="352" y="447" on="0"/>
      </contour>
      <contour>
        <pt x="281" y="173" on="1"/>
        <pt x="316" y="173" on="0"/>
        <pt x="351" y="198" on="0"/>
        <pt x="351" y="217" on="1"/>
        <pt x="351" y="234" on="0"/>
        <pt x="323" y="254" on="0"/>
        <pt x="290" y="254" on="1"/>
        <pt x="286" y="254" on="0"/>
        <pt x="277" y="254" on="0"/>
        <pt x="273" y="253" on="1"/>
        <pt x="258" y="174" on="1"/>
        <pt x="264" y="173" on="0"/>
        <pt x="276" y="173" on="0"/>
      </contour>
    </TTGlyph>
    <TTGlyph name="B.sc" xMin="-6" yMin="-8" xMax="576" yMax="569">
      <contour>
        <pt x="190" y="-8" on="1"/>
        <pt x="147" y="-8" on="0"/>
        <pt x="49" y="-3" on="0"/>
        <pt x="-6" y="3" on="1"/>
        <pt x="100" y="554" on="1"/>
        <pt x="159" y="561" on="0"/>
        <pt x="261" y="569" on="0"/>
        <pt x="304" y="569" on="1"/>
        <pt x="451" y="569" on="0"/>
        <pt x="576" y="492" on="0"/>
        <pt x="576" y="430" on="1"/>
        <pt x="576" y="390" on="0"/>
        <pt x="517" y="315" on="0"/>
        <pt x="457" y="290" on="1"/>
        <pt x="500" y="273" on="0"/>
        <pt x="542" y="210" on="0"/>
        <pt x="542" y="170" on="1"/>
        <pt x="542" y="135" on="0"/>
        <pt x="509" y="70" on="0"/>
        <pt x="429" y="21" on="0"/>
        <pt x="292" y="-8" on="0"/>
      </contour>
      <contour>
        <pt x="308" y="405" on="1"/>
        <pt x="304" y="405" on="0"/>
        <pt x="297" y="405" on="0"/>
        <pt x="293" y="404" on="1"/>
        <pt x="278" y="327" on="1"/>
        <pt x="324" y="330" on="0"/>
        <pt x="359" y="354" on="0"/>
        <pt x="359" y="372" on="1"/>
        <pt x="359" y="388" on="0"/>
        <pt x="334" y="405" on="0"/>
      </contour>
      <contour>
        <pt x="269" y="156" on="1"/>
        <pt x="303" y="156" on="0"/>
        <pt x="336" y="179" on="0"/>
        <pt x="336" y="196" on="1"/>
        <pt x="336" y="212" on="0"/>
        <pt x="308" y="230" on="0"/>
        <pt x="276" y="230" on="1"/>
        <pt x="272" y="230" on="0"/>
        <pt x="264" y="230" on="0"/>
        <pt x="260" y="229" on="1"/>
        <pt x="246" y="158" on="1"/>
        <pt x="252" y="157" on="0"/>
        <pt x="264" y="156" on="0"/>
      </contour>
    </TTGlyph>
    <TTGlyph name="C" xMin="20" yMin="-11" xMax="575" yMax="632">
      <contour>
        <pt x="375" y="632" on="1"/>
        <pt x="471" y="632" on="0"/>
        <pt x="575" y="525" on="0"/>
        <pt x="575" y="401" on="1"/>
        <pt x="575" y="388" on="0"/>
        <pt x="574" y="360" on="0"/>
        <pt x="573" y="345" on="1"/>
        <pt x="357" y="343" on="1"/>
        <pt x="358" y="351" on="0"/>
        <pt x="359" y="366" on="0"/>
        <pt x="359" y="373" on="1"/>
        <pt x="359" y="397" on="0"/>
        <pt x="347" y="419" on="0"/>
        <pt x="337" y="419" on="1"/>
        <pt x="324" y="419" on="0"/>
        <pt x="299" y="391" on="0"/>
        <pt x="280" y="349" on="0"/>
        <pt x="268" y="299" on="0"/>
        <pt x="268" y="277" on="1"/>
        <pt x="268" y="242" on="0"/>
        <pt x="312" y="207" on="0"/>
        <pt x="372" y="207" on="1"/>
        <pt x="400" y="207" on="0"/>
        <pt x="478" y="215" on="0"/>
        <pt x="528" y="223" on="1"/>
        <pt x="495" y="20" on="1"/>
        <pt x="434" y="4" on="0"/>
        <pt x="329" y="-11" on="0"/>
        <pt x="285" y="-11" on="1"/>
        <pt x="146" y="-11" on="0"/>
        <pt x="20" y="121" on="0"/>
        <pt x="20" y="227" on="1"/>
        <pt x="20" y="306" on="0"/>
        <pt x="75" y="453" on="0"/>
        <pt x="170" y="565" on="0"/>
        <pt x="300" y="632" on="0"/>
      </contour>
    </TTGlyph>
    <TTGlyph name="C.sc" xMin="18" yMin="-11" xMax="547" yMax="573">
      <contour>
        <pt x="354" y="573" on="1"/>
        <pt x="445" y="573" on="0"/>
        <pt x="547" y="478" on="0"/>
        <pt x="547" y="368" on="1"/>
        <pt x="547" y="355" on="0"/>
        <pt x="545" y="327" on="0"/>
        <pt x="544" y="312" on="1"/>
        <pt x="340" y="310" on="1"/>
        <pt x="341" y="317" on="0"/>
        <pt x="341" y="329" on="0"/>
        <pt x="341" y="335" on="1"/>
        <pt x="341" y="358" on="0"/>
        <pt x="330" y="379" on="0"/>
        <pt x="320" y="379" on="1"/>
        <pt x="308" y="379" on="0"/>
        <pt x="284" y="354" on="0"/>
        <pt x="265" y="316" on="0"/>
        <pt x="254" y="271" on="0"/>
        <pt x="254" y="251" on="1"/>
        <pt x="254" y="219" on="0"/>
        <pt x="297" y="187" on="0"/>
        <pt x="354" y="187" on="1"/>
        <pt x="382" y="187" on="0"/>
        <pt x="456" y="195" on="0"/>
        <pt x="505" y="202" on="1"/>
        <pt x="475" y="18" on="1"/>
        <pt x="416" y="3" on="0"/>
        <pt x="315" y="-11" on="0"/>
        <pt x="272" y="-11" on="1"/>
        <pt x="139" y="-11" on="0"/>
        <pt x="18" y="111" on="0"/>
        <pt x="18" y="208" on="1"/>
        <pt x="18" y="280" on="0"/>
        <pt x="69" y="412" on="0"/>
        <pt x="159" y="513" on="0"/>
        <pt x="282" y="573" on="0"/>
      </contour>
    </TTGlyph>
    <TTGlyph name="Cacute" xMin="20" yMin="-11" xMax="616" yMax="923">
      <contour>
        <pt x="242" y="744" on="1"/>
        <pt x="317" y="785" on="0"/>
        <pt x="452" y="874" on="0"/>
        <pt x="515" y="923" on="1"/>
        <pt x="616" y="755" on="1"/>
        <pt x="535" y="709" on="0"/>
        <pt x="359" y="665" on="0"/>
        <pt x="268" y="654" on="1"/>
      </contour>
      <contour>
        <pt x="375" y="632" on="1"/>
        <pt x="471" y="632" on="0"/>
        <pt x="575" y="525" on="0"/>
        <pt x="575" y="401" on="1"/>
        <pt x="575" y="388" on="0"/>
        <pt x="574" y="360" on="0"/>
        <pt x="573" y="345" on="1"/>
        <pt x="357" y="343" on="1"/>
        <pt x="358" y="351" on="0"/>
        <pt x="359" y="366" on="0"/>
        <pt x="359" y="373" on="1"/>
        <pt x="359" y="397" on="0"/>
        <pt x="347" y="419" on="0"/>
        <pt x="337" y="419" on="1"/>
        <pt x="324" y="419" on="0"/>
        <pt x="299" y="391" on="0"/>
        <pt x="280" y="349" on="0"/>
        <pt x="268" y="299" on="0"/>
        <pt x="268" y="277" on="1"/>
        <pt x="268" y="242" on="0"/>
        <pt x="312" y="207" on="0"/>
        <pt x="372" y="207" on="1"/>
        <pt x="400" y="207" on="0"/>
        <pt x="478" y="215" on="0"/>
        <pt x="528" y="223" on="1"/>
        <pt x="495" y="20" on="1"/>
        <pt x="434" y="4" on="0"/>
        <pt x="329" y="-11" on="0"/>
        <pt x="285" y="-11" on="1"/>
        <pt x="146" y="-11" on="0"/>
        <pt x="20" y="121" on="0"/>
        <pt x="20" y="227" on="1"/>
        <pt x="20" y="306" on="0"/>
        <pt x="75" y="453" on="0"/>
        <pt x="170" y="565" on="0"/>
        <pt x="300" y="632" on="0"/>
      </contour>
    </TTGlyph>
    <TTGlyph name="Cacute.sc" xMin="18" yMin="-11" xMax="594" yMax="864">
      <contour>
        <pt x="220" y="685" on="1"/>
        <pt x="295" y="726" on="0"/>
        <pt x="430" y="815" on="0"/>
        <pt x="493" y="864" on="1"/>
        <pt x="594" y="696" on="1"/>
        <pt x="513" y="650" on="0"/>
        <pt x="337" y="606" on="0"/>
        <pt x="246" y="595" on="1"/>
      </contour>
      <contour>
        <pt x="354" y="573" on="1"/>
        <pt x="445" y="573" on="0"/>
        <pt x="547" y="478" on="0"/>
        <pt x="547" y="368" on="1"/>
        <pt x="547" y="355" on="0"/>
        <pt x="545" y="327" on="0"/>
        <pt x="544" y="312" on="1"/>
        <pt x="340" y="310" on="1"/>
        <pt x="341" y="317" on="0"/>
        <pt x="341" y="329" on="0"/>
        <pt x="341" y="335" on="1"/>
        <pt x="341" y="358" on="0"/>
        <pt x="330" y="379" on="0"/>
        <pt x="320" y="379" on="1"/>
        <pt x="308" y="379" on="0"/>
        <pt x="284" y="354" on="0"/>
        <pt x="265" y="316" on="0"/>
        <pt x="254" y="271" on="0"/>
        <pt x="254" y="251" on="1"/>
        <pt x="254" y="219" on="0"/>
        <pt x="297" y="187" on="0"/>
        <pt x="354" y="187" on="1"/>
        <pt x="382" y="187" on="0"/>
        <pt x="456" y="195" on="0"/>
        <pt x="505" y="202" on="1"/>
        <pt x="475" y="18" on="1"/>
        <pt x="416" y="3" on="0"/>
        <pt x="315" y="-11" on="0"/>
        <pt x="272" y="-11" on="1"/>
        <pt x="139" y="-11" on="0"/>
        <pt x="18" y="111" on="0"/>
        <pt x="18" y="208" on="1"/>
        <pt x="18" y="280" on="0"/>
        <pt x="69" y="412" on="0"/>
        <pt x="159" y="513" on="0"/>
        <pt x="282" y="573" on="0"/>
      </contour>
    </TTGlyph>
    <TTGlyph name="Ccaron" xMin="20" yMin="-11" xMax="633" yMax="906">
      <contour>
        <pt x="414" y="655" on="1"/>
        <pt x="360" y="655" on="1"/>
        <pt x="195" y="808" on="1"/>
        <pt x="318" y="906" on="1"/>
        <pt x="414" y="817" on="1"/>
        <pt x="554" y="903" on="1"/>
        <pt x="633" y="791" on="1"/>
      </contour>
      <contour>
        <pt x="375" y="632" on="1"/>
        <pt x="471" y="632" on="0"/>
        <pt x="575" y="525" on="0"/>
        <pt x="575" y="401" on="1"/>
        <pt x="575" y="388" on="0"/>
        <pt x="574" y="360" on="0"/>
        <pt x="573" y="345" on="1"/>
        <pt x="357" y="343" on="1"/>
        <pt x="358" y="351" on="0"/>
        <pt x="359" y="366" on="0"/>
        <pt x="359" y="373" on="1"/>
        <pt x="359" y="397" on="0"/>
        <pt x="347" y="419" on="0"/>
        <pt x="337" y="419" on="1"/>
        <pt x="324" y="419" on="0"/>
        <pt x="299" y="391" on="0"/>
        <pt x="280" y="349" on="0"/>
        <pt x="268" y="299" on="0"/>
        <pt x="268" y="277" on="1"/>
        <pt x="268" y="242" on="0"/>
        <pt x="312" y="207" on="0"/>
        <pt x="372" y="207" on="1"/>
        <pt x="400" y="207" on="0"/>
        <pt x="478" y="215" on="0"/>
        <pt x="528" y="223" on="1"/>
        <pt x="495" y="20" on="1"/>
        <pt x="434" y="4" on="0"/>
        <pt x="329" y="-11" on="0"/>
        <pt x="285" y="-11" on="1"/>
        <pt x="146" y="-11" on="0"/>
        <pt x="20" y="121" on="0"/>
        <pt x="20" y="227" on="1"/>
        <pt x="20" y="306" on="0"/>
        <pt x="75" y="453" on="0"/>
        <pt x="170" y="565" on="0"/>
        <pt x="300" y="632" on="0"/>
      </contour>
    </TTGlyph>
    <TTGlyph name="Ccaron.sc" xMin="18" yMin="-11" xMax="612" yMax="847">
      <contour>
        <pt x="393" y="596" on="1"/>
        <pt x="339" y="596" on="1"/>
        <pt x="174" y="749" on="1"/>
        <pt x="297" y="847" on="1"/>
        <pt x="393" y="758" on="1"/>
        <pt x="533" y="844" on="1"/>
        <pt x="612" y="732" on="1"/>
      </contour>
      <contour>
        <pt x="354" y="573" on="1"/>
        <pt x="445" y="573" on="0"/>
        <pt x="547" y="478" on="0"/>
        <pt x="547" y="368" on="1"/>
        <pt x="547" y="355" on="0"/>
        <pt x="545" y="327" on="0"/>
        <pt x="544" y="312" on="1"/>
        <pt x="340" y="310" on="1"/>
        <pt x="341" y="317" on="0"/>
        <pt x="341" y="329" on="0"/>
        <pt x="341" y="335" on="1"/>
        <pt x="341" y="358" on="0"/>
        <pt x="330" y="379" on="0"/>
        <pt x="320" y="379" on="1"/>
        <pt x="308" y="379" on="0"/>
        <pt x="284" y="354" on="0"/>
        <pt x="265" y="316" on="0"/>
        <pt x="254" y="271" on="0"/>
        <pt x="254" y="251" on="1"/>
        <pt x="254" y="219" on="0"/>
        <pt x="297" y="187" on="0"/>
        <pt x="354" y="187" on="1"/>
        <pt x="382" y="187" on="0"/>
        <pt x="456" y="195" on="0"/>
        <pt x="505" y="202" on="1"/>
        <pt x="475" y="18" on="1"/>
        <pt x="416" y="3" on="0"/>
        <pt x="315" y="-11" on="0"/>
        <pt x="272" y="-11" on="1"/>
        <pt x="139" y="-11" on="0"/>
        <pt x="18" y="111" on="0"/>
        <pt x="18" y="208" on="1"/>
        <pt x="18" y="280" on="0"/>
        <pt x="69" y="412" on="0"/>
        <pt x="159" y="513" on="0"/>
        <pt x="282" y="573" on="0"/>
      </contour>
    </TTGlyph>
    <TTGlyph name="Ccedilla" xMin="20" yMin="-231" xMax="575" yMax="632">
      <contour>
        <pt x="390" y="-227" on="1"/>
        <pt x="232" y="-231" on="1"/>
        <pt x="233" y="-218" on="0"/>
        <pt x="234" y="-194" on="0"/>
        <pt x="234" y="-184" on="1"/>
        <pt x="234" y="-147" on="0"/>
        <pt x="222" y="-119" on="0"/>
        <pt x="212" y="-119" on="1"/>
        <pt x="200" y="-119" on="0"/>
        <pt x="166" y="-165" on="0"/>
        <pt x="145" y="-216" on="1"/>
        <pt x="52" y="-180" on="1"/>
        <pt x="77" y="-112" on="0"/>
        <pt x="138" y="-19" on="0"/>
        <pt x="172" y="4" on="1"/>
        <pt x="94" y="28" on="0"/>
        <pt x="20" y="146" on="0"/>
        <pt x="20" y="227" on="1"/>
        <pt x="20" y="306" on="0"/>
        <pt x="75" y="453" on="0"/>
        <pt x="170" y="565" on="0"/>
        <pt x="300" y="632" on="0"/>
        <pt x="375" y="632" on="1"/>
        <pt x="471" y="632" on="0"/>
        <pt x="575" y="525" on="0"/>
        <pt x="575" y="401" on="1"/>
        <pt x="575" y="388" on="0"/>
        <pt x="574" y="360" on="0"/>
        <pt x="573" y="345" on="1"/>
        <pt x="357" y="343" on="1"/>
        <pt x="358" y="351" on="0"/>
        <pt x="359" y="366" on="0"/>
        <pt x="359" y="373" on="1"/>
        <pt x="359" y="397" on="0"/>
        <pt x="347" y="419" on="0"/>
        <pt x="337" y="419" on="1"/>
        <pt x="324" y="419" on="0"/>
        <pt x="299" y="391" on="0"/>
        <pt x="280" y="349" on="0"/>
        <pt x="268" y="299" on="0"/>
        <pt x="268" y="277" on="1"/>
        <pt x="268" y="242" on="0"/>
        <pt x="312" y="207" on="0"/>
        <pt x="372" y="207" on="1"/>
        <pt x="400" y="207" on="0"/>
        <pt x="478" y="215" on="0"/>
        <pt x="528" y="223" on="1"/>
        <pt x="495" y="20" on="1"/>
        <pt x="449" y="8" on="0"/>
        <pt x="367" y="-6" on="0"/>
        <pt x="330" y="-9" on="1"/>
        <pt x="358" y="-36" on="0"/>
        <pt x="391" y="-129" on="0"/>
        <pt x="391" y="-195" on="1"/>
        <pt x="391" y="-203" on="0"/>
        <pt x="391" y="-219" on="0"/>
      </contour>
    </TTGlyph>
    <TTGlyph name="Ccedilla.sc" xMin="18" yMin="-220" xMax="547" yMax="573">
      <contour>
        <pt x="376" y="-216" on="1"/>
        <pt x="218" y="-220" on="1"/>
        <pt x="219" y="-207" on="0"/>
        <pt x="220" y="-183" on="0"/>
        <pt x="220" y="-173" on="1"/>
        <pt x="220" y="-136" on="0"/>
        <pt x="208" y="-108" on="0"/>
        <pt x="198" y="-108" on="1"/>
        <pt x="186" y="-108" on="0"/>
        <pt x="152" y="-154" on="0"/>
        <pt x="131" y="-205" on="1"/>
        <pt x="38" y="-169" on="1"/>
        <pt x="62" y="-106" on="0"/>
        <pt x="117" y="-17" on="0"/>
        <pt x="149" y="8" on="1"/>
        <pt x="81" y="33" on="0"/>
        <pt x="18" y="137" on="0"/>
        <pt x="18" y="208" on="1"/>
        <pt x="18" y="280" on="0"/>
        <pt x="69" y="412" on="0"/>
        <pt x="159" y="513" on="0"/>
        <pt x="282" y="573" on="0"/>
        <pt x="354" y="573" on="1"/>
        <pt x="445" y="573" on="0"/>
        <pt x="547" y="478" on="0"/>
        <pt x="547" y="368" on="1"/>
        <pt x="547" y="355" on="0"/>
        <pt x="545" y="327" on="0"/>
        <pt x="544" y="312" on="1"/>
        <pt x="340" y="310" on="1"/>
        <pt x="341" y="317" on="0"/>
        <pt x="341" y="329" on="0"/>
        <pt x="341" y="335" on="1"/>
        <pt x="341" y="358" on="0"/>
        <pt x="330" y="379" on="0"/>
        <pt x="320" y="379" on="1"/>
        <pt x="308" y="379" on="0"/>
        <pt x="284" y="354" on="0"/>
        <pt x="265" y="316" on="0"/>
        <pt x="254" y="271" on="0"/>
        <pt x="254" y="251" on="1"/>
        <pt x="254" y="219" on="0"/>
        <pt x="297" y="187" on="0"/>
        <pt x="354" y="187" on="1"/>
        <pt x="382" y="187" on="0"/>
        <pt x="456" y="195" on="0"/>
        <pt x="505" y="202" on="1"/>
        <pt x="475" y="18" on="1"/>
        <pt x="434" y="8" on="0"/>
        <pt x="359" y="-6" on="0"/>
        <pt x="326" y="-9" on="1"/>
        <pt x="349" y="-36" on="0"/>
        <pt x="377" y="-124" on="0"/>
        <pt x="377" y="-184" on="1"/>
        <pt x="377" y="-192" on="0"/>
        <pt x="377" y="-208" on="0"/>
      </contour>
    </TTGlyph>
    <TTGlyph name="Cdotaccent" xMin="20" yMin="-11" xMax="575" yMax="851">
      <contour>
        <pt x="496" y="674" on="1"/>
        <pt x="270" y="674" on="1"/>
        <pt x="309" y="846" on="1"/>
        <pt x="543" y="851" on="1"/>
      </contour>
      <contour>
        <pt x="375" y="632" on="1"/>
        <pt x="471" y="632" on="0"/>
        <pt x="575" y="525" on="0"/>
        <pt x="575" y="401" on="1"/>
        <pt x="575" y="388" on="0"/>
        <pt x="574" y="360" on="0"/>
        <pt x="573" y="345" on="1"/>
        <pt x="357" y="343" on="1"/>
        <pt x="358" y="351" on="0"/>
        <pt x="359" y="366" on="0"/>
        <pt x="359" y="373" on="1"/>
        <pt x="359" y="397" on="0"/>
        <pt x="347" y="419" on="0"/>
        <pt x="337" y="419" on="1"/>
        <pt x="324" y="419" on="0"/>
        <pt x="299" y="391" on="0"/>
        <pt x="280" y="349" on="0"/>
        <pt x="268" y="299" on="0"/>
        <pt x="268" y="277" on="1"/>
        <pt x="268" y="242" on="0"/>
        <pt x="312" y="207" on="0"/>
        <pt x="372" y="207" on="1"/>
        <pt x="400" y="207" on="0"/>
        <pt x="478" y="215" on="0"/>
        <pt x="528" y="223" on="1"/>
        <pt x="495" y="20" on="1"/>
        <pt x="434" y="4" on="0"/>
        <pt x="329" y="-11" on="0"/>
        <pt x="285" y="-11" on="1"/>
        <pt x="146" y="-11" on="0"/>
        <pt x="20" y="121" on="0"/>
        <pt x="20" y="227" on="1"/>
        <pt x="20" y="306" on="0"/>
        <pt x="75" y="453" on="0"/>
        <pt x="170" y="565" on="0"/>
        <pt x="300" y="632" on="0"/>
      </contour>
    </TTGlyph>
    <TTGlyph name="Cdotaccent.sc" xMin="18" yMin="-11" xMax="547" yMax="792">
      <contour>
        <pt x="474" y="615" on="1"/>
        <pt x="248" y="615" on="1"/>
        <pt x="287" y="787" on="1"/>
        <pt x="521" y="792" on="1"/>
      </contour>
      <contour>
        <pt x="354" y="573" on="1"/>
        <pt x="445" y="573" on="0"/>
        <pt x="547" y="478" on="0"/>
        <pt x="547" y="368" on="1"/>
        <pt x="547" y="355" on="0"/>
        <pt x="545" y="327" on="0"/>
        <pt x="544" y="312" on="1"/>
        <pt x="340" y="310" on="1"/>
        <pt x="341" y="317" on="0"/>
        <pt x="341" y="329" on="0"/>
        <pt x="341" y="335" on="1"/>
        <pt x="341" y="358" on="0"/>
        <pt x="330" y="379" on="0"/>
        <pt x="320" y="379" on="1"/>
        <pt x="308" y="379" on="0"/>
        <pt x="284" y="354" on="0"/>
        <pt x="265" y="316" on="0"/>
        <pt x="254" y="271" on="0"/>
        <pt x="254" y="251" on="1"/>
        <pt x="254" y="219" on="0"/>
        <pt x="297" y="187" on="0"/>
        <pt x="354" y="187" on="1"/>
        <pt x="382" y="187" on="0"/>
        <pt x="456" y="195" on="0"/>
        <pt x="505" y="202" on="1"/>
        <pt x="475" y="18" on="1"/>
        <pt x="416" y="3" on="0"/>
        <pt x="315" y="-11" on="0"/>
        <pt x="272" y="-11" on="1"/>
        <pt x="139" y="-11" on="0"/>
        <pt x="18" y="111" on="0"/>
        <pt x="18" y="208" on="1"/>
        <pt x="18" y="280" on="0"/>
        <pt x="69" y="412" on="0"/>
        <pt x="159" y="513" on="0"/>
        <pt x="282" y="573" on="0"/>
      </contour>
    </TTGlyph>
    <TTGlyph name="D" xMin="-8" yMin="-9" xMax="613" yMax="626">
      <contour>
        <pt x="613" y="372" on="1"/>
        <pt x="613" y="304" on="0"/>
        <pt x="570" y="168" on="0"/>
        <pt x="466" y="59" on="0"/>
        <pt x="289" y="-9" on="0"/>
        <pt x="157" y="-9" on="1"/>
        <pt x="120" y="-9" on="0"/>
        <pt x="37" y="-4" on="0"/>
        <pt x="-8" y="3" on="1"/>
        <pt x="110" y="613" on="1"/>
        <pt x="159" y="620" on="0"/>
        <pt x="247" y="626" on="0"/>
        <pt x="285" y="626" on="1"/>
        <pt x="459" y="626" on="0"/>
        <pt x="613" y="494" on="0"/>
      </contour>
      <contour>
        <pt x="276" y="180" on="1"/>
        <pt x="299" y="180" on="0"/>
        <pt x="336" y="209" on="0"/>
        <pt x="361" y="257" on="0"/>
        <pt x="374" y="319" on="0"/>
        <pt x="374" y="351" on="1"/>
        <pt x="374" y="394" on="0"/>
        <pt x="345" y="434" on="0"/>
        <pt x="314" y="438" on="1"/>
        <pt x="264" y="181" on="1"/>
        <pt x="267" y="180" on="0"/>
        <pt x="273" y="180" on="0"/>
      </contour>
    </TTGlyph>
    <TTGlyph name="D.sc" xMin="-6" yMin="-9" xMax="585" yMax="565">
      <contour>
        <pt x="585" y="323" on="1"/>
        <pt x="585" y="263" on="0"/>
        <pt x="546" y="144" on="0"/>
        <pt x="450" y="50" on="0"/>
        <pt x="284" y="-9" on="0"/>
        <pt x="158" y="-9" on="1"/>
        <pt x="121" y="-9" on="0"/>
        <pt x="39" y="-3" on="0"/>
        <pt x="-6" y="3" on="1"/>
        <pt x="100" y="554" on="1"/>
        <pt x="143" y="560" on="0"/>
        <pt x="220" y="565" on="0"/>
        <pt x="255" y="565" on="1"/>
        <pt x="429" y="565" on="0"/>
        <pt x="585" y="434" on="0"/>
      </contour>
      <contour>
        <pt x="264" y="163" on="1"/>
        <pt x="286" y="163" on="0"/>
        <pt x="321" y="189" on="0"/>
        <pt x="344" y="231" on="0"/>
        <pt x="357" y="286" on="0"/>
        <pt x="357" y="315" on="1"/>
        <pt x="357" y="355" on="0"/>
        <pt x="328" y="392" on="0"/>
        <pt x="297" y="396" on="1"/>
        <pt x="252" y="164" on="1"/>
        <pt x="255" y="163" on="0"/>
        <pt x="261" y="163" on="0"/>
      </contour>
    </TTGlyph>
    <TTGlyph name="Dcaron" xMin="-8" yMin="-9" xMax="613" yMax="905">
      <contour>
        <pt x="394" y="654" on="1"/>
        <pt x="340" y="654" on="1"/>
        <pt x="175" y="807" on="1"/>
        <pt x="298" y="905" on="1"/>
        <pt x="394" y="816" on="1"/>
        <pt x="534" y="902" on="1"/>
        <pt x="613" y="790" on="1"/>
      </contour>
      <contour>
        <pt x="613" y="372" on="1"/>
        <pt x="613" y="304" on="0"/>
        <pt x="570" y="168" on="0"/>
        <pt x="466" y="59" on="0"/>
        <pt x="289" y="-9" on="0"/>
        <pt x="157" y="-9" on="1"/>
        <pt x="120" y="-9" on="0"/>
        <pt x="37" y="-4" on="0"/>
        <pt x="-8" y="3" on="1"/>
        <pt x="110" y="613" on="1"/>
        <pt x="159" y="620" on="0"/>
        <pt x="247" y="626" on="0"/>
        <pt x="285" y="626" on="1"/>
        <pt x="459" y="626" on="0"/>
        <pt x="613" y="494" on="0"/>
      </contour>
      <contour>
        <pt x="276" y="180" on="1"/>
        <pt x="299" y="180" on="0"/>
        <pt x="336" y="209" on="0"/>
        <pt x="361" y="257" on="0"/>
        <pt x="374" y="319" on="0"/>
        <pt x="374" y="351" on="1"/>
        <pt x="374" y="394" on="0"/>
        <pt x="345" y="434" on="0"/>
        <pt x="314" y="438" on="1"/>
        <pt x="264" y="181" on="1"/>
        <pt x="267" y="180" on="0"/>
        <pt x="273" y="180" on="0"/>
      </contour>
    </TTGlyph>
    <TTGlyph name="Dcaron.sc" xMin="-6" yMin="-9" xMax="592" yMax="844">
      <contour>
        <pt x="373" y="593" on="1"/>
        <pt x="319" y="593" on="1"/>
        <pt x="154" y="746" on="1"/>
        <pt x="277" y="844" on="1"/>
        <pt x="373" y="755" on="1"/>
        <pt x="513" y="841" on="1"/>
        <pt x="592" y="729" on="1"/>
      </contour>
      <contour>
        <pt x="585" y="323" on="1"/>
        <pt x="585" y="263" on="0"/>
        <pt x="546" y="144" on="0"/>
        <pt x="450" y="50" on="0"/>
        <pt x="284" y="-9" on="0"/>
        <pt x="158" y="-9" on="1"/>
        <pt x="121" y="-9" on="0"/>
        <pt x="39" y="-3" on="0"/>
        <pt x="-6" y="3" on="1"/>
        <pt x="100" y="554" on="1"/>
        <pt x="143" y="560" on="0"/>
        <pt x="220" y="565" on="0"/>
        <pt x="255" y="565" on="1"/>
        <pt x="429" y="565" on="0"/>
        <pt x="585" y="434" on="0"/>
      </contour>
      <contour>
        <pt x="264" y="163" on="1"/>
        <pt x="286" y="163" on="0"/>
        <pt x="321" y="189" on="0"/>
        <pt x="344" y="231" on="0"/>
        <pt x="357" y="286" on="0"/>
        <pt x="357" y="315" on="1"/>
        <pt x="357" y="355" on="0"/>
        <pt x="328" y="392" on="0"/>
        <pt x="297" y="396" on="1"/>
        <pt x="252" y="164" on="1"/>
        <pt x="255" y="163" on="0"/>
        <pt x="261" y="163" on="0"/>
      </contour>
    </TTGlyph>
    <TTGlyph name="Dcroat" xMin="-10" yMin="-9" xMax="613" yMax="626">
      <contour>
        <pt x="157" y="-9" on="1"/>
        <pt x="120" y="-9" on="0"/>
        <pt x="37" y="-4" on="0"/>
        <pt x="-8" y="3" on="1"/>
        <pt x="40" y="252" on="1"/>
        <pt x="-10" y="252" on="1"/>
        <pt x="14" y="373" on="1"/>
        <pt x="64" y="373" on="1"/>
        <pt x="110" y="613" on="1"/>
        <pt x="159" y="620" on="0"/>
        <pt x="247" y="626" on="0"/>
        <pt x="285" y="626" on="1"/>
        <pt x="459" y="626" on="0"/>
        <pt x="613" y="494" on="0"/>
        <pt x="613" y="372" on="1"/>
        <pt x="613" y="304" on="0"/>
        <pt x="570" y="168" on="0"/>
        <pt x="466" y="59" on="0"/>
        <pt x="289" y="-9" on="0"/>
      </contour>
      <contour>
        <pt x="278" y="173" on="1"/>
        <pt x="302" y="173" on="0"/>
        <pt x="341" y="203" on="0"/>
        <pt x="367" y="253" on="0"/>
        <pt x="381" y="317" on="0"/>
        <pt x="381" y="351" on="1"/>
        <pt x="381" y="400" on="0"/>
        <pt x="345" y="443" on="0"/>
        <pt x="308" y="445" on="1"/>
        <pt x="294" y="373" on="1"/>
        <pt x="349" y="373" on="1"/>
        <pt x="325" y="252" on="1"/>
        <pt x="271" y="252" on="1"/>
        <pt x="256" y="176" on="1"/>
        <pt x="262" y="175" on="0"/>
        <pt x="273" y="173" on="0"/>
      </contour>
    </TTGlyph>
    <TTGlyph name="Dcroat.sc" xMin="-11" yMin="-9" xMax="585" yMax="565">
      <contour>
        <pt x="158" y="-9" on="1"/>
        <pt x="121" y="-9" on="0"/>
        <pt x="39" y="-3" on="0"/>
        <pt x="-6" y="3" on="1"/>
        <pt x="37" y="227" on="1"/>
        <pt x="-11" y="227" on="1"/>
        <pt x="11" y="338" on="1"/>
        <pt x="58" y="338" on="1"/>
        <pt x="100" y="554" on="1"/>
        <pt x="143" y="560" on="0"/>
        <pt x="220" y="565" on="0"/>
        <pt x="255" y="565" on="1"/>
        <pt x="429" y="565" on="0"/>
        <pt x="585" y="434" on="0"/>
        <pt x="585" y="323" on="1"/>
        <pt x="585" y="263" on="0"/>
        <pt x="546" y="144" on="0"/>
        <pt x="450" y="50" on="0"/>
        <pt x="284" y="-9" on="0"/>
      </contour>
      <contour>
        <pt x="266" y="156" on="1"/>
        <pt x="289" y="156" on="0"/>
        <pt x="325" y="183" on="0"/>
        <pt x="350" y="228" on="0"/>
        <pt x="363" y="285" on="0"/>
        <pt x="363" y="315" on="1"/>
        <pt x="363" y="359" on="0"/>
        <pt x="329" y="400" on="0"/>
        <pt x="292" y="403" on="1"/>
        <pt x="280" y="338" on="1"/>
        <pt x="329" y="338" on="1"/>
        <pt x="307" y="227" on="1"/>
        <pt x="258" y="227" on="1"/>
        <pt x="245" y="159" on="1"/>
        <pt x="251" y="158" on="0"/>
        <pt x="262" y="156" on="0"/>
      </contour>
    </TTGlyph>
    <TTGlyph name="E" xMin="-8" yMin="0" xMax="562" yMax="620">
      <contour>
        <pt x="486" y="182" on="1"/>
        <pt x="440" y="0" on="1"/>
        <pt x="-8" y="0" on="1"/>
        <pt x="112" y="620" on="1"/>
        <pt x="562" y="620" on="1"/>
        <pt x="527" y="438" on="1"/>
        <pt x="321" y="438" on="1"/>
        <pt x="309" y="379" on="1"/>
        <pt x="464" y="379" on="1"/>
        <pt x="438" y="242" on="1"/>
        <pt x="283" y="242" on="1"/>
        <pt x="271" y="182" on="1"/>
      </contour>
    </TTGlyph>
    <TTGlyph name="E.sc" xMin="-6" yMin="0" xMax="533" yMax="561">
      <contour>
        <pt x="465" y="165" on="1"/>
        <pt x="423" y="0" on="1"/>
        <pt x="-6" y="0" on="1"/>
        <pt x="102" y="561" on="1"/>
        <pt x="533" y="561" on="1"/>
        <pt x="502" y="396" on="1"/>
        <pt x="304" y="396" on="1"/>
        <pt x="293" y="343" on="1"/>
        <pt x="442" y="343" on="1"/>
        <pt x="418" y="219" on="1"/>
        <pt x="269" y="219" on="1"/>
        <pt x="258" y="165" on="1"/>
      </contour>
    </TTGlyph>
    <TTGlyph name="Eacute" xMin="-8" yMin="0" xMax="574" yMax="916">
      <contour>
        <pt x="200" y="737" on="1"/>
        <pt x="275" y="778" on="0"/>
        <pt x="410" y="867" on="0"/>
        <pt x="473" y="916" on="1"/>
        <pt x="574" y="748" on="1"/>
        <pt x="493" y="702" on="0"/>
        <pt x="317" y="658" on="0"/>
        <pt x="226" y="647" on="1"/>
      </contour>
      <contour>
        <pt x="486" y="182" on="1"/>
        <pt x="440" y="0" on="1"/>
        <pt x="-8" y="0" on="1"/>
        <pt x="112" y="620" on="1"/>
        <pt x="562" y="620" on="1"/>
        <pt x="527" y="438" on="1"/>
        <pt x="321" y="438" on="1"/>
        <pt x="309" y="379" on="1"/>
        <pt x="464" y="379" on="1"/>
        <pt x="438" y="242" on="1"/>
        <pt x="283" y="242" on="1"/>
        <pt x="271" y="182" on="1"/>
      </contour>
    </TTGlyph>
    <TTGlyph name="Eacute.sc" xMin="-6" yMin="0" xMax="553" yMax="857">
      <contour>
        <pt x="179" y="678" on="1"/>
        <pt x="254" y="719" on="0"/>
        <pt x="389" y="808" on="0"/>
        <pt x="452" y="857" on="1"/>
        <pt x="553" y="689" on="1"/>
        <pt x="472" y="643" on="0"/>
        <pt x="296" y="599" on="0"/>
        <pt x="205" y="588" on="1"/>
      </contour>
      <contour>
        <pt x="465" y="165" on="1"/>
        <pt x="423" y="0" on="1"/>
        <pt x="-6" y="0" on="1"/>
        <pt x="102" y="561" on="1"/>
        <pt x="533" y="561" on="1"/>
        <pt x="502" y="396" on="1"/>
        <pt x="304" y="396" on="1"/>
        <pt x="293" y="343" on="1"/>
        <pt x="442" y="343" on="1"/>
        <pt x="418" y="219" on="1"/>
        <pt x="269" y="219" on="1"/>
        <pt x="258" y="165" on="1"/>
      </contour>
    </TTGlyph>
    <TTGlyph name="Ebreve" xMin="-8" yMin="0" xMax="599" yMax="887">
      <contour>
        <pt x="498" y="887" on="1"/>
        <pt x="599" y="814" on="1"/>
        <pt x="575" y="782" on="0"/>
        <pt x="520" y="722" on="0"/>
        <pt x="458" y="678" on="0"/>
        <pt x="388" y="652" on="0"/>
        <pt x="350" y="652" on="1"/>
        <pt x="279" y="652" on="0"/>
        <pt x="181" y="746" on="0"/>
        <pt x="157" y="816" on="1"/>
        <pt x="297" y="887" on="1"/>
        <pt x="313" y="857" on="0"/>
        <pt x="358" y="821" on="0"/>
        <pt x="384" y="821" on="1"/>
        <pt x="409" y="821" on="0"/>
        <pt x="468" y="856" on="0"/>
      </contour>
      <contour>
        <pt x="486" y="182" on="1"/>
        <pt x="440" y="0" on="1"/>
        <pt x="-8" y="0" on="1"/>
        <pt x="112" y="620" on="1"/>
        <pt x="562" y="620" on="1"/>
        <pt x="527" y="438" on="1"/>
        <pt x="321" y="438" on="1"/>
        <pt x="309" y="379" on="1"/>
        <pt x="464" y="379" on="1"/>
        <pt x="438" y="242" on="1"/>
        <pt x="283" y="242" on="1"/>
        <pt x="271" y="182" on="1"/>
      </contour>
    </TTGlyph>
    <TTGlyph name="Ebreve.sc" xMin="-6" yMin="0" xMax="578" yMax="828">
      <contour>
        <pt x="477" y="828" on="1"/>
        <pt x="578" y="755" on="1"/>
        <pt x="554" y="723" on="0"/>
        <pt x="499" y="663" on="0"/>
        <pt x="437" y="619" on="0"/>
        <pt x="367" y="593" on="0"/>
        <pt x="329" y="593" on="1"/>
        <pt x="258" y="593" on="0"/>
        <pt x="160" y="687" on="0"/>
        <pt x="136" y="757" on="1"/>
        <pt x="276" y="828" on="1"/>
        <pt x="292" y="798" on="0"/>
        <pt x="337" y="762" on="0"/>
        <pt x="363" y="762" on="1"/>
        <pt x="388" y="762" on="0"/>
        <pt x="447" y="797" on="0"/>
      </contour>
      <contour>
        <pt x="465" y="165" on="1"/>
        <pt x="423" y="0" on="1"/>
        <pt x="-6" y="0" on="1"/>
        <pt x="102" y="561" on="1"/>
        <pt x="533" y="561" on="1"/>
        <pt x="502" y="396" on="1"/>
        <pt x="304" y="396" on="1"/>
        <pt x="293" y="343" on="1"/>
        <pt x="442" y="343" on="1"/>
        <pt x="418" y="219" on="1"/>
        <pt x="269" y="219" on="1"/>
        <pt x="258" y="165" on="1"/>
      </contour>
    </TTGlyph>
    <TTGlyph name="Ecaron" xMin="-8" yMin="0" xMax="591" yMax="899">
      <contour>
        <pt x="372" y="648" on="1"/>
        <pt x="318" y="648" on="1"/>
        <pt x="153" y="801" on="1"/>
        <pt x="276" y="899" on="1"/>
        <pt x="372" y="810" on="1"/>
        <pt x="512" y="896" on="1"/>
        <pt x="591" y="784" on="1"/>
      </contour>
      <contour>
        <pt x="486" y="182" on="1"/>
        <pt x="440" y="0" on="1"/>
        <pt x="-8" y="0" on="1"/>
        <pt x="112" y="620" on="1"/>
        <pt x="562" y="620" on="1"/>
        <pt x="527" y="438" on="1"/>
        <pt x="321" y="438" on="1"/>
        <pt x="309" y="379" on="1"/>
        <pt x="464" y="379" on="1"/>
        <pt x="438" y="242" on="1"/>
        <pt x="283" y="242" on="1"/>
        <pt x="271" y="182" on="1"/>
      </contour>
    </TTGlyph>
    <TTGlyph name="Ecaron.sc" xMin="-6" yMin="0" xMax="571" yMax="840">
      <contour>
        <pt x="352" y="589" on="1"/>
        <pt x="298" y="589" on="1"/>
        <pt x="133" y="742" on="1"/>
        <pt x="256" y="840" on="1"/>
        <pt x="352" y="751" on="1"/>
        <pt x="492" y="837" on="1"/>
        <pt x="571" y="725" on="1"/>
      </contour>
      <contour>
        <pt x="465" y="165" on="1"/>
        <pt x="423" y="0" on="1"/>
        <pt x="-6" y="0" on="1"/>
        <pt x="102" y="561" on="1"/>
        <pt x="533" y="561" on="1"/>
        <pt x="502" y="396" on="1"/>
        <pt x="304" y="396" on="1"/>
        <pt x="293" y="343" on="1"/>
        <pt x="442" y="343" on="1"/>
        <pt x="418" y="219" on="1"/>
        <pt x="269" y="219" on="1"/>
        <pt x="258" y="165" on="1"/>
      </contour>
    </TTGlyph>
    <TTGlyph name="Ecircumflex" xMin="-8" yMin="0" xMax="583" yMax="894">
      <contour>
        <pt x="460" y="643" on="1"/>
        <pt x="364" y="732" on="1"/>
        <pt x="224" y="646" on="1"/>
        <pt x="145" y="758" on="1"/>
        <pt x="364" y="894" on="1"/>
        <pt x="418" y="894" on="1"/>
        <pt x="583" y="741" on="1"/>
      </contour>
      <contour>
        <pt x="486" y="182" on="1"/>
        <pt x="440" y="0" on="1"/>
        <pt x="-8" y="0" on="1"/>
        <pt x="112" y="620" on="1"/>
        <pt x="562" y="620" on="1"/>
        <pt x="527" y="438" on="1"/>
        <pt x="321" y="438" on="1"/>
        <pt x="309" y="379" on="1"/>
        <pt x="464" y="379" on="1"/>
        <pt x="438" y="242" on="1"/>
        <pt x="283" y="242" on="1"/>
        <pt x="271" y="182" on="1"/>
      </contour>
    </TTGlyph>
    <TTGlyph name="Ecircumflex.sc" xMin="-6" yMin="0" xMax="562" yMax="835">
      <contour>
        <pt x="439" y="584" on="1"/>
        <pt x="343" y="673" on="1"/>
        <pt x="203" y="587" on="1"/>
        <pt x="124" y="699" on="1"/>
        <pt x="343" y="835" on="1"/>
        <pt x="397" y="835" on="1"/>
        <pt x="562" y="682" on="1"/>
      </contour>
      <contour>
        <pt x="465" y="165" on="1"/>
        <pt x="423" y="0" on="1"/>
        <pt x="-6" y="0" on="1"/>
        <pt x="102" y="561" on="1"/>
        <pt x="533" y="561" on="1"/>
        <pt x="502" y="396" on="1"/>
        <pt x="304" y="396" on="1"/>
        <pt x="293" y="343" on="1"/>
        <pt x="442" y="343" on="1"/>
        <pt x="418" y="219" on="1"/>
        <pt x="269" y="219" on="1"/>
        <pt x="258" y="165" on="1"/>
      </contour>
    </TTGlyph>
    <TTGlyph name="Edieresis" xMin="-8" yMin="0" xMax="617" yMax="844">
      <contour>
        <pt x="570" y="667" on="1"/>
        <pt x="368" y="667" on="1"/>
        <pt x="407" y="842" on="1"/>
        <pt x="617" y="844" on="1"/>
      </contour>
      <contour>
        <pt x="318" y="667" on="1"/>
        <pt x="116" y="667" on="1"/>
        <pt x="155" y="839" on="1"/>
        <pt x="365" y="842" on="1"/>
      </contour>
      <contour>
        <pt x="486" y="182" on="1"/>
        <pt x="440" y="0" on="1"/>
        <pt x="-8" y="0" on="1"/>
        <pt x="112" y="620" on="1"/>
        <pt x="562" y="620" on="1"/>
        <pt x="527" y="438" on="1"/>
        <pt x="321" y="438" on="1"/>
        <pt x="309" y="379" on="1"/>
        <pt x="464" y="379" on="1"/>
        <pt x="438" y="242" on="1"/>
        <pt x="283" y="242" on="1"/>
        <pt x="271" y="182" on="1"/>
      </contour>
    </TTGlyph>
    <TTGlyph name="Edieresis.sc" xMin="-6" yMin="0" xMax="596" yMax="785">
      <contour>
        <pt x="549" y="608" on="1"/>
        <pt x="347" y="608" on="1"/>
        <pt x="386" y="783" on="1"/>
        <pt x="596" y="785" on="1"/>
      </contour>
      <contour>
        <pt x="297" y="608" on="1"/>
        <pt x="95" y="608" on="1"/>
        <pt x="134" y="780" on="1"/>
        <pt x="344" y="783" on="1"/>
      </contour>
      <contour>
        <pt x="465" y="165" on="1"/>
        <pt x="423" y="0" on="1"/>
        <pt x="-6" y="0" on="1"/>
        <pt x="102" y="561" on="1"/>
        <pt x="533" y="561" on="1"/>
        <pt x="502" y="396" on="1"/>
        <pt x="304" y="396" on="1"/>
        <pt x="293" y="343" on="1"/>
        <pt x="442" y="343" on="1"/>
        <pt x="418" y="219" on="1"/>
        <pt x="269" y="219" on="1"/>
        <pt x="258" y="165" on="1"/>
      </contour>
    </TTGlyph>
    <TTGlyph name="Edotaccent" xMin="-8" yMin="0" xMax="562" yMax="844">
      <contour>
        <pt x="453" y="667" on="1"/>
        <pt x="227" y="667" on="1"/>
        <pt x="266" y="839" on="1"/>
        <pt x="500" y="844" on="1"/>
      </contour>
      <contour>
        <pt x="486" y="182" on="1"/>
        <pt x="440" y="0" on="1"/>
        <pt x="-8" y="0" on="1"/>
        <pt x="112" y="620" on="1"/>
        <pt x="562" y="620" on="1"/>
        <pt x="527" y="438" on="1"/>
        <pt x="321" y="438" on="1"/>
        <pt x="309" y="379" on="1"/>
        <pt x="464" y="379" on="1"/>
        <pt x="438" y="242" on="1"/>
        <pt x="283" y="242" on="1"/>
        <pt x="271" y="182" on="1"/>
      </contour>
    </TTGlyph>
    <TTGlyph name="Edotaccent.sc" xMin="-6" yMin="0" xMax="533" yMax="785">
      <contour>
        <pt x="433" y="608" on="1"/>
        <pt x="207" y="608" on="1"/>
        <pt x="246" y="780" on="1"/>
        <pt x="480" y="785" on="1"/>
      </contour>
      <contour>
        <pt x="465" y="165" on="1"/>
        <pt x="423" y="0" on="1"/>
        <pt x="-6" y="0" on="1"/>
        <pt x="102" y="561" on="1"/>
        <pt x="533" y="561" on="1"/>
        <pt x="502" y="396" on="1"/>
        <pt x="304" y="396" on="1"/>
        <pt x="293" y="343" on="1"/>
        <pt x="442" y="343" on="1"/>
        <pt x="418" y="219" on="1"/>
        <pt x="269" y="219" on="1"/>
        <pt x="258" y="165" on="1"/>
      </contour>
    </TTGlyph>
    <TTGlyph name="Egrave" xMin="-8" yMin="0" xMax="562" yMax="916">
      <contour>
        <pt x="510" y="737" on="1"/>
        <pt x="484" y="647" on="1"/>
        <pt x="393" y="658" on="0"/>
        <pt x="217" y="702" on="0"/>
        <pt x="136" y="748" on="1"/>
        <pt x="237" y="916" on="1"/>
        <pt x="300" y="867" on="0"/>
        <pt x="435" y="778" on="0"/>
      </contour>
      <contour>
        <pt x="486" y="182" on="1"/>
        <pt x="440" y="0" on="1"/>
        <pt x="-8" y="0" on="1"/>
        <pt x="112" y="620" on="1"/>
        <pt x="562" y="620" on="1"/>
        <pt x="527" y="438" on="1"/>
        <pt x="321" y="438" on="1"/>
        <pt x="309" y="379" on="1"/>
        <pt x="464" y="379" on="1"/>
        <pt x="438" y="242" on="1"/>
        <pt x="283" y="242" on="1"/>
        <pt x="271" y="182" on="1"/>
      </contour>
    </TTGlyph>
    <TTGlyph name="Egrave.sc" xMin="-6" yMin="0" xMax="533" yMax="857">
      <contour>
        <pt x="489" y="678" on="1"/>
        <pt x="463" y="588" on="1"/>
        <pt x="372" y="599" on="0"/>
        <pt x="196" y="643" on="0"/>
        <pt x="115" y="689" on="1"/>
        <pt x="216" y="857" on="1"/>
        <pt x="279" y="808" on="0"/>
        <pt x="414" y="719" on="0"/>
      </contour>
      <contour>
        <pt x="465" y="165" on="1"/>
        <pt x="423" y="0" on="1"/>
        <pt x="-6" y="0" on="1"/>
        <pt x="102" y="561" on="1"/>
        <pt x="533" y="561" on="1"/>
        <pt x="502" y="396" on="1"/>
        <pt x="304" y="396" on="1"/>
        <pt x="293" y="343" on="1"/>
        <pt x="442" y="343" on="1"/>
        <pt x="418" y="219" on="1"/>
        <pt x="269" y="219" on="1"/>
        <pt x="258" y="165" on="1"/>
      </contour>
    </TTGlyph>
    <TTGlyph name="Emacron" xMin="-8" yMin="0" xMax="585" yMax="852">
      <contour>
        <pt x="585" y="852" on="1"/>
        <pt x="550" y="670" on="1"/>
        <pt x="150" y="670" on="1"/>
        <pt x="185" y="852" on="1"/>
      </contour>
      <contour>
        <pt x="486" y="182" on="1"/>
        <pt x="440" y="0" on="1"/>
        <pt x="-8" y="0" on="1"/>
        <pt x="112" y="620" on="1"/>
        <pt x="562" y="620" on="1"/>
        <pt x="527" y="438" on="1"/>
        <pt x="321" y="438" on="1"/>
        <pt x="309" y="379" on="1"/>
        <pt x="464" y="379" on="1"/>
        <pt x="438" y="242" on="1"/>
        <pt x="283" y="242" on="1"/>
        <pt x="271" y="182" on="1"/>
      </contour>
    </TTGlyph>
    <TTGlyph name="Emacron.sc" xMin="-6" yMin="0" xMax="564" yMax="793">
      <contour>
        <pt x="564" y="793" on="1"/>
        <pt x="529" y="611" on="1"/>
        <pt x="129" y="611" on="1"/>
        <pt x="164" y="793" on="1"/>
      </contour>
      <contour>
        <pt x="465" y="165" on="1"/>
        <pt x="423" y="0" on="1"/>
        <pt x="-6" y="0" on="1"/>
        <pt x="102" y="561" on="1"/>
        <pt x="533" y="561" on="1"/>
        <pt x="502" y="396" on="1"/>
        <pt x="304" y="396" on="1"/>
        <pt x="293" y="343" on="1"/>
        <pt x="442" y="343" on="1"/>
        <pt x="418" y="219" on="1"/>
        <pt x="269" y="219" on="1"/>
        <pt x="258" y="165" on="1"/>
      </contour>
    </TTGlyph>
    <TTGlyph name="Eogonek" xMin="-8" yMin="-242" xMax="562" yMax="620">
      <contour>
        <pt x="380" y="-211" on="1"/>
        <pt x="334" y="-227" on="0"/>
        <pt x="259" y="-242" on="0"/>
        <pt x="228" y="-242" on="1"/>
        <pt x="164" y="-242" on="0"/>
        <pt x="102" y="-183" on="0"/>
        <pt x="102" y="-137" on="1"/>
        <pt x="102" y="-102" on="0"/>
        <pt x="146" y="-31" on="0"/>
        <pt x="202" y="0" on="1"/>
        <pt x="-8" y="0" on="1"/>
        <pt x="112" y="620" on="1"/>
        <pt x="562" y="620" on="1"/>
        <pt x="527" y="438" on="1"/>
        <pt x="321" y="438" on="1"/>
        <pt x="309" y="379" on="1"/>
        <pt x="464" y="379" on="1"/>
        <pt x="438" y="242" on="1"/>
        <pt x="283" y="242" on="1"/>
        <pt x="271" y="182" on="1"/>
        <pt x="486" y="182" on="1"/>
        <pt x="440" y="0" on="1"/>
        <pt x="344" y="-19" on="0"/>
        <pt x="282" y="-60" on="0"/>
        <pt x="282" y="-73" on="1"/>
        <pt x="282" y="-83" on="0"/>
        <pt x="308" y="-94" on="0"/>
        <pt x="336" y="-94" on="1"/>
        <pt x="345" y="-94" on="0"/>
        <pt x="366" y="-93" on="0"/>
        <pt x="379" y="-92" on="1"/>
      </contour>
    </TTGlyph>
    <TTGlyph name="Eogonek.sc" xMin="-6" yMin="-242" xMax="533" yMax="561">
      <contour>
        <pt x="363" y="-211" on="1"/>
        <pt x="317" y="-227" on="0"/>
        <pt x="242" y="-242" on="0"/>
        <pt x="211" y="-242" on="1"/>
        <pt x="147" y="-242" on="0"/>
        <pt x="85" y="-183" on="0"/>
        <pt x="85" y="-137" on="1"/>
        <pt x="85" y="-102" on="0"/>
        <pt x="129" y="-31" on="0"/>
        <pt x="185" y="0" on="1"/>
        <pt x="-6" y="0" on="1"/>
        <pt x="102" y="561" on="1"/>
        <pt x="533" y="561" on="1"/>
        <pt x="502" y="396" on="1"/>
        <pt x="304" y="396" on="1"/>
        <pt x="293" y="343" on="1"/>
        <pt x="442" y="343" on="1"/>
        <pt x="418" y="219" on="1"/>
        <pt x="269" y="219" on="1"/>
        <pt x="258" y="165" on="1"/>
        <pt x="465" y="165" on="1"/>
        <pt x="423" y="0" on="1"/>
        <pt x="327" y="-19" on="0"/>
        <pt x="265" y="-60" on="0"/>
        <pt x="265" y="-73" on="1"/>
        <pt x="265" y="-83" on="0"/>
        <pt x="291" y="-94" on="0"/>
        <pt x="319" y="-94" on="1"/>
        <pt x="328" y="-94" on="0"/>
        <pt x="349" y="-93" on="0"/>
        <pt x="362" y="-92" on="1"/>
      </contour>
    </TTGlyph>
    <TTGlyph name="Eth" xMin="-10" yMin="-9" xMax="613" yMax="626">
      <contour>
        <pt x="157" y="-9" on="1"/>
        <pt x="120" y="-9" on="0"/>
        <pt x="37" y="-4" on="0"/>
        <pt x="-8" y="3" on="1"/>
        <pt x="40" y="252" on="1"/>
        <pt x="-10" y="252" on="1"/>
        <pt x="14" y="373" on="1"/>
        <pt x="64" y="373" on="1"/>
        <pt x="110" y="613" on="1"/>
        <pt x="159" y="620" on="0"/>
        <pt x="247" y="626" on="0"/>
        <pt x="285" y="626" on="1"/>
        <pt x="459" y="626" on="0"/>
        <pt x="613" y="494" on="0"/>
        <pt x="613" y="372" on="1"/>
        <pt x="613" y="304" on="0"/>
        <pt x="570" y="168" on="0"/>
        <pt x="466" y="59" on="0"/>
        <pt x="289" y="-9" on="0"/>
      </contour>
      <contour>
        <pt x="278" y="173" on="1"/>
        <pt x="302" y="173" on="0"/>
        <pt x="341" y="203" on="0"/>
        <pt x="367" y="253" on="0"/>
        <pt x="381" y="317" on="0"/>
        <pt x="381" y="351" on="1"/>
        <pt x="381" y="400" on="0"/>
        <pt x="345" y="443" on="0"/>
        <pt x="308" y="445" on="1"/>
        <pt x="294" y="373" on="1"/>
        <pt x="349" y="373" on="1"/>
        <pt x="325" y="252" on="1"/>
        <pt x="271" y="252" on="1"/>
        <pt x="256" y="176" on="1"/>
        <pt x="262" y="175" on="0"/>
        <pt x="273" y="173" on="0"/>
      </contour>
    </TTGlyph>
    <TTGlyph name="Eth.sc" xMin="-11" yMin="-9" xMax="585" yMax="565">
      <contour>
        <pt x="158" y="-9" on="1"/>
        <pt x="121" y="-9" on="0"/>
        <pt x="39" y="-3" on="0"/>
        <pt x="-6" y="3" on="1"/>
        <pt x="37" y="227" on="1"/>
        <pt x="-11" y="227" on="1"/>
        <pt x="11" y="338" on="1"/>
        <pt x="58" y="338" on="1"/>
        <pt x="100" y="554" on="1"/>
        <pt x="143" y="560" on="0"/>
        <pt x="220" y="565" on="0"/>
        <pt x="255" y="565" on="1"/>
        <pt x="429" y="565" on="0"/>
        <pt x="585" y="434" on="0"/>
        <pt x="585" y="323" on="1"/>
        <pt x="585" y="263" on="0"/>
        <pt x="546" y="144" on="0"/>
        <pt x="450" y="50" on="0"/>
        <pt x="284" y="-9" on="0"/>
      </contour>
      <contour>
        <pt x="266" y="156" on="1"/>
        <pt x="289" y="156" on="0"/>
        <pt x="325" y="183" on="0"/>
        <pt x="350" y="228" on="0"/>
        <pt x="363" y="285" on="0"/>
        <pt x="363" y="315" on="1"/>
        <pt x="363" y="359" on="0"/>
        <pt x="329" y="400" on="0"/>
        <pt x="292" y="403" on="1"/>
        <pt x="280" y="338" on="1"/>
        <pt x="329" y="338" on="1"/>
        <pt x="307" y="227" on="1"/>
        <pt x="258" y="227" on="1"/>
        <pt x="245" y="159" on="1"/>
        <pt x="251" y="158" on="0"/>
        <pt x="262" y="156" on="0"/>
      </contour>
    </TTGlyph>
    <TTGlyph name="Euro" xMin="8" yMin="-13" xMax="580" yMax="634">
      <contour>
        <pt x="491" y="34" on="1"/>
        <pt x="430" y="10" on="0"/>
        <pt x="327" y="-13" on="0"/>
        <pt x="285" y="-13" on="1"/>
        <pt x="185" y="-13" on="0"/>
        <pt x="89" y="102" on="0"/>
        <pt x="82" y="192" on="1"/>
        <pt x="8" y="192" on="1"/>
        <pt x="26" y="283" on="1"/>
        <pt x="84" y="283" on="1"/>
        <pt x="85" y="293" on="0"/>
        <pt x="88" y="313" on="0"/>
        <pt x="90" y="323" on="1"/>
        <pt x="33" y="323" on="1"/>
        <pt x="50" y="414" on="1"/>
        <pt x="115" y="414" on="1"/>
        <pt x="133" y="461" on="0"/>
        <pt x="189" y="542" on="0"/>
        <pt x="261" y="601" on="0"/>
        <pt x="350" y="634" on="0"/>
        <pt x="401" y="634" on="1"/>
        <pt x="476" y="634" on="0"/>
        <pt x="568" y="556" on="0"/>
        <pt x="580" y="460" on="1"/>
        <pt x="400" y="429" on="1"/>
        <pt x="394" y="446" on="0"/>
        <pt x="381" y="465" on="0"/>
        <pt x="370" y="465" on="1"/>
        <pt x="354" y="465" on="0"/>
        <pt x="327" y="428" on="0"/>
        <pt x="317" y="397" on="1"/>
        <pt x="507" y="397" on="1"/>
        <pt x="489" y="323" on="1"/>
        <pt x="300" y="323" on="1"/>
        <pt x="299" y="313" on="0"/>
        <pt x="297" y="293" on="0"/>
        <pt x="296" y="283" on="1"/>
        <pt x="476" y="283" on="1"/>
        <pt x="458" y="209" on="1"/>
        <pt x="295" y="209" on="1"/>
        <pt x="298" y="178" on="0"/>
        <pt x="326" y="152" on="0"/>
        <pt x="360" y="152" on="1"/>
        <pt x="382" y="152" on="0"/>
        <pt x="445" y="160" on="0"/>
        <pt x="488" y="167" on="1"/>
      </contour>
    </TTGlyph>
    <TTGlyph name="F" xMin="-8" yMin="0" xMax="562" yMax="620">
      <contour>
        <pt x="430" y="190" on="1"/>
        <pt x="279" y="190" on="1"/>
        <pt x="242" y="0" on="1"/>
        <pt x="-8" y="0" on="1"/>
        <pt x="112" y="620" on="1"/>
        <pt x="562" y="620" on="1"/>
        <pt x="526" y="430" on="1"/>
        <pt x="326" y="430" on="1"/>
        <pt x="314" y="367" on="1"/>
        <pt x="464" y="367" on="1"/>
      </contour>
    </TTGlyph>
    <TTGlyph name="F.sc" xMin="-6" yMin="0" xMax="533" yMax="561">
      <contour>
        <pt x="411" y="172" on="1"/>
        <pt x="266" y="172" on="1"/>
        <pt x="232" y="0" on="1"/>
        <pt x="-6" y="0" on="1"/>
        <pt x="102" y="561" on="1"/>
        <pt x="533" y="561" on="1"/>
        <pt x="501" y="389" on="1"/>
        <pt x="308" y="389" on="1"/>
        <pt x="297" y="332" on="1"/>
        <pt x="442" y="332" on="1"/>
      </contour>
    </TTGlyph>
    <TTGlyph name="G" xMin="20" yMin="-92" xMax="583" yMax="632">
      <contour>
        <pt x="490" y="-90" on="1"/>
        <pt x="279" y="-92" on="1"/>
        <pt x="296" y="-11" on="1"/>
        <pt x="289" y="-12" on="0"/>
        <pt x="272" y="-12" on="0"/>
        <pt x="265" y="-12" on="1"/>
        <pt x="137" y="-12" on="0"/>
        <pt x="20" y="121" on="0"/>
        <pt x="20" y="227" on="1"/>
        <pt x="20" y="306" on="0"/>
        <pt x="75" y="453" on="0"/>
        <pt x="171" y="565" on="0"/>
        <pt x="303" y="632" on="0"/>
        <pt x="379" y="632" on="1"/>
        <pt x="477" y="632" on="0"/>
        <pt x="583" y="525" on="0"/>
        <pt x="583" y="400" on="1"/>
        <pt x="583" y="387" on="0"/>
        <pt x="582" y="360" on="0"/>
        <pt x="581" y="345" on="1"/>
        <pt x="365" y="343" on="1"/>
        <pt x="365" y="358" on="1"/>
        <pt x="365" y="390" on="0"/>
        <pt x="353" y="419" on="0"/>
        <pt x="341" y="419" on="1"/>
        <pt x="328" y="419" on="0"/>
        <pt x="301" y="391" on="0"/>
        <pt x="281" y="346" on="0"/>
        <pt x="268" y="289" on="0"/>
        <pt x="268" y="261" on="1"/>
        <pt x="268" y="224" on="0"/>
        <pt x="297" y="180" on="0"/>
        <pt x="337" y="180" on="1"/>
        <pt x="355" y="263" on="1"/>
        <pt x="570" y="267" on="1"/>
      </contour>
    </TTGlyph>
    <TTGlyph name="G.sc" xMin="18" yMin="-83" xMax="555" yMax="573">
      <contour>
        <pt x="472" y="-81" on="1"/>
        <pt x="270" y="-83" on="1"/>
        <pt x="286" y="-9" on="1"/>
        <pt x="280" y="-10" on="0"/>
        <pt x="268" y="-10" on="0"/>
        <pt x="263" y="-10" on="1"/>
        <pt x="139" y="-10" on="0"/>
        <pt x="18" y="112" on="0"/>
        <pt x="18" y="208" on="1"/>
        <pt x="18" y="280" on="0"/>
        <pt x="70" y="412" on="0"/>
        <pt x="161" y="513" on="0"/>
        <pt x="286" y="573" on="0"/>
        <pt x="358" y="573" on="1"/>
        <pt x="451" y="573" on="0"/>
        <pt x="555" y="477" on="0"/>
        <pt x="555" y="365" on="1"/>
        <pt x="555" y="353" on="0"/>
        <pt x="553" y="326" on="0"/>
        <pt x="552" y="312" on="1"/>
        <pt x="348" y="310" on="1"/>
        <pt x="348" y="318" on="1"/>
        <pt x="348" y="350" on="0"/>
        <pt x="336" y="379" on="0"/>
        <pt x="324" y="379" on="1"/>
        <pt x="311" y="379" on="0"/>
        <pt x="286" y="354" on="0"/>
        <pt x="267" y="314" on="0"/>
        <pt x="255" y="264" on="0"/>
        <pt x="255" y="239" on="1"/>
        <pt x="255" y="205" on="0"/>
        <pt x="283" y="163" on="0"/>
        <pt x="323" y="163" on="1"/>
        <pt x="339" y="238" on="1"/>
        <pt x="545" y="242" on="1"/>
      </contour>
    </TTGlyph>
    <TTGlyph name="Gbreve" xMin="20" yMin="-92" xMax="641" yMax="894">
      <contour>
        <pt x="540" y="894" on="1"/>
        <pt x="641" y="821" on="1"/>
        <pt x="617" y="789" on="0"/>
        <pt x="562" y="729" on="0"/>
        <pt x="500" y="685" on="0"/>
        <pt x="430" y="659" on="0"/>
        <pt x="392" y="659" on="1"/>
        <pt x="321" y="659" on="0"/>
        <pt x="223" y="753" on="0"/>
        <pt x="199" y="823" on="1"/>
        <pt x="339" y="894" on="1"/>
        <pt x="355" y="864" on="0"/>
        <pt x="400" y="828" on="0"/>
        <pt x="426" y="828" on="1"/>
        <pt x="451" y="828" on="0"/>
        <pt x="510" y="863" on="0"/>
      </contour>
      <contour>
        <pt x="490" y="-90" on="1"/>
        <pt x="279" y="-92" on="1"/>
        <pt x="296" y="-11" on="1"/>
        <pt x="289" y="-12" on="0"/>
        <pt x="272" y="-12" on="0"/>
        <pt x="265" y="-12" on="1"/>
        <pt x="137" y="-12" on="0"/>
        <pt x="20" y="121" on="0"/>
        <pt x="20" y="227" on="1"/>
        <pt x="20" y="306" on="0"/>
        <pt x="75" y="453" on="0"/>
        <pt x="171" y="565" on="0"/>
        <pt x="303" y="632" on="0"/>
        <pt x="379" y="632" on="1"/>
        <pt x="477" y="632" on="0"/>
        <pt x="583" y="525" on="0"/>
        <pt x="583" y="400" on="1"/>
        <pt x="583" y="387" on="0"/>
        <pt x="582" y="360" on="0"/>
        <pt x="581" y="345" on="1"/>
        <pt x="365" y="343" on="1"/>
        <pt x="365" y="358" on="1"/>
        <pt x="365" y="390" on="0"/>
        <pt x="353" y="419" on="0"/>
        <pt x="341" y="419" on="1"/>
        <pt x="328" y="419" on="0"/>
        <pt x="301" y="391" on="0"/>
        <pt x="281" y="346" on="0"/>
        <pt x="268" y="289" on="0"/>
        <pt x="268" y="261" on="1"/>
        <pt x="268" y="224" on="0"/>
        <pt x="297" y="180" on="0"/>
        <pt x="337" y="180" on="1"/>
        <pt x="355" y="263" on="1"/>
        <pt x="570" y="267" on="1"/>
      </contour>
    </TTGlyph>
    <TTGlyph name="Gbreve.sc" xMin="18" yMin="-83" xMax="626" yMax="835">
      <contour>
        <pt x="525" y="835" on="1"/>
        <pt x="626" y="762" on="1"/>
        <pt x="602" y="730" on="0"/>
        <pt x="547" y="670" on="0"/>
        <pt x="485" y="626" on="0"/>
        <pt x="415" y="600" on="0"/>
        <pt x="377" y="600" on="1"/>
        <pt x="306" y="600" on="0"/>
        <pt x="208" y="694" on="0"/>
        <pt x="184" y="764" on="1"/>
        <pt x="324" y="835" on="1"/>
        <pt x="340" y="805" on="0"/>
        <pt x="385" y="769" on="0"/>
        <pt x="411" y="769" on="1"/>
        <pt x="436" y="769" on="0"/>
        <pt x="495" y="804" on="0"/>
      </contour>
      <contour>
        <pt x="472" y="-81" on="1"/>
        <pt x="270" y="-83" on="1"/>
        <pt x="286" y="-9" on="1"/>
        <pt x="280" y="-10" on="0"/>
        <pt x="268" y="-10" on="0"/>
        <pt x="263" y="-10" on="1"/>
        <pt x="139" y="-10" on="0"/>
        <pt x="18" y="112" on="0"/>
        <pt x="18" y="208" on="1"/>
        <pt x="18" y="280" on="0"/>
        <pt x="70" y="412" on="0"/>
        <pt x="161" y="513" on="0"/>
        <pt x="286" y="573" on="0"/>
        <pt x="358" y="573" on="1"/>
        <pt x="451" y="573" on="0"/>
        <pt x="555" y="477" on="0"/>
        <pt x="555" y="365" on="1"/>
        <pt x="555" y="353" on="0"/>
        <pt x="553" y="326" on="0"/>
        <pt x="552" y="312" on="1"/>
        <pt x="348" y="310" on="1"/>
        <pt x="348" y="318" on="1"/>
        <pt x="348" y="350" on="0"/>
        <pt x="336" y="379" on="0"/>
        <pt x="324" y="379" on="1"/>
        <pt x="311" y="379" on="0"/>
        <pt x="286" y="354" on="0"/>
        <pt x="267" y="314" on="0"/>
        <pt x="255" y="264" on="0"/>
        <pt x="255" y="239" on="1"/>
        <pt x="255" y="205" on="0"/>
        <pt x="283" y="163" on="0"/>
        <pt x="323" y="163" on="1"/>
        <pt x="339" y="238" on="1"/>
        <pt x="545" y="242" on="1"/>
      </contour>
    </TTGlyph>
    <TTGlyph name="Gcommaaccent" xMin="20" yMin="-403" xMax="583" yMax="632">
      <contour>
        <pt x="490" y="-90" on="1"/>
        <pt x="279" y="-92" on="1"/>
        <pt x="296" y="-11" on="1"/>
        <pt x="289" y="-12" on="0"/>
        <pt x="272" y="-12" on="0"/>
        <pt x="265" y="-12" on="1"/>
        <pt x="137" y="-12" on="0"/>
        <pt x="20" y="121" on="0"/>
        <pt x="20" y="227" on="1"/>
        <pt x="20" y="306" on="0"/>
        <pt x="75" y="453" on="0"/>
        <pt x="171" y="565" on="0"/>
        <pt x="303" y="632" on="0"/>
        <pt x="379" y="632" on="1"/>
        <pt x="477" y="632" on="0"/>
        <pt x="583" y="525" on="0"/>
        <pt x="583" y="400" on="1"/>
        <pt x="583" y="387" on="0"/>
        <pt x="582" y="360" on="0"/>
        <pt x="581" y="345" on="1"/>
        <pt x="365" y="343" on="1"/>
        <pt x="365" y="358" on="1"/>
        <pt x="365" y="390" on="0"/>
        <pt x="353" y="419" on="0"/>
        <pt x="341" y="419" on="1"/>
        <pt x="328" y="419" on="0"/>
        <pt x="301" y="391" on="0"/>
        <pt x="281" y="346" on="0"/>
        <pt x="268" y="289" on="0"/>
        <pt x="268" y="261" on="1"/>
        <pt x="268" y="224" on="0"/>
        <pt x="297" y="180" on="0"/>
        <pt x="337" y="180" on="1"/>
        <pt x="355" y="263" on="1"/>
        <pt x="570" y="267" on="1"/>
      </contour>
      <contour>
        <pt x="69" y="-363" on="1"/>
        <pt x="89" y="-304" on="0"/>
        <pt x="114" y="-194" on="0"/>
        <pt x="115" y="-125" on="1"/>
        <pt x="352" y="-125" on="1"/>
        <pt x="336" y="-211" on="0"/>
        <pt x="252" y="-344" on="0"/>
        <pt x="159" y="-403" on="1"/>
      </contour>
    </TTGlyph>
    <TTGlyph name="Gcommaaccent.sc" xMin="18" yMin="-393" xMax="555" yMax="573">
      <contour>
        <pt x="472" y="-81" on="1"/>
        <pt x="270" y="-83" on="1"/>
        <pt x="286" y="-9" on="1"/>
        <pt x="280" y="-10" on="0"/>
        <pt x="268" y="-10" on="0"/>
        <pt x="263" y="-10" on="1"/>
        <pt x="139" y="-10" on="0"/>
        <pt x="18" y="112" on="0"/>
        <pt x="18" y="208" on="1"/>
        <pt x="18" y="280" on="0"/>
        <pt x="70" y="412" on="0"/>
        <pt x="161" y="513" on="0"/>
        <pt x="286" y="573" on="0"/>
        <pt x="358" y="573" on="1"/>
        <pt x="451" y="573" on="0"/>
        <pt x="555" y="477" on="0"/>
        <pt x="555" y="365" on="1"/>
        <pt x="555" y="353" on="0"/>
        <pt x="553" y="326" on="0"/>
        <pt x="552" y="312" on="1"/>
        <pt x="348" y="310" on="1"/>
        <pt x="348" y="318" on="1"/>
        <pt x="348" y="350" on="0"/>
        <pt x="336" y="379" on="0"/>
        <pt x="324" y="379" on="1"/>
        <pt x="311" y="379" on="0"/>
        <pt x="286" y="354" on="0"/>
        <pt x="267" y="314" on="0"/>
        <pt x="255" y="264" on="0"/>
        <pt x="255" y="239" on="1"/>
        <pt x="255" y="205" on="0"/>
        <pt x="283" y="163" on="0"/>
        <pt x="323" y="163" on="1"/>
        <pt x="339" y="238" on="1"/>
        <pt x="545" y="242" on="1"/>
      </contour>
      <contour>
        <pt x="68" y="-353" on="1"/>
        <pt x="88" y="-294" on="0"/>
        <pt x="113" y="-184" on="0"/>
        <pt x="114" y="-115" on="1"/>
        <pt x="351" y="-115" on="1"/>
        <pt x="335" y="-201" on="0"/>
        <pt x="251" y="-334" on="0"/>
        <pt x="158" y="-393" on="1"/>
      </contour>
    </TTGlyph>
    <TTGlyph name="Gdotaccent" xMin="20" yMin="-92" xMax="583" yMax="851">
      <contour>
        <pt x="496" y="674" on="1"/>
        <pt x="270" y="674" on="1"/>
        <pt x="309" y="846" on="1"/>
        <pt x="543" y="851" on="1"/>
      </contour>
      <contour>
        <pt x="490" y="-90" on="1"/>
        <pt x="279" y="-92" on="1"/>
        <pt x="296" y="-11" on="1"/>
        <pt x="289" y="-12" on="0"/>
        <pt x="272" y="-12" on="0"/>
        <pt x="265" y="-12" on="1"/>
        <pt x="137" y="-12" on="0"/>
        <pt x="20" y="121" on="0"/>
        <pt x="20" y="227" on="1"/>
        <pt x="20" y="306" on="0"/>
        <pt x="75" y="453" on="0"/>
        <pt x="171" y="565" on="0"/>
        <pt x="303" y="632" on="0"/>
        <pt x="379" y="632" on="1"/>
        <pt x="477" y="632" on="0"/>
        <pt x="583" y="525" on="0"/>
        <pt x="583" y="400" on="1"/>
        <pt x="583" y="387" on="0"/>
        <pt x="582" y="360" on="0"/>
        <pt x="581" y="345" on="1"/>
        <pt x="365" y="343" on="1"/>
        <pt x="365" y="358" on="1"/>
        <pt x="365" y="390" on="0"/>
        <pt x="353" y="419" on="0"/>
        <pt x="341" y="419" on="1"/>
        <pt x="328" y="419" on="0"/>
        <pt x="301" y="391" on="0"/>
        <pt x="281" y="346" on="0"/>
        <pt x="268" y="289" on="0"/>
        <pt x="268" y="261" on="1"/>
        <pt x="268" y="224" on="0"/>
        <pt x="297" y="180" on="0"/>
        <pt x="337" y="180" on="1"/>
        <pt x="355" y="263" on="1"/>
        <pt x="570" y="267" on="1"/>
      </contour>
    </TTGlyph>
    <TTGlyph name="Gdotaccent.sc" xMin="18" yMin="-83" xMax="555" yMax="792">
      <contour>
        <pt x="481" y="615" on="1"/>
        <pt x="255" y="615" on="1"/>
        <pt x="294" y="787" on="1"/>
        <pt x="528" y="792" on="1"/>
      </contour>
      <contour>
        <pt x="472" y="-81" on="1"/>
        <pt x="270" y="-83" on="1"/>
        <pt x="286" y="-9" on="1"/>
        <pt x="280" y="-10" on="0"/>
        <pt x="268" y="-10" on="0"/>
        <pt x="263" y="-10" on="1"/>
        <pt x="139" y="-10" on="0"/>
        <pt x="18" y="112" on="0"/>
        <pt x="18" y="208" on="1"/>
        <pt x="18" y="280" on="0"/>
        <pt x="70" y="412" on="0"/>
        <pt x="161" y="513" on="0"/>
        <pt x="286" y="573" on="0"/>
        <pt x="358" y="573" on="1"/>
        <pt x="451" y="573" on="0"/>
        <pt x="555" y="477" on="0"/>
        <pt x="555" y="365" on="1"/>
        <pt x="555" y="353" on="0"/>
        <pt x="553" y="326" on="0"/>
        <pt x="552" y="312" on="1"/>
        <pt x="348" y="310" on="1"/>
        <pt x="348" y="318" on="1"/>
        <pt x="348" y="350" on="0"/>
        <pt x="336" y="379" on="0"/>
        <pt x="324" y="379" on="1"/>
        <pt x="311" y="379" on="0"/>
        <pt x="286" y="354" on="0"/>
        <pt x="267" y="314" on="0"/>
        <pt x="255" y="264" on="0"/>
        <pt x="255" y="239" on="1"/>
        <pt x="255" y="205" on="0"/>
        <pt x="283" y="163" on="0"/>
        <pt x="323" y="163" on="1"/>
        <pt x="339" y="238" on="1"/>
        <pt x="545" y="242" on="1"/>
      </contour>
    </TTGlyph>
    <TTGlyph name="H" xMin="-8" yMin="0" xMax="691" yMax="620">
      <contour>
        <pt x="319" y="0" on="1"/>
        <pt x="361" y="216" on="1"/>
        <pt x="286" y="216" on="1"/>
        <pt x="244" y="0" on="1"/>
        <pt x="-8" y="0" on="1"/>
        <pt x="112" y="620" on="1"/>
        <pt x="364" y="620" on="1"/>
        <pt x="323" y="409" on="1"/>
        <pt x="398" y="409" on="1"/>
        <pt x="439" y="620" on="1"/>
        <pt x="691" y="620" on="1"/>
        <pt x="571" y="0" on="1"/>
      </contour>
    </TTGlyph>
    <TTGlyph name="H.sc" xMin="-6" yMin="0" xMax="657" yMax="561">
      <contour>
        <pt x="308" y="0" on="1"/>
        <pt x="346" y="196" on="1"/>
        <pt x="272" y="196" on="1"/>
        <pt x="234" y="0" on="1"/>
        <pt x="-6" y="0" on="1"/>
        <pt x="102" y="561" on="1"/>
        <pt x="343" y="561" on="1"/>
        <pt x="306" y="370" on="1"/>
        <pt x="379" y="370" on="1"/>
        <pt x="416" y="561" on="1"/>
        <pt x="657" y="561" on="1"/>
        <pt x="548" y="0" on="1"/>
      </contour>
    </TTGlyph>
    <TTGlyph name="Hbar" xMin="-8" yMin="0" xMax="731" yMax="620">
      <contour>
        <pt x="389" y="361" on="1"/>
        <pt x="403" y="435" on="1"/>
        <pt x="328" y="435" on="1"/>
        <pt x="314" y="361" on="1"/>
      </contour>
      <contour>
        <pt x="319" y="0" on="1"/>
        <pt x="352" y="171" on="1"/>
        <pt x="277" y="171" on="1"/>
        <pt x="244" y="0" on="1"/>
        <pt x="-8" y="0" on="1"/>
        <pt x="75" y="430" on="1"/>
        <pt x="22" y="430" on="1"/>
        <pt x="46" y="551" on="1"/>
        <pt x="99" y="551" on="1"/>
        <pt x="112" y="620" on="1"/>
        <pt x="364" y="620" on="1"/>
        <pt x="350" y="546" on="1"/>
        <pt x="425" y="546" on="1"/>
        <pt x="439" y="620" on="1"/>
        <pt x="691" y="620" on="1"/>
        <pt x="678" y="551" on="1"/>
        <pt x="731" y="551" on="1"/>
        <pt x="707" y="430" on="1"/>
        <pt x="654" y="430" on="1"/>
        <pt x="571" y="0" on="1"/>
      </contour>
    </TTGlyph>
    <TTGlyph name="Hbar.sc" xMin="-16" yMin="0" xMax="683" yMax="561">
      <contour>
        <pt x="362" y="333" on="1"/>
        <pt x="374" y="394" on="1"/>
        <pt x="301" y="394" on="1"/>
        <pt x="289" y="333" on="1"/>
      </contour>
      <contour>
        <pt x="298" y="0" on="1"/>
        <pt x="329" y="159" on="1"/>
        <pt x="255" y="159" on="1"/>
        <pt x="224" y="0" on="1"/>
        <pt x="-16" y="0" on="1"/>
        <pt x="59" y="390" on="1"/>
        <pt x="9" y="390" on="1"/>
        <pt x="29" y="491" on="1"/>
        <pt x="79" y="491" on="1"/>
        <pt x="92" y="561" on="1"/>
        <pt x="333" y="561" on="1"/>
        <pt x="319" y="487" on="1"/>
        <pt x="392" y="487" on="1"/>
        <pt x="406" y="561" on="1"/>
        <pt x="647" y="561" on="1"/>
        <pt x="633" y="491" on="1"/>
        <pt x="683" y="491" on="1"/>
        <pt x="663" y="390" on="1"/>
        <pt x="614" y="390" on="1"/>
        <pt x="538" y="0" on="1"/>
      </contour>
    </TTGlyph>
    <TTGlyph name="I" xMin="-18" yMin="0" xMax="561" yMax="620">
      <contour>
        <pt x="366" y="171" on="1"/>
        <pt x="485" y="171" on="1"/>
        <pt x="442" y="0" on="1"/>
        <pt x="-18" y="0" on="1"/>
        <pt x="15" y="171" on="1"/>
        <pt x="122" y="171" on="1"/>
        <pt x="176" y="449" on="1"/>
        <pt x="66" y="449" on="1"/>
        <pt x="99" y="620" on="1"/>
        <pt x="561" y="620" on="1"/>
        <pt x="528" y="449" on="1"/>
        <pt x="420" y="449" on="1"/>
      </contour>
    </TTGlyph>
    <TTGlyph name="I.sc" xMin="-16" yMin="0" xMax="532" yMax="561">
      <contour>
        <pt x="350" y="155" on="1"/>
        <pt x="464" y="155" on="1"/>
        <pt x="424" y="0" on="1"/>
        <pt x="-16" y="0" on="1"/>
        <pt x="14" y="155" on="1"/>
        <pt x="117" y="155" on="1"/>
        <pt x="166" y="406" on="1"/>
        <pt x="60" y="406" on="1"/>
        <pt x="90" y="561" on="1"/>
        <pt x="532" y="561" on="1"/>
        <pt x="502" y="406" on="1"/>
        <pt x="399" y="406" on="1"/>
      </contour>
    </TTGlyph>
    <TTGlyph name="Iacute" xMin="-18" yMin="0" xMax="570" yMax="916">
      <contour>
        <pt x="196" y="737" on="1"/>
        <pt x="271" y="778" on="0"/>
        <pt x="406" y="867" on="0"/>
        <pt x="469" y="916" on="1"/>
        <pt x="570" y="748" on="1"/>
        <pt x="489" y="702" on="0"/>
        <pt x="313" y="658" on="0"/>
        <pt x="222" y="647" on="1"/>
      </contour>
      <contour>
        <pt x="366" y="171" on="1"/>
        <pt x="485" y="171" on="1"/>
        <pt x="442" y="0" on="1"/>
        <pt x="-18" y="0" on="1"/>
        <pt x="15" y="171" on="1"/>
        <pt x="122" y="171" on="1"/>
        <pt x="176" y="449" on="1"/>
        <pt x="66" y="449" on="1"/>
        <pt x="99" y="620" on="1"/>
        <pt x="561" y="620" on="1"/>
        <pt x="528" y="449" on="1"/>
        <pt x="420" y="449" on="1"/>
      </contour>
    </TTGlyph>
    <TTGlyph name="Iacute.sc" xMin="-16" yMin="0" xMax="550" yMax="857">
      <contour>
        <pt x="176" y="678" on="1"/>
        <pt x="251" y="719" on="0"/>
        <pt x="386" y="808" on="0"/>
        <pt x="449" y="857" on="1"/>
        <pt x="550" y="689" on="1"/>
        <pt x="469" y="643" on="0"/>
        <pt x="293" y="599" on="0"/>
        <pt x="202" y="588" on="1"/>
      </contour>
      <contour>
        <pt x="350" y="155" on="1"/>
        <pt x="464" y="155" on="1"/>
        <pt x="424" y="0" on="1"/>
        <pt x="-16" y="0" on="1"/>
        <pt x="14" y="155" on="1"/>
        <pt x="117" y="155" on="1"/>
        <pt x="166" y="406" on="1"/>
        <pt x="60" y="406" on="1"/>
        <pt x="90" y="561" on="1"/>
        <pt x="532" y="561" on="1"/>
        <pt x="502" y="406" on="1"/>
        <pt x="399" y="406" on="1"/>
      </contour>
    </TTGlyph>
    <TTGlyph name="Ibreve" xMin="-18" yMin="0" xMax="595" yMax="887">
      <contour>
        <pt x="494" y="887" on="1"/>
        <pt x="595" y="814" on="1"/>
        <pt x="571" y="782" on="0"/>
        <pt x="516" y="722" on="0"/>
        <pt x="454" y="678" on="0"/>
        <pt x="384" y="652" on="0"/>
        <pt x="346" y="652" on="1"/>
        <pt x="275" y="652" on="0"/>
        <pt x="177" y="746" on="0"/>
        <pt x="153" y="816" on="1"/>
        <pt x="293" y="887" on="1"/>
        <pt x="309" y="857" on="0"/>
        <pt x="354" y="821" on="0"/>
        <pt x="380" y="821" on="1"/>
        <pt x="405" y="821" on="0"/>
        <pt x="464" y="856" on="0"/>
      </contour>
      <contour>
        <pt x="366" y="171" on="1"/>
        <pt x="485" y="171" on="1"/>
        <pt x="442" y="0" on="1"/>
        <pt x="-18" y="0" on="1"/>
        <pt x="15" y="171" on="1"/>
        <pt x="122" y="171" on="1"/>
        <pt x="176" y="449" on="1"/>
        <pt x="66" y="449" on="1"/>
        <pt x="99" y="620" on="1"/>
        <pt x="561" y="620" on="1"/>
        <pt x="528" y="449" on="1"/>
        <pt x="420" y="449" on="1"/>
      </contour>
    </TTGlyph>
    <TTGlyph name="Ibreve.sc" xMin="-16" yMin="0" xMax="575" yMax="828">
      <contour>
        <pt x="474" y="828" on="1"/>
        <pt x="575" y="755" on="1"/>
        <pt x="551" y="723" on="0"/>
        <pt x="496" y="663" on="0"/>
        <pt x="434" y="619" on="0"/>
        <pt x="364" y="593" on="0"/>
        <pt x="326" y="593" on="1"/>
        <pt x="255" y="593" on="0"/>
        <pt x="157" y="687" on="0"/>
        <pt x="133" y="757" on="1"/>
        <pt x="273" y="828" on="1"/>
        <pt x="289" y="798" on="0"/>
        <pt x="334" y="762" on="0"/>
        <pt x="360" y="762" on="1"/>
        <pt x="385" y="762" on="0"/>
        <pt x="444" y="797" on="0"/>
      </contour>
      <contour>
        <pt x="350" y="155" on="1"/>
        <pt x="464" y="155" on="1"/>
        <pt x="424" y="0" on="1"/>
        <pt x="-16" y="0" on="1"/>
        <pt x="14" y="155" on="1"/>
        <pt x="117" y="155" on="1"/>
        <pt x="166" y="406" on="1"/>
        <pt x="60" y="406" on="1"/>
        <pt x="90" y="561" on="1"/>
        <pt x="532" y="561" on="1"/>
        <pt x="502" y="406" on="1"/>
        <pt x="399" y="406" on="1"/>
      </contour>
    </TTGlyph>
    <TTGlyph name="Icircumflex" xMin="-18" yMin="0" xMax="579" yMax="894">
      <contour>
        <pt x="456" y="643" on="1"/>
        <pt x="360" y="732" on="1"/>
        <pt x="220" y="646" on="1"/>
        <pt x="141" y="758" on="1"/>
        <pt x="360" y="894" on="1"/>
        <pt x="414" y="894" on="1"/>
        <pt x="579" y="741" on="1"/>
      </contour>
      <contour>
        <pt x="366" y="171" on="1"/>
        <pt x="485" y="171" on="1"/>
        <pt x="442" y="0" on="1"/>
        <pt x="-18" y="0" on="1"/>
        <pt x="15" y="171" on="1"/>
        <pt x="122" y="171" on="1"/>
        <pt x="176" y="449" on="1"/>
        <pt x="66" y="449" on="1"/>
        <pt x="99" y="620" on="1"/>
        <pt x="561" y="620" on="1"/>
        <pt x="528" y="449" on="1"/>
        <pt x="420" y="449" on="1"/>
      </contour>
    </TTGlyph>
    <TTGlyph name="Icircumflex.sc" xMin="-16" yMin="0" xMax="559" yMax="835">
      <contour>
        <pt x="436" y="584" on="1"/>
        <pt x="340" y="673" on="1"/>
        <pt x="200" y="587" on="1"/>
        <pt x="121" y="699" on="1"/>
        <pt x="340" y="835" on="1"/>
        <pt x="394" y="835" on="1"/>
        <pt x="559" y="682" on="1"/>
      </contour>
      <contour>
        <pt x="350" y="155" on="1"/>
        <pt x="464" y="155" on="1"/>
        <pt x="424" y="0" on="1"/>
        <pt x="-16" y="0" on="1"/>
        <pt x="14" y="155" on="1"/>
        <pt x="117" y="155" on="1"/>
        <pt x="166" y="406" on="1"/>
        <pt x="60" y="406" on="1"/>
        <pt x="90" y="561" on="1"/>
        <pt x="532" y="561" on="1"/>
        <pt x="502" y="406" on="1"/>
        <pt x="399" y="406" on="1"/>
      </contour>
    </TTGlyph>
    <TTGlyph name="Idieresis" xMin="-18" yMin="0" xMax="613" yMax="844">
      <contour>
        <pt x="566" y="667" on="1"/>
        <pt x="364" y="667" on="1"/>
        <pt x="403" y="842" on="1"/>
        <pt x="613" y="844" on="1"/>
      </contour>
      <contour>
        <pt x="314" y="667" on="1"/>
        <pt x="112" y="667" on="1"/>
        <pt x="151" y="839" on="1"/>
        <pt x="361" y="842" on="1"/>
      </contour>
      <contour>
        <pt x="366" y="171" on="1"/>
        <pt x="485" y="171" on="1"/>
        <pt x="442" y="0" on="1"/>
        <pt x="-18" y="0" on="1"/>
        <pt x="15" y="171" on="1"/>
        <pt x="122" y="171" on="1"/>
        <pt x="176" y="449" on="1"/>
        <pt x="66" y="449" on="1"/>
        <pt x="99" y="620" on="1"/>
        <pt x="561" y="620" on="1"/>
        <pt x="528" y="449" on="1"/>
        <pt x="420" y="449" on="1"/>
      </contour>
    </TTGlyph>
    <TTGlyph name="Idieresis.sc" xMin="-16" yMin="0" xMax="593" yMax="785">
      <contour>
        <pt x="546" y="608" on="1"/>
        <pt x="344" y="608" on="1"/>
        <pt x="383" y="783" on="1"/>
        <pt x="593" y="785" on="1"/>
      </contour>
      <contour>
        <pt x="294" y="608" on="1"/>
        <pt x="92" y="608" on="1"/>
        <pt x="131" y="780" on="1"/>
        <pt x="341" y="783" on="1"/>
      </contour>
      <contour>
        <pt x="350" y="155" on="1"/>
        <pt x="464" y="155" on="1"/>
        <pt x="424" y="0" on="1"/>
        <pt x="-16" y="0" on="1"/>
        <pt x="14" y="155" on="1"/>
        <pt x="117" y="155" on="1"/>
        <pt x="166" y="406" on="1"/>
        <pt x="60" y="406" on="1"/>
        <pt x="90" y="561" on="1"/>
        <pt x="532" y="561" on="1"/>
        <pt x="502" y="406" on="1"/>
        <pt x="399" y="406" on="1"/>
      </contour>
    </TTGlyph>
    <TTGlyph name="Idotaccent" xMin="-18" yMin="0" xMax="561" yMax="844">
      <contour>
        <pt x="449" y="667" on="1"/>
        <pt x="223" y="667" on="1"/>
        <pt x="262" y="839" on="1"/>
        <pt x="496" y="844" on="1"/>
      </contour>
      <contour>
        <pt x="366" y="171" on="1"/>
        <pt x="485" y="171" on="1"/>
        <pt x="442" y="0" on="1"/>
        <pt x="-18" y="0" on="1"/>
        <pt x="15" y="171" on="1"/>
        <pt x="122" y="171" on="1"/>
        <pt x="176" y="449" on="1"/>
        <pt x="66" y="449" on="1"/>
        <pt x="99" y="620" on="1"/>
        <pt x="561" y="620" on="1"/>
        <pt x="528" y="449" on="1"/>
        <pt x="420" y="449" on="1"/>
      </contour>
    </TTGlyph>
    <TTGlyph name="Idotaccent.sc" xMin="-16" yMin="0" xMax="532" yMax="785">
      <contour>
        <pt x="430" y="608" on="1"/>
        <pt x="204" y="608" on="1"/>
        <pt x="243" y="780" on="1"/>
        <pt x="477" y="785" on="1"/>
      </contour>
      <contour>
        <pt x="350" y="155" on="1"/>
        <pt x="464" y="155" on="1"/>
        <pt x="424" y="0" on="1"/>
        <pt x="-16" y="0" on="1"/>
        <pt x="14" y="155" on="1"/>
        <pt x="117" y="155" on="1"/>
        <pt x="166" y="406" on="1"/>
        <pt x="60" y="406" on="1"/>
        <pt x="90" y="561" on="1"/>
        <pt x="532" y="561" on="1"/>
        <pt x="502" y="406" on="1"/>
        <pt x="399" y="406" on="1"/>
      </contour>
    </TTGlyph>
    <TTGlyph name="Igrave" xMin="-18" yMin="0" xMax="561" yMax="916">
      <contour>
        <pt x="506" y="737" on="1"/>
        <pt x="480" y="647" on="1"/>
        <pt x="389" y="658" on="0"/>
        <pt x="213" y="702" on="0"/>
        <pt x="132" y="748" on="1"/>
        <pt x="233" y="916" on="1"/>
        <pt x="296" y="867" on="0"/>
        <pt x="431" y="778" on="0"/>
      </contour>
      <contour>
        <pt x="366" y="171" on="1"/>
        <pt x="485" y="171" on="1"/>
        <pt x="442" y="0" on="1"/>
        <pt x="-18" y="0" on="1"/>
        <pt x="15" y="171" on="1"/>
        <pt x="122" y="171" on="1"/>
        <pt x="176" y="449" on="1"/>
        <pt x="66" y="449" on="1"/>
        <pt x="99" y="620" on="1"/>
        <pt x="561" y="620" on="1"/>
        <pt x="528" y="449" on="1"/>
        <pt x="420" y="449" on="1"/>
      </contour>
    </TTGlyph>
    <TTGlyph name="Igrave.sc" xMin="-16" yMin="0" xMax="532" yMax="857">
      <contour>
        <pt x="486" y="678" on="1"/>
        <pt x="460" y="588" on="1"/>
        <pt x="369" y="599" on="0"/>
        <pt x="193" y="643" on="0"/>
        <pt x="112" y="689" on="1"/>
        <pt x="213" y="857" on="1"/>
        <pt x="276" y="808" on="0"/>
        <pt x="411" y="719" on="0"/>
      </contour>
      <contour>
        <pt x="350" y="155" on="1"/>
        <pt x="464" y="155" on="1"/>
        <pt x="424" y="0" on="1"/>
        <pt x="-16" y="0" on="1"/>
        <pt x="14" y="155" on="1"/>
        <pt x="117" y="155" on="1"/>
        <pt x="166" y="406" on="1"/>
        <pt x="60" y="406" on="1"/>
        <pt x="90" y="561" on="1"/>
        <pt x="532" y="561" on="1"/>
        <pt x="502" y="406" on="1"/>
        <pt x="399" y="406" on="1"/>
      </contour>
    </TTGlyph>
    <TTGlyph name="Imacron" xMin="-18" yMin="0" xMax="581" yMax="852">
      <contour>
        <pt x="581" y="852" on="1"/>
        <pt x="546" y="670" on="1"/>
        <pt x="146" y="670" on="1"/>
        <pt x="181" y="852" on="1"/>
      </contour>
      <contour>
        <pt x="366" y="171" on="1"/>
        <pt x="485" y="171" on="1"/>
        <pt x="442" y="0" on="1"/>
        <pt x="-18" y="0" on="1"/>
        <pt x="15" y="171" on="1"/>
        <pt x="122" y="171" on="1"/>
        <pt x="176" y="449" on="1"/>
        <pt x="66" y="449" on="1"/>
        <pt x="99" y="620" on="1"/>
        <pt x="561" y="620" on="1"/>
        <pt x="528" y="449" on="1"/>
        <pt x="420" y="449" on="1"/>
      </contour>
    </TTGlyph>
    <TTGlyph name="Imacron.sc" xMin="-16" yMin="0" xMax="561" yMax="793">
      <contour>
        <pt x="561" y="793" on="1"/>
        <pt x="526" y="611" on="1"/>
        <pt x="126" y="611" on="1"/>
        <pt x="161" y="793" on="1"/>
      </contour>
      <contour>
        <pt x="350" y="155" on="1"/>
        <pt x="464" y="155" on="1"/>
        <pt x="424" y="0" on="1"/>
        <pt x="-16" y="0" on="1"/>
        <pt x="14" y="155" on="1"/>
        <pt x="117" y="155" on="1"/>
        <pt x="166" y="406" on="1"/>
        <pt x="60" y="406" on="1"/>
        <pt x="90" y="561" on="1"/>
        <pt x="532" y="561" on="1"/>
        <pt x="502" y="406" on="1"/>
        <pt x="399" y="406" on="1"/>
      </contour>
    </TTGlyph>
    <TTGlyph name="Iogonek" xMin="-18" yMin="-237" xMax="561" yMax="620">
      <contour>
        <pt x="321" y="-206" on="1"/>
        <pt x="275" y="-222" on="0"/>
        <pt x="199" y="-237" on="0"/>
        <pt x="169" y="-237" on="1"/>
        <pt x="105" y="-237" on="0"/>
        <pt x="43" y="-180" on="0"/>
        <pt x="43" y="-135" on="1"/>
        <pt x="43" y="-102" on="0"/>
        <pt x="82" y="-32" on="0"/>
        <pt x="131" y="0" on="1"/>
        <pt x="-18" y="0" on="1"/>
        <pt x="15" y="171" on="1"/>
        <pt x="122" y="171" on="1"/>
        <pt x="176" y="449" on="1"/>
        <pt x="66" y="449" on="1"/>
        <pt x="99" y="620" on="1"/>
        <pt x="561" y="620" on="1"/>
        <pt x="528" y="449" on="1"/>
        <pt x="420" y="449" on="1"/>
        <pt x="366" y="171" on="1"/>
        <pt x="485" y="171" on="1"/>
        <pt x="442" y="0" on="1"/>
        <pt x="327" y="0" on="1"/>
        <pt x="264" y="-18" on="0"/>
        <pt x="223" y="-55" on="0"/>
        <pt x="223" y="-68" on="1"/>
        <pt x="223" y="-78" on="0"/>
        <pt x="249" y="-89" on="0"/>
        <pt x="277" y="-89" on="1"/>
        <pt x="286" y="-89" on="0"/>
        <pt x="307" y="-88" on="0"/>
        <pt x="320" y="-87" on="1"/>
      </contour>
    </TTGlyph>
    <TTGlyph name="Iogonek.sc" xMin="-16" yMin="-237" xMax="532" yMax="561">
      <contour>
        <pt x="321" y="-206" on="1"/>
        <pt x="275" y="-222" on="0"/>
        <pt x="199" y="-237" on="0"/>
        <pt x="169" y="-237" on="1"/>
        <pt x="105" y="-237" on="0"/>
        <pt x="43" y="-180" on="0"/>
        <pt x="43" y="-135" on="1"/>
        <pt x="43" y="-102" on="0"/>
        <pt x="82" y="-32" on="0"/>
        <pt x="131" y="0" on="1"/>
        <pt x="-16" y="0" on="1"/>
        <pt x="14" y="155" on="1"/>
        <pt x="117" y="155" on="1"/>
        <pt x="166" y="406" on="1"/>
        <pt x="60" y="406" on="1"/>
        <pt x="90" y="561" on="1"/>
        <pt x="532" y="561" on="1"/>
        <pt x="502" y="406" on="1"/>
        <pt x="399" y="406" on="1"/>
        <pt x="350" y="155" on="1"/>
        <pt x="464" y="155" on="1"/>
        <pt x="424" y="0" on="1"/>
        <pt x="327" y="0" on="1"/>
        <pt x="264" y="-18" on="0"/>
        <pt x="223" y="-55" on="0"/>
        <pt x="223" y="-68" on="1"/>
        <pt x="223" y="-78" on="0"/>
        <pt x="249" y="-89" on="0"/>
        <pt x="277" y="-89" on="1"/>
        <pt x="286" y="-89" on="0"/>
        <pt x="307" y="-88" on="0"/>
        <pt x="320" y="-87" on="1"/>
      </contour>
    </TTGlyph>
    <TTGlyph name="J" xMin="-19" yMin="-8" xMax="509" yMax="620">
      <contour>
        <pt x="141" y="-8" on="1"/>
        <pt x="108" y="-8" on="0"/>
        <pt x="29" y="-5" on="0"/>
        <pt x="-19" y="-2" on="1"/>
        <pt x="17" y="185" on="1"/>
        <pt x="42" y="184" on="0"/>
        <pt x="80" y="183" on="0"/>
        <pt x="94" y="183" on="1"/>
        <pt x="132" y="183" on="0"/>
        <pt x="158" y="191" on="0"/>
        <pt x="165" y="198" on="1"/>
        <pt x="169" y="202" on="0"/>
        <pt x="176" y="214" on="0"/>
        <pt x="184" y="239" on="0"/>
        <pt x="194" y="282" on="0"/>
        <pt x="201" y="317" on="1"/>
        <pt x="226" y="449" on="1"/>
        <pt x="93" y="449" on="1"/>
        <pt x="128" y="620" on="1"/>
        <pt x="509" y="620" on="1"/>
        <pt x="448" y="305" on="1"/>
        <pt x="434" y="234" on="0"/>
        <pt x="414" y="146" on="0"/>
        <pt x="397" y="91" on="0"/>
        <pt x="378" y="61" on="0"/>
        <pt x="365" y="48" on="1"/>
        <pt x="337" y="20" on="0"/>
        <pt x="242" y="-8" on="0"/>
      </contour>
    </TTGlyph>
    <TTGlyph name="J.sc" xMin="-17" yMin="-7" xMax="482" yMax="561">
      <contour>
        <pt x="133" y="-7" on="1"/>
        <pt x="102" y="-7" on="0"/>
        <pt x="27" y="-4" on="0"/>
        <pt x="-17" y="-2" on="1"/>
        <pt x="16" y="167" on="1"/>
        <pt x="39" y="166" on="0"/>
        <pt x="76" y="165" on="0"/>
        <pt x="89" y="165" on="1"/>
        <pt x="126" y="165" on="0"/>
        <pt x="151" y="172" on="0"/>
        <pt x="158" y="179" on="1"/>
        <pt x="165" y="186" on="0"/>
        <pt x="179" y="224" on="0"/>
        <pt x="191" y="287" on="1"/>
        <pt x="214" y="406" on="1"/>
        <pt x="86" y="406" on="1"/>
        <pt x="118" y="561" on="1"/>
        <pt x="482" y="561" on="1"/>
        <pt x="427" y="276" on="1"/>
        <pt x="415" y="214" on="0"/>
        <pt x="397" y="134" on="0"/>
        <pt x="381" y="84" on="0"/>
        <pt x="363" y="56" on="0"/>
        <pt x="352" y="45" on="1"/>
        <pt x="327" y="20" on="0"/>
        <pt x="234" y="-7" on="0"/>
      </contour>
    </TTGlyph>
    <TTGlyph name="K" xMin="-8" yMin="-4" xMax="703" yMax="620">
      <contour>
        <pt x="350" y="-4" on="1"/>
        <pt x="279" y="233" on="1"/>
        <pt x="234" y="0" on="1"/>
        <pt x="-8" y="0" on="1"/>
        <pt x="112" y="620" on="1"/>
        <pt x="354" y="620" on="1"/>
        <pt x="311" y="400" on="1"/>
        <pt x="449" y="620" on="1"/>
        <pt x="703" y="620" on="1"/>
        <pt x="499" y="312" on="1"/>
        <pt x="604" y="4" on="1"/>
      </contour>
    </TTGlyph>
    <TTGlyph name="K.sc" xMin="-7" yMin="-4" xMax="667" yMax="561">
      <contour>
        <pt x="336" y="-4" on="1"/>
        <pt x="265" y="212" on="1"/>
        <pt x="224" y="0" on="1"/>
        <pt x="-7" y="0" on="1"/>
        <pt x="101" y="561" on="1"/>
        <pt x="332" y="561" on="1"/>
        <pt x="293" y="360" on="1"/>
        <pt x="424" y="561" on="1"/>
        <pt x="667" y="561" on="1"/>
        <pt x="474" y="282" on="1"/>
        <pt x="579" y="4" on="1"/>
      </contour>
    </TTGlyph>
    <TTGlyph name="Kcommaaccent" xMin="-8" yMin="-322" xMax="703" yMax="620">
      <contour>
        <pt x="350" y="-4" on="1"/>
        <pt x="279" y="233" on="1"/>
        <pt x="234" y="0" on="1"/>
        <pt x="-8" y="0" on="1"/>
        <pt x="112" y="620" on="1"/>
        <pt x="354" y="620" on="1"/>
        <pt x="311" y="400" on="1"/>
        <pt x="449" y="620" on="1"/>
        <pt x="703" y="620" on="1"/>
        <pt x="499" y="312" on="1"/>
        <pt x="604" y="4" on="1"/>
      </contour>
      <contour>
        <pt x="109" y="-282" on="1"/>
        <pt x="129" y="-223" on="0"/>
        <pt x="154" y="-113" on="0"/>
        <pt x="155" y="-44" on="1"/>
        <pt x="392" y="-44" on="1"/>
        <pt x="376" y="-130" on="0"/>
        <pt x="292" y="-263" on="0"/>
        <pt x="199" y="-322" on="1"/>
      </contour>
    </TTGlyph>
    <TTGlyph name="Kcommaaccent.sc" xMin="-7" yMin="-322" xMax="667" yMax="561">
      <contour>
        <pt x="336" y="-4" on="1"/>
        <pt x="265" y="212" on="1"/>
        <pt x="224" y="0" on="1"/>
        <pt x="-7" y="0" on="1"/>
        <pt x="101" y="561" on="1"/>
        <pt x="332" y="561" on="1"/>
        <pt x="293" y="360" on="1"/>
        <pt x="424" y="561" on="1"/>
        <pt x="667" y="561" on="1"/>
        <pt x="474" y="282" on="1"/>
        <pt x="579" y="4" on="1"/>
      </contour>
      <contour>
        <pt x="100" y="-282" on="1"/>
        <pt x="120" y="-223" on="0"/>
        <pt x="145" y="-113" on="0"/>
        <pt x="146" y="-44" on="1"/>
        <pt x="383" y="-44" on="1"/>
        <pt x="367" y="-130" on="0"/>
        <pt x="283" y="-263" on="0"/>
        <pt x="190" y="-322" on="1"/>
      </contour>
    </TTGlyph>
    <TTGlyph name="L" xMin="-8" yMin="0" xMax="475" yMax="620">
      <contour>
        <pt x="438" y="0" on="1"/>
        <pt x="-8" y="0" on="1"/>
        <pt x="112" y="620" on="1"/>
        <pt x="364" y="620" on="1"/>
        <pt x="281" y="192" on="1"/>
        <pt x="475" y="192" on="1"/>
      </contour>
    </TTGlyph>
    <TTGlyph name="L.sc" xMin="-6" yMin="0" xMax="454" yMax="561">
      <contour>
        <pt x="421" y="0" on="1"/>
        <pt x="-6" y="0" on="1"/>
        <pt x="102" y="561" on="1"/>
        <pt x="343" y="561" on="1"/>
        <pt x="268" y="174" on="1"/>
        <pt x="454" y="174" on="1"/>
      </contour>
    </TTGlyph>
    <TTGlyph name="Lacute" xMin="-8" yMin="0" xMax="554" yMax="916">
      <contour>
        <pt x="180" y="737" on="1"/>
        <pt x="255" y="778" on="0"/>
        <pt x="390" y="867" on="0"/>
        <pt x="453" y="916" on="1"/>
        <pt x="554" y="748" on="1"/>
        <pt x="473" y="702" on="0"/>
        <pt x="297" y="658" on="0"/>
        <pt x="206" y="647" on="1"/>
      </contour>
      <contour>
        <pt x="438" y="0" on="1"/>
        <pt x="-8" y="0" on="1"/>
        <pt x="112" y="620" on="1"/>
        <pt x="364" y="620" on="1"/>
        <pt x="281" y="192" on="1"/>
        <pt x="475" y="192" on="1"/>
      </contour>
    </TTGlyph>
    <TTGlyph name="Lacute.sc" xMin="-6" yMin="0" xMax="548" yMax="857">
      <contour>
        <pt x="174" y="678" on="1"/>
        <pt x="249" y="719" on="0"/>
        <pt x="384" y="808" on="0"/>
        <pt x="447" y="857" on="1"/>
        <pt x="548" y="689" on="1"/>
        <pt x="467" y="643" on="0"/>
        <pt x="291" y="599" on="0"/>
        <pt x="200" y="588" on="1"/>
      </contour>
      <contour>
        <pt x="421" y="0" on="1"/>
        <pt x="-6" y="0" on="1"/>
        <pt x="102" y="561" on="1"/>
        <pt x="343" y="561" on="1"/>
        <pt x="268" y="174" on="1"/>
        <pt x="454" y="174" on="1"/>
      </contour>
    </TTGlyph>
    <TTGlyph name="Lcaron" xMin="-8" yMin="0" xMax="615" yMax="637">
      <contour>
        <pt x="422" y="637" on="1"/>
        <pt x="615" y="637" on="1"/>
        <pt x="593" y="570" on="0"/>
        <pt x="526" y="447" on="0"/>
        <pt x="481" y="390" on="1"/>
        <pt x="384" y="407" on="1"/>
        <pt x="397" y="464" on="0"/>
        <pt x="418" y="582" on="0"/>
      </contour>
      <contour>
        <pt x="438" y="0" on="1"/>
        <pt x="-8" y="0" on="1"/>
        <pt x="112" y="620" on="1"/>
        <pt x="364" y="620" on="1"/>
        <pt x="281" y="192" on="1"/>
        <pt x="475" y="192" on="1"/>
      </contour>
    </TTGlyph>
    <TTGlyph name="Lcaron.sc" xMin="-6" yMin="0" xMax="587" yMax="587">
      <contour>
        <pt x="394" y="587" on="1"/>
        <pt x="587" y="587" on="1"/>
        <pt x="565" y="520" on="0"/>
        <pt x="498" y="397" on="0"/>
        <pt x="453" y="340" on="1"/>
        <pt x="356" y="357" on="1"/>
        <pt x="369" y="414" on="0"/>
        <pt x="390" y="532" on="0"/>
      </contour>
      <contour>
        <pt x="421" y="0" on="1"/>
        <pt x="-6" y="0" on="1"/>
        <pt x="102" y="561" on="1"/>
        <pt x="343" y="561" on="1"/>
        <pt x="268" y="174" on="1"/>
        <pt x="454" y="174" on="1"/>
      </contour>
    </TTGlyph>
    <TTGlyph name="Lcommaaccent" xMin="-8" yMin="-318" xMax="475" yMax="620">
      <contour>
        <pt x="438" y="0" on="1"/>
        <pt x="-8" y="0" on="1"/>
        <pt x="112" y="620" on="1"/>
        <pt x="364" y="620" on="1"/>
        <pt x="281" y="192" on="1"/>
        <pt x="475" y="192" on="1"/>
      </contour>
      <contour>
        <pt x="25" y="-278" on="1"/>
        <pt x="45" y="-219" on="0"/>
        <pt x="70" y="-109" on="0"/>
        <pt x="71" y="-40" on="1"/>
        <pt x="308" y="-40" on="1"/>
        <pt x="292" y="-126" on="0"/>
        <pt x="208" y="-259" on="0"/>
        <pt x="115" y="-318" on="1"/>
      </contour>
    </TTGlyph>
    <TTGlyph name="Lcommaaccent.sc" xMin="-6" yMin="-318" xMax="454" yMax="561">
      <contour>
        <pt x="421" y="0" on="1"/>
        <pt x="-6" y="0" on="1"/>
        <pt x="102" y="561" on="1"/>
        <pt x="343" y="561" on="1"/>
        <pt x="268" y="174" on="1"/>
        <pt x="454" y="174" on="1"/>
      </contour>
      <contour>
        <pt x="30" y="-278" on="1"/>
        <pt x="50" y="-219" on="0"/>
        <pt x="75" y="-109" on="0"/>
        <pt x="76" y="-40" on="1"/>
        <pt x="313" y="-40" on="1"/>
        <pt x="297" y="-126" on="0"/>
        <pt x="213" y="-259" on="0"/>
        <pt x="120" y="-318" on="1"/>
      </contour>
    </TTGlyph>
    <TTGlyph name="Ldot" xMin="-8" yMin="0" xMax="546" yMax="620">
      <contour>
        <pt x="438" y="0" on="1"/>
        <pt x="-8" y="0" on="1"/>
        <pt x="112" y="620" on="1"/>
        <pt x="364" y="620" on="1"/>
        <pt x="281" y="192" on="1"/>
        <pt x="475" y="192" on="1"/>
      </contour>
      <contour>
        <pt x="508" y="270" on="1"/>
        <pt x="335" y="270" on="1"/>
        <pt x="373" y="463" on="1"/>
        <pt x="546" y="463" on="1"/>
      </contour>
    </TTGlyph>
    <TTGlyph name="Ldot.sc" xMin="-6" yMin="0" xMax="520" yMax="561">
      <contour>
        <pt x="421" y="0" on="1"/>
        <pt x="-6" y="0" on="1"/>
        <pt x="102" y="561" on="1"/>
        <pt x="343" y="561" on="1"/>
        <pt x="268" y="174" on="1"/>
        <pt x="454" y="174" on="1"/>
      </contour>
      <contour>
        <pt x="485" y="260" on="1"/>
        <pt x="328" y="260" on="1"/>
        <pt x="364" y="442" on="1"/>
        <pt x="520" y="442" on="1"/>
      </contour>
    </TTGlyph>
    <TTGlyph name="Lslash" xMin="-15" yMin="0" xMax="475" yMax="620">
      <contour>
        <pt x="438" y="0" on="1"/>
        <pt x="-8" y="0" on="1"/>
        <pt x="33" y="213" on="1"/>
        <pt x="-15" y="193" on="1"/>
        <pt x="-15" y="320" on="1"/>
        <pt x="60" y="351" on="1"/>
        <pt x="112" y="620" on="1"/>
        <pt x="364" y="620" on="1"/>
        <pt x="334" y="464" on="1"/>
        <pt x="413" y="497" on="1"/>
        <pt x="413" y="370" on="1"/>
        <pt x="307" y="326" on="1"/>
        <pt x="281" y="192" on="1"/>
        <pt x="475" y="192" on="1"/>
      </contour>
    </TTGlyph>
    <TTGlyph name="Lslash.sc" xMin="-14" yMin="0" xMax="454" yMax="561">
      <contour>
        <pt x="421" y="0" on="1"/>
        <pt x="-6" y="0" on="1"/>
        <pt x="32" y="195" on="1"/>
        <pt x="-14" y="176" on="1"/>
        <pt x="-14" y="293" on="1"/>
        <pt x="56" y="322" on="1"/>
        <pt x="102" y="561" on="1"/>
        <pt x="343" y="561" on="1"/>
        <pt x="318" y="431" on="1"/>
        <pt x="386" y="459" on="1"/>
        <pt x="386" y="342" on="1"/>
        <pt x="293" y="303" on="1"/>
        <pt x="268" y="174" on="1"/>
        <pt x="454" y="174" on="1"/>
      </contour>
    </TTGlyph>
    <TTGlyph name="M" xMin="-8" yMin="0" xMax="746" yMax="624">
      <contour>
        <pt x="366" y="624" on="1"/>
        <pt x="394" y="406" on="1"/>
        <pt x="398" y="406" on="1"/>
        <pt x="505" y="620" on="1"/>
        <pt x="746" y="620" on="1"/>
        <pt x="628" y="0" on="1"/>
        <pt x="407" y="0" on="1"/>
        <pt x="469" y="257" on="1"/>
        <pt x="463" y="257" on="1"/>
        <pt x="357" y="48" on="1"/>
        <pt x="278" y="48" on="1"/>
        <pt x="252" y="257" on="1"/>
        <pt x="246" y="257" on="1"/>
        <pt x="210" y="0" on="1"/>
        <pt x="-8" y="0" on="1"/>
        <pt x="111" y="616" on="1"/>
      </contour>
    </TTGlyph>
    <TTGlyph name="M.sc" xMin="-6" yMin="0" xMax="710" yMax="565">
      <contour>
        <pt x="345" y="565" on="1"/>
        <pt x="375" y="367" on="1"/>
        <pt x="378" y="367" on="1"/>
        <pt x="479" y="561" on="1"/>
        <pt x="710" y="561" on="1"/>
        <pt x="603" y="0" on="1"/>
        <pt x="393" y="0" on="1"/>
        <pt x="450" y="233" on="1"/>
        <pt x="444" y="233" on="1"/>
        <pt x="343" y="43" on="1"/>
        <pt x="268" y="43" on="1"/>
        <pt x="240" y="233" on="1"/>
        <pt x="235" y="233" on="1"/>
        <pt x="203" y="0" on="1"/>
        <pt x="-6" y="0" on="1"/>
        <pt x="101" y="557" on="1"/>
      </contour>
    </TTGlyph>
    <TTGlyph name="N" xMin="-8" yMin="0" xMax="682" yMax="620">
      <contour>
        <pt x="337" y="0" on="1"/>
        <pt x="262" y="221" on="1"/>
        <pt x="258" y="221" on="1"/>
        <pt x="217" y="0" on="1"/>
        <pt x="-8" y="0" on="1"/>
        <pt x="112" y="620" on="1"/>
        <pt x="322" y="620" on="1"/>
        <pt x="405" y="377" on="1"/>
        <pt x="409" y="377" on="1"/>
        <pt x="456" y="620" on="1"/>
        <pt x="682" y="620" on="1"/>
        <pt x="562" y="0" on="1"/>
      </contour>
    </TTGlyph>
    <TTGlyph name="N.sc" xMin="-6" yMin="0" xMax="648" yMax="561">
      <contour>
        <pt x="327" y="0" on="1"/>
        <pt x="250" y="202" on="1"/>
        <pt x="245" y="202" on="1"/>
        <pt x="209" y="0" on="1"/>
        <pt x="-6" y="0" on="1"/>
        <pt x="102" y="561" on="1"/>
        <pt x="301" y="561" on="1"/>
        <pt x="385" y="339" on="1"/>
        <pt x="391" y="339" on="1"/>
        <pt x="432" y="561" on="1"/>
        <pt x="648" y="561" on="1"/>
        <pt x="540" y="0" on="1"/>
      </contour>
    </TTGlyph>
    <TTGlyph name="Nacute" xMin="-8" yMin="0" xMax="682" yMax="916">
      <contour>
        <pt x="260" y="737" on="1"/>
        <pt x="335" y="778" on="0"/>
        <pt x="470" y="867" on="0"/>
        <pt x="533" y="916" on="1"/>
        <pt x="634" y="748" on="1"/>
        <pt x="553" y="702" on="0"/>
        <pt x="377" y="658" on="0"/>
        <pt x="286" y="647" on="1"/>
      </contour>
      <contour>
        <pt x="337" y="0" on="1"/>
        <pt x="262" y="221" on="1"/>
        <pt x="258" y="221" on="1"/>
        <pt x="217" y="0" on="1"/>
        <pt x="-8" y="0" on="1"/>
        <pt x="112" y="620" on="1"/>
        <pt x="322" y="620" on="1"/>
        <pt x="405" y="377" on="1"/>
        <pt x="409" y="377" on="1"/>
        <pt x="456" y="620" on="1"/>
        <pt x="682" y="620" on="1"/>
        <pt x="562" y="0" on="1"/>
      </contour>
    </TTGlyph>
    <TTGlyph name="Nacute.sc" xMin="-6" yMin="0" xMax="648" yMax="857">
      <contour>
        <pt x="239" y="678" on="1"/>
        <pt x="314" y="719" on="0"/>
        <pt x="449" y="808" on="0"/>
        <pt x="512" y="857" on="1"/>
        <pt x="613" y="689" on="1"/>
        <pt x="532" y="643" on="0"/>
        <pt x="356" y="599" on="0"/>
        <pt x="265" y="588" on="1"/>
      </contour>
      <contour>
        <pt x="327" y="0" on="1"/>
        <pt x="250" y="202" on="1"/>
        <pt x="245" y="202" on="1"/>
        <pt x="209" y="0" on="1"/>
        <pt x="-6" y="0" on="1"/>
        <pt x="102" y="561" on="1"/>
        <pt x="301" y="561" on="1"/>
        <pt x="385" y="339" on="1"/>
        <pt x="391" y="339" on="1"/>
        <pt x="432" y="561" on="1"/>
        <pt x="648" y="561" on="1"/>
        <pt x="540" y="0" on="1"/>
      </contour>
    </TTGlyph>
    <TTGlyph name="Ncaron" xMin="-8" yMin="0" xMax="682" yMax="899">
      <contour>
        <pt x="432" y="648" on="1"/>
        <pt x="378" y="648" on="1"/>
        <pt x="213" y="801" on="1"/>
        <pt x="336" y="899" on="1"/>
        <pt x="432" y="810" on="1"/>
        <pt x="572" y="896" on="1"/>
        <pt x="651" y="784" on="1"/>
      </contour>
      <contour>
        <pt x="337" y="0" on="1"/>
        <pt x="262" y="221" on="1"/>
        <pt x="258" y="221" on="1"/>
        <pt x="217" y="0" on="1"/>
        <pt x="-8" y="0" on="1"/>
        <pt x="112" y="620" on="1"/>
        <pt x="322" y="620" on="1"/>
        <pt x="405" y="377" on="1"/>
        <pt x="409" y="377" on="1"/>
        <pt x="456" y="620" on="1"/>
        <pt x="682" y="620" on="1"/>
        <pt x="562" y="0" on="1"/>
      </contour>
    </TTGlyph>
    <TTGlyph name="Ncaron.sc" xMin="-6" yMin="0" xMax="648" yMax="840">
      <contour>
        <pt x="411" y="589" on="1"/>
        <pt x="357" y="589" on="1"/>
        <pt x="192" y="742" on="1"/>
        <pt x="315" y="840" on="1"/>
        <pt x="411" y="751" on="1"/>
        <pt x="551" y="837" on="1"/>
        <pt x="630" y="725" on="1"/>
      </contour>
      <contour>
        <pt x="327" y="0" on="1"/>
        <pt x="250" y="202" on="1"/>
        <pt x="245" y="202" on="1"/>
        <pt x="209" y="0" on="1"/>
        <pt x="-6" y="0" on="1"/>
        <pt x="102" y="561" on="1"/>
        <pt x="301" y="561" on="1"/>
        <pt x="385" y="339" on="1"/>
        <pt x="391" y="339" on="1"/>
        <pt x="432" y="561" on="1"/>
        <pt x="648" y="561" on="1"/>
        <pt x="540" y="0" on="1"/>
      </contour>
    </TTGlyph>
    <TTGlyph name="Ncommaaccent" xMin="-8" yMin="-318" xMax="682" yMax="620">
      <contour>
        <pt x="337" y="0" on="1"/>
        <pt x="262" y="221" on="1"/>
        <pt x="258" y="221" on="1"/>
        <pt x="217" y="0" on="1"/>
        <pt x="-8" y="0" on="1"/>
        <pt x="112" y="620" on="1"/>
        <pt x="322" y="620" on="1"/>
        <pt x="405" y="377" on="1"/>
        <pt x="409" y="377" on="1"/>
        <pt x="456" y="620" on="1"/>
        <pt x="682" y="620" on="1"/>
        <pt x="562" y="0" on="1"/>
      </contour>
      <contour>
        <pt x="105" y="-278" on="1"/>
        <pt x="125" y="-219" on="0"/>
        <pt x="150" y="-109" on="0"/>
        <pt x="151" y="-40" on="1"/>
        <pt x="388" y="-40" on="1"/>
        <pt x="372" y="-126" on="0"/>
        <pt x="288" y="-259" on="0"/>
        <pt x="195" y="-318" on="1"/>
      </contour>
    </TTGlyph>
    <TTGlyph name="Ncommaaccent.sc" xMin="-6" yMin="-318" xMax="648" yMax="561">
      <contour>
        <pt x="327" y="0" on="1"/>
        <pt x="250" y="202" on="1"/>
        <pt x="245" y="202" on="1"/>
        <pt x="209" y="0" on="1"/>
        <pt x="-6" y="0" on="1"/>
        <pt x="102" y="561" on="1"/>
        <pt x="301" y="561" on="1"/>
        <pt x="385" y="339" on="1"/>
        <pt x="391" y="339" on="1"/>
        <pt x="432" y="561" on="1"/>
        <pt x="648" y="561" on="1"/>
        <pt x="540" y="0" on="1"/>
      </contour>
      <contour>
        <pt x="95" y="-278" on="1"/>
        <pt x="115" y="-219" on="0"/>
        <pt x="140" y="-109" on="0"/>
        <pt x="141" y="-40" on="1"/>
        <pt x="378" y="-40" on="1"/>
        <pt x="362" y="-126" on="0"/>
        <pt x="278" y="-259" on="0"/>
        <pt x="185" y="-318" on="1"/>
      </contour>
    </TTGlyph>
    <TTGlyph name="Ntilde" xMin="-8" yMin="0" xMax="682" yMax="885">
      <contour>
        <pt x="518" y="821" on="1"/>
        <pt x="529" y="821" on="0"/>
        <pt x="558" y="851" on="0"/>
        <pt x="580" y="885" on="1"/>
        <pt x="680" y="827" on="1"/>
        <pt x="637" y="747" on="0"/>
        <pt x="551" y="658" on="0"/>
        <pt x="499" y="658" on="1"/>
        <pt x="473" y="658" on="0"/>
        <pt x="426" y="678" on="0"/>
        <pt x="386" y="701" on="0"/>
        <pt x="354" y="721" on="0"/>
        <pt x="342" y="721" on="1"/>
        <pt x="330" y="721" on="0"/>
        <pt x="303" y="691" on="0"/>
        <pt x="280" y="657" on="1"/>
        <pt x="180" y="715" on="1"/>
        <pt x="221" y="792" on="0"/>
        <pt x="305" y="884" on="0"/>
        <pt x="357" y="884" on="1"/>
        <pt x="383" y="884" on="0"/>
        <pt x="431" y="864" on="0"/>
        <pt x="472" y="841" on="0"/>
        <pt x="506" y="821" on="0"/>
      </contour>
      <contour>
        <pt x="337" y="0" on="1"/>
        <pt x="262" y="221" on="1"/>
        <pt x="258" y="221" on="1"/>
        <pt x="217" y="0" on="1"/>
        <pt x="-8" y="0" on="1"/>
        <pt x="112" y="620" on="1"/>
        <pt x="322" y="620" on="1"/>
        <pt x="405" y="377" on="1"/>
        <pt x="409" y="377" on="1"/>
        <pt x="456" y="620" on="1"/>
        <pt x="682" y="620" on="1"/>
        <pt x="562" y="0" on="1"/>
      </contour>
    </TTGlyph>
    <TTGlyph name="Ntilde.sc" xMin="-6" yMin="0" xMax="659" yMax="826">
      <contour>
        <pt x="497" y="762" on="1"/>
        <pt x="508" y="762" on="0"/>
        <pt x="537" y="792" on="0"/>
        <pt x="559" y="826" on="1"/>
        <pt x="659" y="768" on="1"/>
        <pt x="616" y="688" on="0"/>
        <pt x="530" y="599" on="0"/>
        <pt x="478" y="599" on="1"/>
        <pt x="452" y="599" on="0"/>
        <pt x="405" y="619" on="0"/>
        <pt x="365" y="642" on="0"/>
        <pt x="333" y="662" on="0"/>
        <pt x="321" y="662" on="1"/>
        <pt x="309" y="662" on="0"/>
        <pt x="282" y="632" on="0"/>
        <pt x="259" y="598" on="1"/>
        <pt x="159" y="656" on="1"/>
        <pt x="200" y="733" on="0"/>
        <pt x="284" y="825" on="0"/>
        <pt x="336" y="825" on="1"/>
        <pt x="362" y="825" on="0"/>
        <pt x="410" y="805" on="0"/>
        <pt x="451" y="782" on="0"/>
        <pt x="485" y="762" on="0"/>
      </contour>
      <contour>
        <pt x="327" y="0" on="1"/>
        <pt x="250" y="202" on="1"/>
        <pt x="245" y="202" on="1"/>
        <pt x="209" y="0" on="1"/>
        <pt x="-6" y="0" on="1"/>
        <pt x="102" y="561" on="1"/>
        <pt x="301" y="561" on="1"/>
        <pt x="385" y="339" on="1"/>
        <pt x="391" y="339" on="1"/>
        <pt x="432" y="561" on="1"/>
        <pt x="648" y="561" on="1"/>
        <pt x="540" y="0" on="1"/>
      </contour>
    </TTGlyph>
    <TTGlyph name="O" xMin="24" yMin="-14" xMax="639" yMax="634">
      <contour>
        <pt x="381" y="634" on="1"/>
        <pt x="438" y="634" on="0"/>
        <pt x="534" y="598" on="0"/>
        <pt x="601" y="530" on="0"/>
        <pt x="639" y="431" on="0"/>
        <pt x="639" y="369" on="1"/>
        <pt x="639" y="291" on="0"/>
        <pt x="585" y="151" on="0"/>
        <pt x="490" y="47" on="0"/>
        <pt x="359" y="-14" on="0"/>
        <pt x="282" y="-14" on="1"/>
        <pt x="225" y="-14" on="0"/>
        <pt x="129" y="22" on="0"/>
        <pt x="62" y="90" on="0"/>
        <pt x="24" y="189" on="0"/>
        <pt x="24" y="251" on="1"/>
        <pt x="24" y="329" on="0"/>
        <pt x="78" y="469" on="0"/>
        <pt x="173" y="573" on="0"/>
        <pt x="304" y="634" on="0"/>
      </contour>
      <contour>
        <pt x="308" y="188" on="1"/>
        <pt x="323" y="188" on="0"/>
        <pt x="351" y="224" on="0"/>
        <pt x="371" y="279" on="0"/>
        <pt x="383" y="347" on="0"/>
        <pt x="383" y="379" on="1"/>
        <pt x="383" y="407" on="0"/>
        <pt x="368" y="432" on="0"/>
        <pt x="355" y="432" on="1"/>
        <pt x="339" y="432" on="0"/>
        <pt x="311" y="397" on="0"/>
        <pt x="291" y="342" on="0"/>
        <pt x="279" y="275" on="0"/>
        <pt x="279" y="244" on="1"/>
        <pt x="279" y="215" on="0"/>
        <pt x="294" y="188" on="0"/>
      </contour>
    </TTGlyph>
    <TTGlyph name="O.sc" xMin="22" yMin="-14" xMax="610" yMax="575">
      <contour>
        <pt x="360" y="575" on="1"/>
        <pt x="415" y="575" on="0"/>
        <pt x="507" y="541" on="0"/>
        <pt x="573" y="478" on="0"/>
        <pt x="610" y="386" on="0"/>
        <pt x="610" y="329" on="1"/>
        <pt x="610" y="259" on="0"/>
        <pt x="559" y="133" on="0"/>
        <pt x="469" y="41" on="0"/>
        <pt x="345" y="-14" on="0"/>
        <pt x="272" y="-14" on="1"/>
        <pt x="161" y="-14" on="0"/>
        <pt x="22" y="119" on="0"/>
        <pt x="22" y="233" on="1"/>
        <pt x="22" y="303" on="0"/>
        <pt x="73" y="428" on="0"/>
        <pt x="162" y="520" on="0"/>
        <pt x="287" y="575" on="0"/>
      </contour>
      <contour>
        <pt x="295" y="170" on="1"/>
        <pt x="309" y="170" on="0"/>
        <pt x="335" y="202" on="0"/>
        <pt x="354" y="250" on="0"/>
        <pt x="366" y="309" on="0"/>
        <pt x="366" y="336" on="1"/>
        <pt x="366" y="367" on="0"/>
        <pt x="350" y="391" on="0"/>
        <pt x="338" y="391" on="1"/>
        <pt x="323" y="391" on="0"/>
        <pt x="297" y="360" on="0"/>
        <pt x="277" y="311" on="0"/>
        <pt x="266" y="252" on="0"/>
        <pt x="266" y="225" on="1"/>
        <pt x="266" y="195" on="0"/>
        <pt x="282" y="170" on="0"/>
      </contour>
    </TTGlyph>
    <TTGlyph name="OE" xMin="24" yMin="0" xMax="845" yMax="620">
      <contour>
        <pt x="263" y="269" on="1"/>
        <pt x="263" y="229" on="0"/>
        <pt x="292" y="188" on="0"/>
        <pt x="325" y="184" on="1"/>
        <pt x="372" y="437" on="1"/>
        <pt x="320" y="430" on="0"/>
        <pt x="263" y="332" on="0"/>
      </contour>
      <contour>
        <pt x="769" y="182" on="1"/>
        <pt x="723" y="0" on="1"/>
        <pt x="378" y="0" on="1"/>
        <pt x="299" y="0" on="0"/>
        <pt x="168" y="24" on="0"/>
        <pt x="75" y="81" on="0"/>
        <pt x="24" y="177" on="0"/>
        <pt x="24" y="248" on="1"/>
        <pt x="24" y="322" on="0"/>
        <pt x="75" y="458" on="0"/>
        <pt x="182" y="559" on="0"/>
        <pt x="354" y="620" on="0"/>
        <pt x="473" y="620" on="1"/>
        <pt x="845" y="620" on="1"/>
        <pt x="810" y="438" on="1"/>
        <pt x="603" y="438" on="1"/>
        <pt x="592" y="379" on="1"/>
        <pt x="747" y="379" on="1"/>
        <pt x="721" y="242" on="1"/>
        <pt x="566" y="242" on="1"/>
        <pt x="555" y="182" on="1"/>
      </contour>
    </TTGlyph>
    <TTGlyph name="OE.sc" xMin="18" yMin="0" xMax="799" yMax="561">
      <contour>
        <pt x="731" y="165" on="1"/>
        <pt x="689" y="0" on="1"/>
        <pt x="350" y="0" on="1"/>
        <pt x="187" y="0" on="0"/>
        <pt x="18" y="122" on="0"/>
        <pt x="18" y="238" on="1"/>
        <pt x="18" y="300" on="0"/>
        <pt x="62" y="417" on="0"/>
        <pt x="162" y="507" on="0"/>
        <pt x="325" y="561" on="0"/>
        <pt x="442" y="561" on="1"/>
        <pt x="799" y="561" on="1"/>
        <pt x="768" y="396" on="1"/>
        <pt x="570" y="396" on="1"/>
        <pt x="559" y="343" on="1"/>
        <pt x="708" y="343" on="1"/>
        <pt x="684" y="219" on="1"/>
        <pt x="535" y="219" on="1"/>
        <pt x="524" y="165" on="1"/>
      </contour>
      <contour>
        <pt x="246" y="243" on="1"/>
        <pt x="246" y="203" on="0"/>
        <pt x="276" y="169" on="0"/>
        <pt x="307" y="165" on="1"/>
        <pt x="351" y="395" on="1"/>
        <pt x="297" y="386" on="0"/>
        <pt x="246" y="300" on="0"/>
      </contour>
    </TTGlyph>
    <TTGlyph name="Oacute" xMin="24" yMin="-14" xMax="639" yMax="923">
      <contour>
        <pt x="253" y="744" on="1"/>
        <pt x="328" y="785" on="0"/>
        <pt x="463" y="874" on="0"/>
        <pt x="526" y="923" on="1"/>
        <pt x="627" y="755" on="1"/>
        <pt x="546" y="709" on="0"/>
        <pt x="370" y="665" on="0"/>
        <pt x="279" y="654" on="1"/>
      </contour>
      <contour>
        <pt x="381" y="634" on="1"/>
        <pt x="438" y="634" on="0"/>
        <pt x="534" y="598" on="0"/>
        <pt x="601" y="530" on="0"/>
        <pt x="639" y="431" on="0"/>
        <pt x="639" y="369" on="1"/>
        <pt x="639" y="291" on="0"/>
        <pt x="585" y="151" on="0"/>
        <pt x="490" y="47" on="0"/>
        <pt x="359" y="-14" on="0"/>
        <pt x="282" y="-14" on="1"/>
        <pt x="225" y="-14" on="0"/>
        <pt x="129" y="22" on="0"/>
        <pt x="62" y="90" on="0"/>
        <pt x="24" y="189" on="0"/>
        <pt x="24" y="251" on="1"/>
        <pt x="24" y="329" on="0"/>
        <pt x="78" y="469" on="0"/>
        <pt x="173" y="573" on="0"/>
        <pt x="304" y="634" on="0"/>
      </contour>
      <contour>
        <pt x="308" y="188" on="1"/>
        <pt x="323" y="188" on="0"/>
        <pt x="351" y="224" on="0"/>
        <pt x="371" y="279" on="0"/>
        <pt x="383" y="347" on="0"/>
        <pt x="383" y="379" on="1"/>
        <pt x="383" y="407" on="0"/>
        <pt x="368" y="432" on="0"/>
        <pt x="355" y="432" on="1"/>
        <pt x="339" y="432" on="0"/>
        <pt x="311" y="397" on="0"/>
        <pt x="291" y="342" on="0"/>
        <pt x="279" y="275" on="0"/>
        <pt x="279" y="244" on="1"/>
        <pt x="279" y="215" on="0"/>
        <pt x="294" y="188" on="0"/>
      </contour>
    </TTGlyph>
    <TTGlyph name="Oacute.sc" xMin="22" yMin="-14" xMax="610" yMax="864">
      <contour>
        <pt x="231" y="685" on="1"/>
        <pt x="306" y="726" on="0"/>
        <pt x="441" y="815" on="0"/>
        <pt x="504" y="864" on="1"/>
        <pt x="605" y="696" on="1"/>
        <pt x="524" y="650" on="0"/>
        <pt x="348" y="606" on="0"/>
        <pt x="257" y="595" on="1"/>
      </contour>
      <contour>
        <pt x="360" y="575" on="1"/>
        <pt x="415" y="575" on="0"/>
        <pt x="507" y="541" on="0"/>
        <pt x="573" y="478" on="0"/>
        <pt x="610" y="386" on="0"/>
        <pt x="610" y="329" on="1"/>
        <pt x="610" y="259" on="0"/>
        <pt x="559" y="133" on="0"/>
        <pt x="469" y="41" on="0"/>
        <pt x="345" y="-14" on="0"/>
        <pt x="272" y="-14" on="1"/>
        <pt x="161" y="-14" on="0"/>
        <pt x="22" y="119" on="0"/>
        <pt x="22" y="233" on="1"/>
        <pt x="22" y="303" on="0"/>
        <pt x="73" y="428" on="0"/>
        <pt x="162" y="520" on="0"/>
        <pt x="287" y="575" on="0"/>
      </contour>
      <contour>
        <pt x="295" y="170" on="1"/>
        <pt x="309" y="170" on="0"/>
        <pt x="335" y="202" on="0"/>
        <pt x="354" y="250" on="0"/>
        <pt x="366" y="309" on="0"/>
        <pt x="366" y="336" on="1"/>
        <pt x="366" y="367" on="0"/>
        <pt x="350" y="391" on="0"/>
        <pt x="338" y="391" on="1"/>
        <pt x="323" y="391" on="0"/>
        <pt x="297" y="360" on="0"/>
        <pt x="277" y="311" on="0"/>
        <pt x="266" y="252" on="0"/>
        <pt x="266" y="225" on="1"/>
        <pt x="266" y="195" on="0"/>
        <pt x="282" y="170" on="0"/>
      </contour>
    </TTGlyph>
    <TTGlyph name="Obreve" xMin="24" yMin="-14" xMax="652" yMax="894">
      <contour>
        <pt x="551" y="894" on="1"/>
        <pt x="652" y="821" on="1"/>
        <pt x="628" y="789" on="0"/>
        <pt x="573" y="729" on="0"/>
        <pt x="511" y="685" on="0"/>
        <pt x="441" y="659" on="0"/>
        <pt x="403" y="659" on="1"/>
        <pt x="332" y="659" on="0"/>
        <pt x="234" y="753" on="0"/>
        <pt x="210" y="823" on="1"/>
        <pt x="350" y="894" on="1"/>
        <pt x="366" y="864" on="0"/>
        <pt x="411" y="828" on="0"/>
        <pt x="437" y="828" on="1"/>
        <pt x="462" y="828" on="0"/>
        <pt x="521" y="863" on="0"/>
      </contour>
      <contour>
        <pt x="381" y="634" on="1"/>
        <pt x="438" y="634" on="0"/>
        <pt x="534" y="598" on="0"/>
        <pt x="601" y="530" on="0"/>
        <pt x="639" y="431" on="0"/>
        <pt x="639" y="369" on="1"/>
        <pt x="639" y="291" on="0"/>
        <pt x="585" y="151" on="0"/>
        <pt x="490" y="47" on="0"/>
        <pt x="359" y="-14" on="0"/>
        <pt x="282" y="-14" on="1"/>
        <pt x="225" y="-14" on="0"/>
        <pt x="129" y="22" on="0"/>
        <pt x="62" y="90" on="0"/>
        <pt x="24" y="189" on="0"/>
        <pt x="24" y="251" on="1"/>
        <pt x="24" y="329" on="0"/>
        <pt x="78" y="469" on="0"/>
        <pt x="173" y="573" on="0"/>
        <pt x="304" y="634" on="0"/>
      </contour>
      <contour>
        <pt x="308" y="188" on="1"/>
        <pt x="323" y="188" on="0"/>
        <pt x="351" y="224" on="0"/>
        <pt x="371" y="279" on="0"/>
        <pt x="383" y="347" on="0"/>
        <pt x="383" y="379" on="1"/>
        <pt x="383" y="407" on="0"/>
        <pt x="368" y="432" on="0"/>
        <pt x="355" y="432" on="1"/>
        <pt x="339" y="432" on="0"/>
        <pt x="311" y="397" on="0"/>
        <pt x="291" y="342" on="0"/>
        <pt x="279" y="275" on="0"/>
        <pt x="279" y="244" on="1"/>
        <pt x="279" y="215" on="0"/>
        <pt x="294" y="188" on="0"/>
      </contour>
    </TTGlyph>
    <TTGlyph name="Obreve.sc" xMin="22" yMin="-14" xMax="630" yMax="835">
      <contour>
        <pt x="529" y="835" on="1"/>
        <pt x="630" y="762" on="1"/>
        <pt x="606" y="730" on="0"/>
        <pt x="551" y="670" on="0"/>
        <pt x="489" y="626" on="0"/>
        <pt x="419" y="600" on="0"/>
        <pt x="381" y="600" on="1"/>
        <pt x="310" y="600" on="0"/>
        <pt x="212" y="694" on="0"/>
        <pt x="188" y="764" on="1"/>
        <pt x="328" y="835" on="1"/>
        <pt x="344" y="805" on="0"/>
        <pt x="389" y="769" on="0"/>
        <pt x="415" y="769" on="1"/>
        <pt x="440" y="769" on="0"/>
        <pt x="499" y="804" on="0"/>
      </contour>
      <contour>
        <pt x="360" y="575" on="1"/>
        <pt x="415" y="575" on="0"/>
        <pt x="507" y="541" on="0"/>
        <pt x="573" y="478" on="0"/>
        <pt x="610" y="386" on="0"/>
        <pt x="610" y="329" on="1"/>
        <pt x="610" y="259" on="0"/>
        <pt x="559" y="133" on="0"/>
        <pt x="469" y="41" on="0"/>
        <pt x="345" y="-14" on="0"/>
        <pt x="272" y="-14" on="1"/>
        <pt x="161" y="-14" on="0"/>
        <pt x="22" y="119" on="0"/>
        <pt x="22" y="233" on="1"/>
        <pt x="22" y="303" on="0"/>
        <pt x="73" y="428" on="0"/>
        <pt x="162" y="520" on="0"/>
        <pt x="287" y="575" on="0"/>
      </contour>
      <contour>
        <pt x="295" y="170" on="1"/>
        <pt x="309" y="170" on="0"/>
        <pt x="335" y="202" on="0"/>
        <pt x="354" y="250" on="0"/>
        <pt x="366" y="309" on="0"/>
        <pt x="366" y="336" on="1"/>
        <pt x="366" y="367" on="0"/>
        <pt x="350" y="391" on="0"/>
        <pt x="338" y="391" on="1"/>
        <pt x="323" y="391" on="0"/>
        <pt x="297" y="360" on="0"/>
        <pt x="277" y="311" on="0"/>
        <pt x="266" y="252" on="0"/>
        <pt x="266" y="225" on="1"/>
        <pt x="266" y="195" on="0"/>
        <pt x="282" y="170" on="0"/>
      </contour>
    </TTGlyph>
    <TTGlyph name="Ocircumflex" xMin="24" yMin="-14" xMax="639" yMax="901">
      <contour>
        <pt x="513" y="650" on="1"/>
        <pt x="417" y="739" on="1"/>
        <pt x="277" y="653" on="1"/>
        <pt x="198" y="765" on="1"/>
        <pt x="417" y="901" on="1"/>
        <pt x="471" y="901" on="1"/>
        <pt x="636" y="748" on="1"/>
      </contour>
      <contour>
        <pt x="381" y="634" on="1"/>
        <pt x="438" y="634" on="0"/>
        <pt x="534" y="598" on="0"/>
        <pt x="601" y="530" on="0"/>
        <pt x="639" y="431" on="0"/>
        <pt x="639" y="369" on="1"/>
        <pt x="639" y="291" on="0"/>
        <pt x="585" y="151" on="0"/>
        <pt x="490" y="47" on="0"/>
        <pt x="359" y="-14" on="0"/>
        <pt x="282" y="-14" on="1"/>
        <pt x="225" y="-14" on="0"/>
        <pt x="129" y="22" on="0"/>
        <pt x="62" y="90" on="0"/>
        <pt x="24" y="189" on="0"/>
        <pt x="24" y="251" on="1"/>
        <pt x="24" y="329" on="0"/>
        <pt x="78" y="469" on="0"/>
        <pt x="173" y="573" on="0"/>
        <pt x="304" y="634" on="0"/>
      </contour>
      <contour>
        <pt x="308" y="188" on="1"/>
        <pt x="323" y="188" on="0"/>
        <pt x="351" y="224" on="0"/>
        <pt x="371" y="279" on="0"/>
        <pt x="383" y="347" on="0"/>
        <pt x="383" y="379" on="1"/>
        <pt x="383" y="407" on="0"/>
        <pt x="368" y="432" on="0"/>
        <pt x="355" y="432" on="1"/>
        <pt x="339" y="432" on="0"/>
        <pt x="311" y="397" on="0"/>
        <pt x="291" y="342" on="0"/>
        <pt x="279" y="275" on="0"/>
        <pt x="279" y="244" on="1"/>
        <pt x="279" y="215" on="0"/>
        <pt x="294" y="188" on="0"/>
      </contour>
    </TTGlyph>
    <TTGlyph name="Ocircumflex.sc" xMin="22" yMin="-14" xMax="614" yMax="842">
      <contour>
        <pt x="491" y="591" on="1"/>
        <pt x="395" y="680" on="1"/>
        <pt x="255" y="594" on="1"/>
        <pt x="176" y="706" on="1"/>
        <pt x="395" y="842" on="1"/>
        <pt x="449" y="842" on="1"/>
        <pt x="614" y="689" on="1"/>
      </contour>
      <contour>
        <pt x="360" y="575" on="1"/>
        <pt x="415" y="575" on="0"/>
        <pt x="507" y="541" on="0"/>
        <pt x="573" y="478" on="0"/>
        <pt x="610" y="386" on="0"/>
        <pt x="610" y="329" on="1"/>
        <pt x="610" y="259" on="0"/>
        <pt x="559" y="133" on="0"/>
        <pt x="469" y="41" on="0"/>
        <pt x="345" y="-14" on="0"/>
        <pt x="272" y="-14" on="1"/>
        <pt x="161" y="-14" on="0"/>
        <pt x="22" y="119" on="0"/>
        <pt x="22" y="233" on="1"/>
        <pt x="22" y="303" on="0"/>
        <pt x="73" y="428" on="0"/>
        <pt x="162" y="520" on="0"/>
        <pt x="287" y="575" on="0"/>
      </contour>
      <contour>
        <pt x="295" y="170" on="1"/>
        <pt x="309" y="170" on="0"/>
        <pt x="335" y="202" on="0"/>
        <pt x="354" y="250" on="0"/>
        <pt x="366" y="309" on="0"/>
        <pt x="366" y="336" on="1"/>
        <pt x="366" y="367" on="0"/>
        <pt x="350" y="391" on="0"/>
        <pt x="338" y="391" on="1"/>
        <pt x="323" y="391" on="0"/>
        <pt x="297" y="360" on="0"/>
        <pt x="277" y="311" on="0"/>
        <pt x="266" y="252" on="0"/>
        <pt x="266" y="225" on="1"/>
        <pt x="266" y="195" on="0"/>
        <pt x="282" y="170" on="0"/>
      </contour>
    </TTGlyph>
    <TTGlyph name="Odieresis" xMin="24" yMin="-14" xMax="670" yMax="851">
      <contour>
        <pt x="623" y="674" on="1"/>
        <pt x="421" y="674" on="1"/>
        <pt x="460" y="849" on="1"/>
        <pt x="670" y="851" on="1"/>
      </contour>
      <contour>
        <pt x="371" y="674" on="1"/>
        <pt x="169" y="674" on="1"/>
        <pt x="208" y="846" on="1"/>
        <pt x="418" y="849" on="1"/>
      </contour>
      <contour>
        <pt x="381" y="634" on="1"/>
        <pt x="438" y="634" on="0"/>
        <pt x="534" y="598" on="0"/>
        <pt x="601" y="530" on="0"/>
        <pt x="639" y="431" on="0"/>
        <pt x="639" y="369" on="1"/>
        <pt x="639" y="291" on="0"/>
        <pt x="585" y="151" on="0"/>
        <pt x="490" y="47" on="0"/>
        <pt x="359" y="-14" on="0"/>
        <pt x="282" y="-14" on="1"/>
        <pt x="225" y="-14" on="0"/>
        <pt x="129" y="22" on="0"/>
        <pt x="62" y="90" on="0"/>
        <pt x="24" y="189" on="0"/>
        <pt x="24" y="251" on="1"/>
        <pt x="24" y="329" on="0"/>
        <pt x="78" y="469" on="0"/>
        <pt x="173" y="573" on="0"/>
        <pt x="304" y="634" on="0"/>
      </contour>
      <contour>
        <pt x="308" y="188" on="1"/>
        <pt x="323" y="188" on="0"/>
        <pt x="351" y="224" on="0"/>
        <pt x="371" y="279" on="0"/>
        <pt x="383" y="347" on="0"/>
        <pt x="383" y="379" on="1"/>
        <pt x="383" y="407" on="0"/>
        <pt x="368" y="432" on="0"/>
        <pt x="355" y="432" on="1"/>
        <pt x="339" y="432" on="0"/>
        <pt x="311" y="397" on="0"/>
        <pt x="291" y="342" on="0"/>
        <pt x="279" y="275" on="0"/>
        <pt x="279" y="244" on="1"/>
        <pt x="279" y="215" on="0"/>
        <pt x="294" y="188" on="0"/>
      </contour>
    </TTGlyph>
    <TTGlyph name="Odieresis.sc" xMin="22" yMin="-14" xMax="648" yMax="792">
      <contour>
        <pt x="601" y="615" on="1"/>
        <pt x="399" y="615" on="1"/>
        <pt x="438" y="790" on="1"/>
        <pt x="648" y="792" on="1"/>
      </contour>
      <contour>
        <pt x="349" y="615" on="1"/>
        <pt x="147" y="615" on="1"/>
        <pt x="186" y="787" on="1"/>
        <pt x="396" y="790" on="1"/>
      </contour>
      <contour>
        <pt x="360" y="575" on="1"/>
        <pt x="415" y="575" on="0"/>
        <pt x="507" y="541" on="0"/>
        <pt x="573" y="478" on="0"/>
        <pt x="610" y="386" on="0"/>
        <pt x="610" y="329" on="1"/>
        <pt x="610" y="259" on="0"/>
        <pt x="559" y="133" on="0"/>
        <pt x="469" y="41" on="0"/>
        <pt x="345" y="-14" on="0"/>
        <pt x="272" y="-14" on="1"/>
        <pt x="161" y="-14" on="0"/>
        <pt x="22" y="119" on="0"/>
        <pt x="22" y="233" on="1"/>
        <pt x="22" y="303" on="0"/>
        <pt x="73" y="428" on="0"/>
        <pt x="162" y="520" on="0"/>
        <pt x="287" y="575" on="0"/>
      </contour>
      <contour>
        <pt x="295" y="170" on="1"/>
        <pt x="309" y="170" on="0"/>
        <pt x="335" y="202" on="0"/>
        <pt x="354" y="250" on="0"/>
        <pt x="366" y="309" on="0"/>
        <pt x="366" y="336" on="1"/>
        <pt x="366" y="367" on="0"/>
        <pt x="350" y="391" on="0"/>
        <pt x="338" y="391" on="1"/>
        <pt x="323" y="391" on="0"/>
        <pt x="297" y="360" on="0"/>
        <pt x="277" y="311" on="0"/>
        <pt x="266" y="252" on="0"/>
        <pt x="266" y="225" on="1"/>
        <pt x="266" y="195" on="0"/>
        <pt x="282" y="170" on="0"/>
      </contour>
    </TTGlyph>
    <TTGlyph name="Ograve" xMin="24" yMin="-14" xMax="639" yMax="923">
      <contour>
        <pt x="563" y="744" on="1"/>
        <pt x="537" y="654" on="1"/>
        <pt x="446" y="665" on="0"/>
        <pt x="270" y="709" on="0"/>
        <pt x="189" y="755" on="1"/>
        <pt x="290" y="923" on="1"/>
        <pt x="353" y="874" on="0"/>
        <pt x="488" y="785" on="0"/>
      </contour>
      <contour>
        <pt x="381" y="634" on="1"/>
        <pt x="438" y="634" on="0"/>
        <pt x="534" y="598" on="0"/>
        <pt x="601" y="530" on="0"/>
        <pt x="639" y="431" on="0"/>
        <pt x="639" y="369" on="1"/>
        <pt x="639" y="291" on="0"/>
        <pt x="585" y="151" on="0"/>
        <pt x="490" y="47" on="0"/>
        <pt x="359" y="-14" on="0"/>
        <pt x="282" y="-14" on="1"/>
        <pt x="225" y="-14" on="0"/>
        <pt x="129" y="22" on="0"/>
        <pt x="62" y="90" on="0"/>
        <pt x="24" y="189" on="0"/>
        <pt x="24" y="251" on="1"/>
        <pt x="24" y="329" on="0"/>
        <pt x="78" y="469" on="0"/>
        <pt x="173" y="573" on="0"/>
        <pt x="304" y="634" on="0"/>
      </contour>
      <contour>
        <pt x="308" y="188" on="1"/>
        <pt x="323" y="188" on="0"/>
        <pt x="351" y="224" on="0"/>
        <pt x="371" y="279" on="0"/>
        <pt x="383" y="347" on="0"/>
        <pt x="383" y="379" on="1"/>
        <pt x="383" y="407" on="0"/>
        <pt x="368" y="432" on="0"/>
        <pt x="355" y="432" on="1"/>
        <pt x="339" y="432" on="0"/>
        <pt x="311" y="397" on="0"/>
        <pt x="291" y="342" on="0"/>
        <pt x="279" y="275" on="0"/>
        <pt x="279" y="244" on="1"/>
        <pt x="279" y="215" on="0"/>
        <pt x="294" y="188" on="0"/>
      </contour>
    </TTGlyph>
    <TTGlyph name="Ograve.sc" xMin="22" yMin="-14" xMax="610" yMax="864">
      <contour>
        <pt x="541" y="685" on="1"/>
        <pt x="515" y="595" on="1"/>
        <pt x="424" y="606" on="0"/>
        <pt x="248" y="650" on="0"/>
        <pt x="167" y="696" on="1"/>
        <pt x="268" y="864" on="1"/>
        <pt x="331" y="815" on="0"/>
        <pt x="466" y="726" on="0"/>
      </contour>
      <contour>
        <pt x="360" y="575" on="1"/>
        <pt x="415" y="575" on="0"/>
        <pt x="507" y="541" on="0"/>
        <pt x="573" y="478" on="0"/>
        <pt x="610" y="386" on="0"/>
        <pt x="610" y="329" on="1"/>
        <pt x="610" y="259" on="0"/>
        <pt x="559" y="133" on="0"/>
        <pt x="469" y="41" on="0"/>
        <pt x="345" y="-14" on="0"/>
        <pt x="272" y="-14" on="1"/>
        <pt x="161" y="-14" on="0"/>
        <pt x="22" y="119" on="0"/>
        <pt x="22" y="233" on="1"/>
        <pt x="22" y="303" on="0"/>
        <pt x="73" y="428" on="0"/>
        <pt x="162" y="520" on="0"/>
        <pt x="287" y="575" on="0"/>
      </contour>
      <contour>
        <pt x="295" y="170" on="1"/>
        <pt x="309" y="170" on="0"/>
        <pt x="335" y="202" on="0"/>
        <pt x="354" y="250" on="0"/>
        <pt x="366" y="309" on="0"/>
        <pt x="366" y="336" on="1"/>
        <pt x="366" y="367" on="0"/>
        <pt x="350" y="391" on="0"/>
        <pt x="338" y="391" on="1"/>
        <pt x="323" y="391" on="0"/>
        <pt x="297" y="360" on="0"/>
        <pt x="277" y="311" on="0"/>
        <pt x="266" y="252" on="0"/>
        <pt x="266" y="225" on="1"/>
        <pt x="266" y="195" on="0"/>
        <pt x="282" y="170" on="0"/>
      </contour>
    </TTGlyph>
    <TTGlyph name="Ohungarumlaut" xMin="24" yMin="-14" xMax="728" yMax="944">
      <contour>
        <pt x="256" y="654" on="1"/>
        <pt x="186" y="714" on="1"/>
        <pt x="226" y="771" on="0"/>
        <pt x="294" y="886" on="0"/>
        <pt x="323" y="944" on="1"/>
        <pt x="488" y="841" on="1"/>
        <pt x="442" y="786" on="0"/>
        <pt x="322" y="693" on="0"/>
      </contour>
      <contour>
        <pt x="503" y="654" on="1"/>
        <pt x="433" y="714" on="1"/>
        <pt x="471" y="769" on="0"/>
        <pt x="535" y="878" on="0"/>
        <pt x="563" y="934" on="1"/>
        <pt x="728" y="831" on="1"/>
        <pt x="683" y="779" on="0"/>
        <pt x="567" y="691" on="0"/>
      </contour>
      <contour>
        <pt x="381" y="634" on="1"/>
        <pt x="438" y="634" on="0"/>
        <pt x="534" y="598" on="0"/>
        <pt x="601" y="530" on="0"/>
        <pt x="639" y="431" on="0"/>
        <pt x="639" y="369" on="1"/>
        <pt x="639" y="291" on="0"/>
        <pt x="585" y="151" on="0"/>
        <pt x="490" y="47" on="0"/>
        <pt x="359" y="-14" on="0"/>
        <pt x="282" y="-14" on="1"/>
        <pt x="225" y="-14" on="0"/>
        <pt x="129" y="22" on="0"/>
        <pt x="62" y="90" on="0"/>
        <pt x="24" y="189" on="0"/>
        <pt x="24" y="251" on="1"/>
        <pt x="24" y="329" on="0"/>
        <pt x="78" y="469" on="0"/>
        <pt x="173" y="573" on="0"/>
        <pt x="304" y="634" on="0"/>
      </contour>
      <contour>
        <pt x="308" y="188" on="1"/>
        <pt x="323" y="188" on="0"/>
        <pt x="351" y="224" on="0"/>
        <pt x="371" y="279" on="0"/>
        <pt x="383" y="347" on="0"/>
        <pt x="383" y="379" on="1"/>
        <pt x="383" y="407" on="0"/>
        <pt x="368" y="432" on="0"/>
        <pt x="355" y="432" on="1"/>
        <pt x="339" y="432" on="0"/>
        <pt x="311" y="397" on="0"/>
        <pt x="291" y="342" on="0"/>
        <pt x="279" y="275" on="0"/>
        <pt x="279" y="244" on="1"/>
        <pt x="279" y="215" on="0"/>
        <pt x="294" y="188" on="0"/>
      </contour>
    </TTGlyph>
    <TTGlyph name="Ohungarumlaut.sc" xMin="22" yMin="-14" xMax="706" yMax="885">
      <contour>
        <pt x="234" y="595" on="1"/>
        <pt x="164" y="655" on="1"/>
        <pt x="204" y="712" on="0"/>
        <pt x="272" y="827" on="0"/>
        <pt x="301" y="885" on="1"/>
        <pt x="466" y="782" on="1"/>
        <pt x="420" y="727" on="0"/>
        <pt x="300" y="634" on="0"/>
      </contour>
      <contour>
        <pt x="481" y="595" on="1"/>
        <pt x="411" y="655" on="1"/>
        <pt x="449" y="710" on="0"/>
        <pt x="513" y="819" on="0"/>
        <pt x="541" y="875" on="1"/>
        <pt x="706" y="772" on="1"/>
        <pt x="661" y="720" on="0"/>
        <pt x="545" y="632" on="0"/>
      </contour>
      <contour>
        <pt x="360" y="575" on="1"/>
        <pt x="415" y="575" on="0"/>
        <pt x="507" y="541" on="0"/>
        <pt x="573" y="478" on="0"/>
        <pt x="610" y="386" on="0"/>
        <pt x="610" y="329" on="1"/>
        <pt x="610" y="259" on="0"/>
        <pt x="559" y="133" on="0"/>
        <pt x="469" y="41" on="0"/>
        <pt x="345" y="-14" on="0"/>
        <pt x="272" y="-14" on="1"/>
        <pt x="161" y="-14" on="0"/>
        <pt x="22" y="119" on="0"/>
        <pt x="22" y="233" on="1"/>
        <pt x="22" y="303" on="0"/>
        <pt x="73" y="428" on="0"/>
        <pt x="162" y="520" on="0"/>
        <pt x="287" y="575" on="0"/>
      </contour>
      <contour>
        <pt x="295" y="170" on="1"/>
        <pt x="309" y="170" on="0"/>
        <pt x="335" y="202" on="0"/>
        <pt x="354" y="250" on="0"/>
        <pt x="366" y="309" on="0"/>
        <pt x="366" y="336" on="1"/>
        <pt x="366" y="367" on="0"/>
        <pt x="350" y="391" on="0"/>
        <pt x="338" y="391" on="1"/>
        <pt x="323" y="391" on="0"/>
        <pt x="297" y="360" on="0"/>
        <pt x="277" y="311" on="0"/>
        <pt x="266" y="252" on="0"/>
        <pt x="266" y="225" on="1"/>
        <pt x="266" y="195" on="0"/>
        <pt x="282" y="170" on="0"/>
      </contour>
    </TTGlyph>
    <TTGlyph name="Omacron" xMin="24" yMin="-14" xMax="639" yMax="859">
      <contour>
        <pt x="638" y="859" on="1"/>
        <pt x="603" y="677" on="1"/>
        <pt x="203" y="677" on="1"/>
        <pt x="238" y="859" on="1"/>
      </contour>
      <contour>
        <pt x="381" y="634" on="1"/>
        <pt x="438" y="634" on="0"/>
        <pt x="534" y="598" on="0"/>
        <pt x="601" y="530" on="0"/>
        <pt x="639" y="431" on="0"/>
        <pt x="639" y="369" on="1"/>
        <pt x="639" y="291" on="0"/>
        <pt x="585" y="151" on="0"/>
        <pt x="490" y="47" on="0"/>
        <pt x="359" y="-14" on="0"/>
        <pt x="282" y="-14" on="1"/>
        <pt x="225" y="-14" on="0"/>
        <pt x="129" y="22" on="0"/>
        <pt x="62" y="90" on="0"/>
        <pt x="24" y="189" on="0"/>
        <pt x="24" y="251" on="1"/>
        <pt x="24" y="329" on="0"/>
        <pt x="78" y="469" on="0"/>
        <pt x="173" y="573" on="0"/>
        <pt x="304" y="634" on="0"/>
      </contour>
      <contour>
        <pt x="308" y="188" on="1"/>
        <pt x="323" y="188" on="0"/>
        <pt x="351" y="224" on="0"/>
        <pt x="371" y="279" on="0"/>
        <pt x="383" y="347" on="0"/>
        <pt x="383" y="379" on="1"/>
        <pt x="383" y="407" on="0"/>
        <pt x="368" y="432" on="0"/>
        <pt x="355" y="432" on="1"/>
        <pt x="339" y="432" on="0"/>
        <pt x="311" y="397" on="0"/>
        <pt x="291" y="342" on="0"/>
        <pt x="279" y="275" on="0"/>
        <pt x="279" y="244" on="1"/>
        <pt x="279" y="215" on="0"/>
        <pt x="294" y="188" on="0"/>
      </contour>
    </TTGlyph>
    <TTGlyph name="Omacron.sc" xMin="22" yMin="-14" xMax="616" yMax="800">
      <contour>
        <pt x="616" y="800" on="1"/>
        <pt x="581" y="618" on="1"/>
        <pt x="181" y="618" on="1"/>
        <pt x="216" y="800" on="1"/>
      </contour>
      <contour>
        <pt x="360" y="575" on="1"/>
        <pt x="415" y="575" on="0"/>
        <pt x="507" y="541" on="0"/>
        <pt x="573" y="478" on="0"/>
        <pt x="610" y="386" on="0"/>
        <pt x="610" y="329" on="1"/>
        <pt x="610" y="259" on="0"/>
        <pt x="559" y="133" on="0"/>
        <pt x="469" y="41" on="0"/>
        <pt x="345" y="-14" on="0"/>
        <pt x="272" y="-14" on="1"/>
        <pt x="161" y="-14" on="0"/>
        <pt x="22" y="119" on="0"/>
        <pt x="22" y="233" on="1"/>
        <pt x="22" y="303" on="0"/>
        <pt x="73" y="428" on="0"/>
        <pt x="162" y="520" on="0"/>
        <pt x="287" y="575" on="0"/>
      </contour>
      <contour>
        <pt x="295" y="170" on="1"/>
        <pt x="309" y="170" on="0"/>
        <pt x="335" y="202" on="0"/>
        <pt x="354" y="250" on="0"/>
        <pt x="366" y="309" on="0"/>
        <pt x="366" y="336" on="1"/>
        <pt x="366" y="367" on="0"/>
        <pt x="350" y="391" on="0"/>
        <pt x="338" y="391" on="1"/>
        <pt x="323" y="391" on="0"/>
        <pt x="297" y="360" on="0"/>
        <pt x="277" y="311" on="0"/>
        <pt x="266" y="252" on="0"/>
        <pt x="266" y="225" on="1"/>
        <pt x="266" y="195" on="0"/>
        <pt x="282" y="170" on="0"/>
      </contour>
    </TTGlyph>
    <TTGlyph name="Omega" xMin="-19" yMin="0" xMax="612" yMax="635">
      <contour>
        <pt x="262" y="6" on="1"/>
        <pt x="256" y="0" on="1"/>
        <pt x="-19" y="0" on="1"/>
        <pt x="18" y="187" on="1"/>
        <pt x="104" y="187" on="1"/>
        <pt x="88" y="225" on="0"/>
        <pt x="72" y="303" on="0"/>
        <pt x="72" y="340" on="1"/>
        <pt x="72" y="402" on="0"/>
        <pt x="114" y="511" on="0"/>
        <pt x="192" y="590" on="0"/>
        <pt x="304" y="635" on="0"/>
        <pt x="375" y="635" on="1"/>
        <pt x="434" y="635" on="0"/>
        <pt x="523" y="602" on="0"/>
        <pt x="582" y="545" on="0"/>
        <pt x="612" y="467" on="0"/>
        <pt x="612" y="422" on="1"/>
        <pt x="612" y="370" on="0"/>
        <pt x="568" y="246" on="0"/>
        <pt x="522" y="187" on="1"/>
        <pt x="606" y="187" on="1"/>
        <pt x="569" y="0" on="1"/>
        <pt x="304" y="0" on="1"/>
        <pt x="302" y="6" on="1"/>
        <pt x="344" y="141" on="0"/>
        <pt x="386" y="324" on="0"/>
        <pt x="386" y="368" on="1"/>
        <pt x="386" y="399" on="0"/>
        <pt x="369" y="430" on="0"/>
        <pt x="353" y="430" on="1"/>
        <pt x="314" y="430" on="0"/>
        <pt x="262" y="268" on="0"/>
        <pt x="262" y="111" on="1"/>
      </contour>
    </TTGlyph>
    <TTGlyph name="Oslash" xMin="0" yMin="-40" xMax="658" yMax="665">
      <contour>
        <pt x="357" y="445" on="1"/>
        <pt x="341" y="445" on="0"/>
        <pt x="313" y="420" on="0"/>
        <pt x="290" y="379" on="0"/>
        <pt x="274" y="326" on="0"/>
        <pt x="270" y="298" on="1"/>
        <pt x="386" y="429" on="1"/>
        <pt x="381" y="437" on="0"/>
        <pt x="366" y="445" on="0"/>
      </contour>
      <contour>
        <pt x="306" y="175" on="1"/>
        <pt x="322" y="175" on="0"/>
        <pt x="351" y="203" on="0"/>
        <pt x="374" y="248" on="0"/>
        <pt x="390" y="306" on="0"/>
        <pt x="393" y="336" on="1"/>
        <pt x="273" y="200" on="1"/>
        <pt x="277" y="187" on="0"/>
        <pt x="295" y="175" on="0"/>
      </contour>
      <contour>
        <pt x="282" y="-14" on="1"/>
        <pt x="246" y="-14" on="0"/>
        <pt x="181" y="1" on="0"/>
        <pt x="154" y="14" on="1"/>
        <pt x="105" y="-40" on="1"/>
        <pt x="0" y="44" on="1"/>
        <pt x="57" y="108" on="1"/>
        <pt x="41" y="137" on="0"/>
        <pt x="24" y="209" on="0"/>
        <pt x="24" y="251" on="1"/>
        <pt x="24" y="329" on="0"/>
        <pt x="78" y="469" on="0"/>
        <pt x="173" y="573" on="0"/>
        <pt x="304" y="634" on="0"/>
        <pt x="381" y="634" on="1"/>
        <pt x="415" y="634" on="0"/>
        <pt x="477" y="621" on="0"/>
        <pt x="503" y="609" on="1"/>
        <pt x="553" y="665" on="1"/>
        <pt x="658" y="581" on="1"/>
        <pt x="603" y="518" on="1"/>
        <pt x="620" y="488" on="0"/>
        <pt x="639" y="413" on="0"/>
        <pt x="639" y="369" on="1"/>
        <pt x="639" y="291" on="0"/>
        <pt x="585" y="151" on="0"/>
        <pt x="490" y="47" on="0"/>
        <pt x="359" y="-14" on="0"/>
      </contour>
    </TTGlyph>
    <TTGlyph name="Oslash.sc" xMin="7" yMin="-42" xMax="628" yMax="602">
      <contour>
        <pt x="338" y="402" on="1"/>
        <pt x="324" y="402" on="0"/>
        <pt x="299" y="378" on="0"/>
        <pt x="279" y="339" on="0"/>
        <pt x="264" y="288" on="0"/>
        <pt x="261" y="262" on="1"/>
        <pt x="366" y="385" on="1"/>
        <pt x="362" y="394" on="0"/>
        <pt x="347" y="402" on="0"/>
      </contour>
      <contour>
        <pt x="295" y="159" on="1"/>
        <pt x="308" y="159" on="0"/>
        <pt x="332" y="182" on="0"/>
        <pt x="352" y="220" on="0"/>
        <pt x="366" y="270" on="0"/>
        <pt x="370" y="296" on="1"/>
        <pt x="267" y="174" on="1"/>
        <pt x="271" y="167" on="0"/>
        <pt x="286" y="159" on="0"/>
      </contour>
      <contour>
        <pt x="272" y="-14" on="1"/>
        <pt x="238" y="-14" on="0"/>
        <pt x="178" y="-2" on="0"/>
        <pt x="152" y="11" on="1"/>
        <pt x="106" y="-42" on="1"/>
        <pt x="7" y="34" on="1"/>
        <pt x="59" y="93" on="1"/>
        <pt x="41" y="121" on="0"/>
        <pt x="22" y="192" on="0"/>
        <pt x="22" y="233" on="1"/>
        <pt x="22" y="303" on="0"/>
        <pt x="73" y="428" on="0"/>
        <pt x="162" y="520" on="0"/>
        <pt x="287" y="575" on="0"/>
        <pt x="360" y="575" on="1"/>
        <pt x="394" y="575" on="0"/>
        <pt x="456" y="562" on="0"/>
        <pt x="482" y="549" on="1"/>
        <pt x="529" y="602" on="1"/>
        <pt x="628" y="526" on="1"/>
        <pt x="575" y="466" on="1"/>
        <pt x="591" y="438" on="0"/>
        <pt x="610" y="369" on="0"/>
        <pt x="610" y="329" on="1"/>
        <pt x="610" y="259" on="0"/>
        <pt x="559" y="133" on="0"/>
        <pt x="469" y="41" on="0"/>
        <pt x="345" y="-14" on="0"/>
      </contour>
    </TTGlyph>
    <TTGlyph name="Oslashacute" xMin="0" yMin="-40" xMax="658" yMax="923">
      <contour>
        <pt x="252" y="744" on="1"/>
        <pt x="327" y="785" on="0"/>
        <pt x="462" y="874" on="0"/>
        <pt x="525" y="923" on="1"/>
        <pt x="626" y="755" on="1"/>
        <pt x="545" y="709" on="0"/>
        <pt x="369" y="665" on="0"/>
        <pt x="278" y="654" on="1"/>
      </contour>
      <contour>
        <pt x="357" y="445" on="1"/>
        <pt x="341" y="445" on="0"/>
        <pt x="313" y="420" on="0"/>
        <pt x="290" y="379" on="0"/>
        <pt x="274" y="326" on="0"/>
        <pt x="270" y="298" on="1"/>
        <pt x="386" y="429" on="1"/>
        <pt x="381" y="437" on="0"/>
        <pt x="366" y="445" on="0"/>
      </contour>
      <contour>
        <pt x="306" y="175" on="1"/>
        <pt x="322" y="175" on="0"/>
        <pt x="351" y="203" on="0"/>
        <pt x="374" y="248" on="0"/>
        <pt x="390" y="306" on="0"/>
        <pt x="393" y="336" on="1"/>
        <pt x="273" y="200" on="1"/>
        <pt x="277" y="187" on="0"/>
        <pt x="295" y="175" on="0"/>
      </contour>
      <contour>
        <pt x="282" y="-14" on="1"/>
        <pt x="246" y="-14" on="0"/>
        <pt x="181" y="1" on="0"/>
        <pt x="154" y="14" on="1"/>
        <pt x="105" y="-40" on="1"/>
        <pt x="0" y="44" on="1"/>
        <pt x="57" y="108" on="1"/>
        <pt x="41" y="137" on="0"/>
        <pt x="24" y="209" on="0"/>
        <pt x="24" y="251" on="1"/>
        <pt x="24" y="329" on="0"/>
        <pt x="78" y="469" on="0"/>
        <pt x="173" y="573" on="0"/>
        <pt x="304" y="634" on="0"/>
        <pt x="381" y="634" on="1"/>
        <pt x="415" y="634" on="0"/>
        <pt x="477" y="621" on="0"/>
        <pt x="503" y="609" on="1"/>
        <pt x="553" y="665" on="1"/>
        <pt x="658" y="581" on="1"/>
        <pt x="603" y="518" on="1"/>
        <pt x="620" y="488" on="0"/>
        <pt x="639" y="413" on="0"/>
        <pt x="639" y="369" on="1"/>
        <pt x="639" y="291" on="0"/>
        <pt x="585" y="151" on="0"/>
        <pt x="490" y="47" on="0"/>
        <pt x="359" y="-14" on="0"/>
      </contour>
    </TTGlyph>
    <TTGlyph name="Oslashacute.sc" xMin="7" yMin="-42" xMax="628" yMax="871">
      <contour>
        <pt x="233" y="692" on="1"/>
        <pt x="308" y="733" on="0"/>
        <pt x="443" y="822" on="0"/>
        <pt x="506" y="871" on="1"/>
        <pt x="607" y="703" on="1"/>
        <pt x="526" y="657" on="0"/>
        <pt x="350" y="613" on="0"/>
        <pt x="259" y="602" on="1"/>
      </contour>
      <contour>
        <pt x="338" y="402" on="1"/>
        <pt x="324" y="402" on="0"/>
        <pt x="299" y="378" on="0"/>
        <pt x="279" y="339" on="0"/>
        <pt x="264" y="288" on="0"/>
        <pt x="261" y="262" on="1"/>
        <pt x="366" y="385" on="1"/>
        <pt x="362" y="394" on="0"/>
        <pt x="347" y="402" on="0"/>
      </contour>
      <contour>
        <pt x="295" y="159" on="1"/>
        <pt x="308" y="159" on="0"/>
        <pt x="332" y="182" on="0"/>
        <pt x="352" y="220" on="0"/>
        <pt x="366" y="270" on="0"/>
        <pt x="370" y="296" on="1"/>
        <pt x="267" y="174" on="1"/>
        <pt x="271" y="167" on="0"/>
        <pt x="286" y="159" on="0"/>
      </contour>
      <contour>
        <pt x="272" y="-14" on="1"/>
        <pt x="238" y="-14" on="0"/>
        <pt x="178" y="-2" on="0"/>
        <pt x="152" y="11" on="1"/>
        <pt x="106" y="-42" on="1"/>
        <pt x="7" y="34" on="1"/>
        <pt x="59" y="93" on="1"/>
        <pt x="41" y="121" on="0"/>
        <pt x="22" y="192" on="0"/>
        <pt x="22" y="233" on="1"/>
        <pt x="22" y="303" on="0"/>
        <pt x="73" y="428" on="0"/>
        <pt x="162" y="520" on="0"/>
        <pt x="287" y="575" on="0"/>
        <pt x="360" y="575" on="1"/>
        <pt x="394" y="575" on="0"/>
        <pt x="456" y="562" on="0"/>
        <pt x="482" y="549" on="1"/>
        <pt x="529" y="602" on="1"/>
        <pt x="628" y="526" on="1"/>
        <pt x="575" y="466" on="1"/>
        <pt x="591" y="438" on="0"/>
        <pt x="610" y="369" on="0"/>
        <pt x="610" y="329" on="1"/>
        <pt x="610" y="259" on="0"/>
        <pt x="559" y="133" on="0"/>
        <pt x="469" y="41" on="0"/>
        <pt x="345" y="-14" on="0"/>
      </contour>
    </TTGlyph>
    <TTGlyph name="Otilde" xMin="24" yMin="-14" xMax="673" yMax="892">
      <contour>
        <pt x="511" y="828" on="1"/>
        <pt x="522" y="828" on="0"/>
        <pt x="551" y="858" on="0"/>
        <pt x="573" y="892" on="1"/>
        <pt x="673" y="834" on="1"/>
        <pt x="630" y="754" on="0"/>
        <pt x="544" y="665" on="0"/>
        <pt x="492" y="665" on="1"/>
        <pt x="466" y="665" on="0"/>
        <pt x="419" y="685" on="0"/>
        <pt x="379" y="708" on="0"/>
        <pt x="347" y="728" on="0"/>
        <pt x="335" y="728" on="1"/>
        <pt x="323" y="728" on="0"/>
        <pt x="296" y="698" on="0"/>
        <pt x="273" y="664" on="1"/>
        <pt x="173" y="722" on="1"/>
        <pt x="214" y="799" on="0"/>
        <pt x="298" y="891" on="0"/>
        <pt x="350" y="891" on="1"/>
        <pt x="376" y="891" on="0"/>
        <pt x="424" y="871" on="0"/>
        <pt x="465" y="848" on="0"/>
        <pt x="499" y="828" on="0"/>
      </contour>
      <contour>
        <pt x="381" y="634" on="1"/>
        <pt x="438" y="634" on="0"/>
        <pt x="534" y="598" on="0"/>
        <pt x="601" y="530" on="0"/>
        <pt x="639" y="431" on="0"/>
        <pt x="639" y="369" on="1"/>
        <pt x="639" y="291" on="0"/>
        <pt x="585" y="151" on="0"/>
        <pt x="490" y="47" on="0"/>
        <pt x="359" y="-14" on="0"/>
        <pt x="282" y="-14" on="1"/>
        <pt x="225" y="-14" on="0"/>
        <pt x="129" y="22" on="0"/>
        <pt x="62" y="90" on="0"/>
        <pt x="24" y="189" on="0"/>
        <pt x="24" y="251" on="1"/>
        <pt x="24" y="329" on="0"/>
        <pt x="78" y="469" on="0"/>
        <pt x="173" y="573" on="0"/>
        <pt x="304" y="634" on="0"/>
      </contour>
      <contour>
        <pt x="308" y="188" on="1"/>
        <pt x="323" y="188" on="0"/>
        <pt x="351" y="224" on="0"/>
        <pt x="371" y="279" on="0"/>
        <pt x="383" y="347" on="0"/>
        <pt x="383" y="379" on="1"/>
        <pt x="383" y="407" on="0"/>
        <pt x="368" y="432" on="0"/>
        <pt x="355" y="432" on="1"/>
        <pt x="339" y="432" on="0"/>
        <pt x="311" y="397" on="0"/>
        <pt x="291" y="342" on="0"/>
        <pt x="279" y="275" on="0"/>
        <pt x="279" y="244" on="1"/>
        <pt x="279" y="215" on="0"/>
        <pt x="294" y="188" on="0"/>
      </contour>
    </TTGlyph>
    <TTGlyph name="Otilde.sc" xMin="22" yMin="-14" xMax="651" yMax="833">
      <contour>
        <pt x="489" y="769" on="1"/>
        <pt x="500" y="769" on="0"/>
        <pt x="529" y="799" on="0"/>
        <pt x="551" y="833" on="1"/>
        <pt x="651" y="775" on="1"/>
        <pt x="608" y="695" on="0"/>
        <pt x="522" y="606" on="0"/>
        <pt x="470" y="606" on="1"/>
        <pt x="444" y="606" on="0"/>
        <pt x="397" y="626" on="0"/>
        <pt x="357" y="649" on="0"/>
        <pt x="325" y="669" on="0"/>
        <pt x="313" y="669" on="1"/>
        <pt x="301" y="669" on="0"/>
        <pt x="274" y="639" on="0"/>
        <pt x="251" y="605" on="1"/>
        <pt x="151" y="663" on="1"/>
        <pt x="192" y="740" on="0"/>
        <pt x="276" y="832" on="0"/>
        <pt x="328" y="832" on="1"/>
        <pt x="354" y="832" on="0"/>
        <pt x="402" y="812" on="0"/>
        <pt x="443" y="789" on="0"/>
        <pt x="477" y="769" on="0"/>
      </contour>
      <contour>
        <pt x="360" y="575" on="1"/>
        <pt x="415" y="575" on="0"/>
        <pt x="507" y="541" on="0"/>
        <pt x="573" y="478" on="0"/>
        <pt x="610" y="386" on="0"/>
        <pt x="610" y="329" on="1"/>
        <pt x="610" y="259" on="0"/>
        <pt x="559" y="133" on="0"/>
        <pt x="469" y="41" on="0"/>
        <pt x="345" y="-14" on="0"/>
        <pt x="272" y="-14" on="1"/>
        <pt x="161" y="-14" on="0"/>
        <pt x="22" y="119" on="0"/>
        <pt x="22" y="233" on="1"/>
        <pt x="22" y="303" on="0"/>
        <pt x="73" y="428" on="0"/>
        <pt x="162" y="520" on="0"/>
        <pt x="287" y="575" on="0"/>
      </contour>
      <contour>
        <pt x="295" y="170" on="1"/>
        <pt x="309" y="170" on="0"/>
        <pt x="335" y="202" on="0"/>
        <pt x="354" y="250" on="0"/>
        <pt x="366" y="309" on="0"/>
        <pt x="366" y="336" on="1"/>
        <pt x="366" y="367" on="0"/>
        <pt x="350" y="391" on="0"/>
        <pt x="338" y="391" on="1"/>
        <pt x="323" y="391" on="0"/>
        <pt x="297" y="360" on="0"/>
        <pt x="277" y="311" on="0"/>
        <pt x="266" y="252" on="0"/>
        <pt x="266" y="225" on="1"/>
        <pt x="266" y="195" on="0"/>
        <pt x="282" y="170" on="0"/>
      </contour>
    </TTGlyph>
    <TTGlyph name="P" xMin="-9" yMin="0" xMax="611" yMax="629">
      <contour>
        <pt x="232" y="0" on="1"/>
        <pt x="-9" y="0" on="1"/>
        <pt x="110" y="614" on="1"/>
        <pt x="163" y="622" on="0"/>
        <pt x="257" y="629" on="0"/>
        <pt x="297" y="629" on="1"/>
        <pt x="465" y="629" on="0"/>
        <pt x="611" y="514" on="0"/>
        <pt x="611" y="421" on="1"/>
        <pt x="611" y="309" on="0"/>
        <pt x="422" y="156" on="0"/>
        <pt x="256" y="123" on="1"/>
      </contour>
      <contour>
        <pt x="304" y="299" on="1"/>
        <pt x="341" y="299" on="0"/>
        <pt x="378" y="355" on="0"/>
        <pt x="378" y="387" on="1"/>
        <pt x="378" y="413" on="0"/>
        <pt x="353" y="441" on="0"/>
        <pt x="328" y="441" on="1"/>
        <pt x="326" y="441" on="0"/>
        <pt x="320" y="441" on="0"/>
        <pt x="318" y="440" on="1"/>
        <pt x="290" y="300" on="1"/>
        <pt x="294" y="300" on="0"/>
        <pt x="300" y="299" on="0"/>
      </contour>
    </TTGlyph>
    <TTGlyph name="P.sc" xMin="-7" yMin="0" xMax="582" yMax="569">
      <contour>
        <pt x="223" y="0" on="1"/>
        <pt x="-7" y="0" on="1"/>
        <pt x="100" y="555" on="1"/>
        <pt x="150" y="562" on="0"/>
        <pt x="240" y="569" on="0"/>
        <pt x="278" y="569" on="1"/>
        <pt x="440" y="569" on="0"/>
        <pt x="582" y="462" on="0"/>
        <pt x="582" y="378" on="1"/>
        <pt x="582" y="278" on="0"/>
        <pt x="402" y="141" on="0"/>
        <pt x="245" y="111" on="1"/>
      </contour>
      <contour>
        <pt x="289" y="270" on="1"/>
        <pt x="325" y="270" on="0"/>
        <pt x="360" y="321" on="0"/>
        <pt x="360" y="350" on="1"/>
        <pt x="360" y="375" on="0"/>
        <pt x="334" y="399" on="0"/>
        <pt x="311" y="399" on="1"/>
        <pt x="309" y="399" on="0"/>
        <pt x="303" y="399" on="0"/>
        <pt x="300" y="398" on="1"/>
        <pt x="275" y="271" on="1"/>
        <pt x="279" y="271" on="0"/>
        <pt x="285" y="270" on="0"/>
      </contour>
    </TTGlyph>
    <TTGlyph name="Q" xMin="31" yMin="-157" xMax="627" yMax="634">
      <contour>
        <pt x="498" y="-157" on="1"/>
        <pt x="51" y="-66" on="1"/>
        <pt x="85" y="96" on="1"/>
        <pt x="58" y="147" on="0"/>
        <pt x="31" y="253" on="0"/>
        <pt x="31" y="304" on="1"/>
        <pt x="31" y="371" on="0"/>
        <pt x="76" y="491" on="0"/>
        <pt x="161" y="581" on="0"/>
        <pt x="287" y="634" on="0"/>
        <pt x="368" y="634" on="1"/>
        <pt x="432" y="634" on="0"/>
        <pt x="529" y="598" on="0"/>
        <pt x="594" y="536" on="0"/>
        <pt x="627" y="449" on="0"/>
        <pt x="627" y="398" on="1"/>
        <pt x="627" y="338" on="0"/>
        <pt x="588" y="235" on="0"/>
        <pt x="522" y="150" on="0"/>
        <pt x="432" y="81" on="0"/>
        <pt x="381" y="56" on="1"/>
        <pt x="538" y="34" on="1"/>
      </contour>
      <contour>
        <pt x="280" y="305" on="1"/>
        <pt x="280" y="285" on="0"/>
        <pt x="286" y="240" on="0"/>
        <pt x="292" y="217" on="1"/>
        <pt x="333" y="258" on="0"/>
        <pt x="374" y="346" on="0"/>
        <pt x="374" y="385" on="1"/>
        <pt x="374" y="410" on="0"/>
        <pt x="355" y="432" on="0"/>
        <pt x="341" y="432" on="1"/>
        <pt x="315" y="432" on="0"/>
        <pt x="280" y="361" on="0"/>
      </contour>
    </TTGlyph>
    <TTGlyph name="Q.sc" xMin="28" yMin="-142" xMax="598" yMax="575">
      <contour>
        <pt x="480" y="-142" on="1"/>
        <pt x="51" y="-60" on="1"/>
        <pt x="82" y="86" on="1"/>
        <pt x="55" y="134" on="0"/>
        <pt x="28" y="233" on="0"/>
        <pt x="28" y="279" on="1"/>
        <pt x="28" y="339" on="0"/>
        <pt x="70" y="447" on="0"/>
        <pt x="151" y="528" on="0"/>
        <pt x="271" y="575" on="0"/>
        <pt x="347" y="575" on="1"/>
        <pt x="409" y="575" on="0"/>
        <pt x="503" y="542" on="0"/>
        <pt x="566" y="483" on="0"/>
        <pt x="598" y="403" on="0"/>
        <pt x="598" y="357" on="1"/>
        <pt x="598" y="304" on="0"/>
        <pt x="561" y="212" on="0"/>
        <pt x="498" y="135" on="0"/>
        <pt x="413" y="74" on="0"/>
        <pt x="365" y="51" on="1"/>
        <pt x="517" y="31" on="1"/>
      </contour>
      <contour>
        <pt x="266" y="280" on="1"/>
        <pt x="266" y="261" on="0"/>
        <pt x="272" y="218" on="0"/>
        <pt x="279" y="196" on="1"/>
        <pt x="317" y="233" on="0"/>
        <pt x="356" y="312" on="0"/>
        <pt x="356" y="346" on="1"/>
        <pt x="356" y="370" on="0"/>
        <pt x="337" y="391" on="0"/>
        <pt x="323" y="391" on="1"/>
        <pt x="298" y="391" on="0"/>
        <pt x="266" y="329" on="0"/>
      </contour>
    </TTGlyph>
    <TTGlyph name="R" xMin="-9" yMin="-10" xMax="608" yMax="629">
      <contour>
        <pt x="319" y="-10" on="1"/>
        <pt x="267" y="206" on="1"/>
        <pt x="227" y="0" on="1"/>
        <pt x="-9" y="0" on="1"/>
        <pt x="109" y="609" on="1"/>
        <pt x="171" y="619" on="0"/>
        <pt x="277" y="629" on="0"/>
        <pt x="320" y="629" on="1"/>
        <pt x="404" y="629" on="0"/>
        <pt x="516" y="598" on="0"/>
        <pt x="581" y="546" on="0"/>
        <pt x="608" y="478" on="0"/>
        <pt x="608" y="441" on="1"/>
        <pt x="608" y="383" on="0"/>
        <pt x="543" y="291" on="0"/>
        <pt x="486" y="253" on="1"/>
        <pt x="574" y="10" on="1"/>
      </contour>
      <contour>
        <pt x="374" y="393" on="1"/>
        <pt x="374" y="414" on="0"/>
        <pt x="343" y="440" on="0"/>
        <pt x="312" y="440" on="1"/>
        <pt x="288" y="312" on="1"/>
        <pt x="332" y="328" on="0"/>
        <pt x="374" y="368" on="0"/>
      </contour>
    </TTGlyph>
    <TTGlyph name="R.sc" xMin="-7" yMin="-9" xMax="579" yMax="568">
      <contour>
        <pt x="308" y="-9" on="1"/>
        <pt x="255" y="189" on="1"/>
        <pt x="218" y="0" on="1"/>
        <pt x="-7" y="0" on="1"/>
        <pt x="99" y="551" on="1"/>
        <pt x="158" y="560" on="0"/>
        <pt x="259" y="568" on="0"/>
        <pt x="301" y="568" on="1"/>
        <pt x="382" y="568" on="0"/>
        <pt x="490" y="540" on="0"/>
        <pt x="553" y="493" on="0"/>
        <pt x="579" y="431" on="0"/>
        <pt x="579" y="397" on="1"/>
        <pt x="579" y="346" on="0"/>
        <pt x="517" y="263" on="0"/>
        <pt x="464" y="229" on="1"/>
        <pt x="551" y="9" on="1"/>
      </contour>
      <contour>
        <pt x="356" y="356" on="1"/>
        <pt x="356" y="375" on="0"/>
        <pt x="325" y="399" on="0"/>
        <pt x="295" y="399" on="1"/>
        <pt x="273" y="282" on="1"/>
        <pt x="316" y="297" on="0"/>
        <pt x="356" y="333" on="0"/>
      </contour>
    </TTGlyph>
</ttFont>
